<?xml version="1.0" encoding="UTF-8"?>
<svg id="_4Paw" data-name="4Paw" xmlns="http://www.w3.org/2000/svg" xmlns:xlink="http://www.w3.org/1999/xlink" viewBox="0 0 1300 1300">
  <defs>
    <style>
      .cls-1 {
        fill: #181818;
      }

      .cls-2 {
        fill: #fcfdf8;
      }

      .cls-3 {
        fill: #261911;
      }

      .cls-4 {
        fill: none;
      }

      .cls-5 {
        fill: #8b5e3c;
      }

      .cls-6 {
        clip-path: url(#clippath-1);
      }

      .cls-7 {
        fill: #ef60a3;
        stroke: #410d2d;
        stroke-miterlimit: 10;
        stroke-width: 13px;
      }

      .cls-8 {
        clip-path: url(#clippath-3);
      }

      .cls-9 {
        clip-path: url(#clippath-2);
      }

      .cls-10 {
        clip-path: url(#clippath);
      }
    </style>
    <clipPath id="clippath">
      <path class="cls-4" d="M126.12,1456.52c0-122.92,9.51-217.29-19.59-635.51-4.77-44.54,12.69-155.77,82.46-138.55-2.33-49.8,78.49-95.41,115.49-46.23,30.06-49.04,120.83-31.54,123.73,41.81,16.32,3.23,75.44-3.61,76.37,143.23-13.41,142.71-11.51,512.32-11.51,635.62-80.39,0-243.27-.38-366.95-.38Z"/>
    </clipPath>
    <clipPath id="clippath-1">
      <path class="cls-4" d="M-125.12,85.5c122.92,0,217.29,9.51,635.51-19.59,44.54-4.77,155.77,12.69,138.55,82.46,49.8-2.33,95.41,78.49,46.23,115.49,49.04,30.06,31.54,120.83-41.81,123.73-3.23,16.32,3.61,75.44-143.23,76.37-142.71-13.41-512.32-11.51-635.62-11.51,0-80.39.38-243.27.38-366.95Z"/>
    </clipPath>
    <clipPath id="clippath-2">
      <path class="cls-4" d="M1222.2-110.04c0,122.92-9.51,217.29,19.59,635.51,4.77,44.54-12.69,155.77-82.46,138.55,2.33,49.8-78.49,95.41-115.49,46.23-30.06,49.04-120.83,31.54-123.73-41.81-16.32-3.23-75.44,3.61-76.37-143.23,13.41-142.71,11.51-512.32,11.51-635.62,80.39,0,243.27.38,366.95.38Z"/>
    </clipPath>
    <clipPath id="clippath-3">
      <path class="cls-4" d="M1465.45,1221.55c-122.92,0-217.29-9.51-635.51,19.59-44.54,4.77-155.77-12.69-138.55-82.46-49.8,2.33-95.41-78.49-46.23-115.49-49.04-30.06-31.54-120.83,41.81-123.73,3.23-16.32-3.61-75.44,143.23-76.37,142.71,13.41,512.32,11.51,635.62,11.51,0,80.39-.38,243.27-.38,366.95Z"/>
    </clipPath>
  </defs>
  <g id="Paw_copy_3" data-name="Paw copy 3">
    <g id="BG-2" data-name="BG">
      <g>
        <path class="cls-2" d="M493.07,1471.9c-35.89,0-86.99-.07-146.15-.16-71.4-.1-152.33-.22-220.79-.22-8.28,0-15-6.72-15-15,0-22.99.33-44.93.68-68.16,1.52-100.91,3.41-226.48-20.21-566.04-3.72-35.48,4.65-100.31,34.97-134.05,13.29-14.79,30.02-22.6,48.38-22.6.25,0,.51,0,.76,0,3.04-12.66,9.94-24.95,20.25-35.75,17.81-18.66,42.59-29.8,66.29-29.8,15.44,0,29.6,4.82,41.22,13.83,13.8-12.98,32.75-20.38,53.46-20.38s42.03,7.8,57.58,21.4c14.74,12.89,24.08,29.94,27.41,49.82,12.19,1.97,30.61,7.19,46.22,26.38,20.77,25.53,31.06,68.06,31.45,130.02,0,.5-.02,1-.07,1.5-12.06,128.3-11.67,441.69-11.48,592.29.02,15.96.04,30.08.04,41.92,0,3.98-1.58,7.79-4.39,10.61-2.81,2.81-6.63,4.39-10.61,4.39Z"/>
        <path class="cls-1" d="M356.92,608.57c33.94,0,69.5,24.01,71.3,69.48,16.32,3.23,75.44-3.61,76.37,143.23-13.41,142.71-11.51,512.32-11.51,635.62-80.39,0-243.27-.38-366.95-.38,0-122.92,9.51-217.29-19.59-635.51-4.43-41.38,10.33-140.34,68.4-140.34,4.43,0,9.11.57,14.05,1.8-1.62-34.69,37.1-67.35,73.25-67.35,15.75,0,31.01,6.2,42.24,21.12,11.43-18.64,31.62-27.67,52.43-27.67M356.92,578.57c-20.23,0-39.1,6-54.37,16.79-12.02-6.71-25.69-10.25-40.3-10.25-27.72,0-56.56,12.88-77.14,34.45-9.25,9.69-16.19,20.49-20.59,31.79-18.6,2.48-35.41,11.65-49.1,26.89-19.86,22.1-29.51,53.11-34.11,75.24-4.98,23.95-6.71,50.11-4.66,70.12,23.56,338.74,21.67,463.91,20.16,564.52-.35,23.29-.68,45.28-.68,68.38,0,16.57,13.43,30,30,30,68.45,0,149.38.12,220.77.22,59.17.09,110.27.16,146.17.16,16.57,0,30-13.43,30-30,0-11.85-.02-25.97-.04-41.94-.19-150.38-.58-463.28,11.42-590.87.09-1,.14-2,.13-3-.42-65.51-11.8-111.1-34.82-139.39-14.81-18.21-31.9-25.97-45.34-29.57-5.18-18.98-15.46-35.69-30.05-48.45-18.51-16.19-42.46-25.11-67.45-25.11h0Z"/>
      </g>
      <g class="cls-10">
        <g>
          <path class="cls-5" d="M41.06,1675.52c-102.29,0-153.39-156.94-155.52-163.62-.94-2.96-.94-6.14,0-9.1L51.02,983.56c1.26-3.95,4.09-7.2,7.83-8.98,2.04-.97,4.25-1.46,6.46-1.46,1.85,0,3.7.34,5.46,1.03,1.62.63,40.33,15.92,85.65,49.21,60.33,44.31,103.62,99.79,125.18,160.45,33.53,94.34,16.96,201.42-49.27,318.29-34.02,60.03-67.95,104.98-100.86,133.61-30.38,26.42-60.8,39.82-90.42,39.82Z"/>
          <path class="cls-3" d="M65.32,988.12s361.13,141,153.97,506.58c-70.68,124.73-130.33,165.83-178.23,165.83-92.5,0-141.22-153.17-141.22-153.17L65.32,988.12M65.32,958.12c-4.42,0-8.84.98-12.92,2.92-7.48,3.57-13.15,10.07-15.67,17.97l-165.48,519.24c-1.89,5.92-1.89,12.28,0,18.2.54,1.71,13.6,42.31,39.02,83.3,15.54,25.06,32.6,45.27,50.72,60.07,24.93,20.37,51.87,30.7,80.07,30.7,33.34,0,67.08-14.64,100.26-43.51,34.2-29.75,69.21-76.02,104.07-137.53,36.06-63.63,58.02-125.35,65.28-183.45,6.46-51.68,1.43-101.22-14.93-147.25-12.66-35.63-32.2-69.35-58.06-100.23-20.39-24.35-44.75-46.99-72.38-67.28-46.89-34.44-87.38-50.43-89.08-51.09-3.51-1.37-7.22-2.05-10.91-2.05h0Z"/>
        </g>
        <g>
          <path class="cls-5" d="M569.68,1301.82c-21.06,0-46.93-8.35-79.08-25.51-69.73-37.21-106.69-83.27-109.86-136.88-6.39-108.11,129.17-203.79,134.95-207.81,2.54-1.77,5.54-2.69,8.57-2.69,1.27,0,2.54.16,3.79.49,4.25,1.11,7.79,4.02,9.71,7.97.31.65,31.62,65.49,57.09,138.08,35.9,102.32,43.14,168.34,22.14,201.84-7.01,11.18-20.9,24.51-47.29,24.51h-.02Z"/>
          <path class="cls-3" d="M524.26,943.93s166.17,342.89,45.43,342.89c-17.51,0-41.07-7.22-72.02-23.74-244.42-130.44,26.6-319.14,26.6-319.14M524.26,913.93c-6.07,0-12.06,1.84-17.14,5.38-1.49,1.03-36.78,25.77-71.53,63.84-20.89,22.89-37.38,46.01-49.01,68.71-15.49,30.24-22.5,60-20.82,88.45,1.69,28.65,12.12,55.63,30.98,80.2,19.62,25.54,48.82,48.77,86.79,69.03,34.39,18.35,62.57,27.28,86.15,27.28,25.95,0,47.27-11.21,60.02-31.56,14.16-22.6,17.49-55.65,10.17-101.04-5.1-31.64-15.49-69.9-30.87-113.74-25.75-73.38-56.45-136.97-57.75-139.64-3.83-7.9-10.92-13.72-19.41-15.94-2.5-.65-5.05-.98-7.59-.98h0Z"/>
        </g>
      </g>
    </g>
    <g id="Print">
      <ellipse class="cls-7" cx="259.06" cy="722.65" rx="39.45" ry="50.5" transform="translate(-76.52 32.2) rotate(-6.2)"/>
      <ellipse class="cls-7" cx="354.36" cy="722.65" rx="50.5" ry="39.45" transform="translate(-395.2122 1015.8061) rotate(-85.2386)"/>
      <ellipse class="cls-7" cx="182.93" cy="794.79" rx="37.11" ry="47.5" transform="translate(-113.16 34.87) rotate(-8.33)"/>
      <ellipse class="cls-7" cx="429.39" cy="795.84" rx="47.5" ry="37.11" transform="translate(-426.1102 1088.8381) rotate(-80.557)"/>
      <path class="cls-7" d="M308.74,789.77c-3.93,0-49.44-3.66-74.64,57.42-41.81,19.29-52.53,66.55-33.04,95.54,20.91,30.18,74.99,20.32,106.24,3.57,11.41,0,79.38,43.02,110.52-11.88,11.57-40.64-3.33-64.88-40.88-88.57-.71-2.38-16.05-56.08-68.2-56.08Z"/>
    </g>
  </g>
  <g id="Paw_copy_4" data-name="Paw copy 4">
    <g id="BG-3" data-name="BG">
      <g>
        <path class="cls-2" d="M510.11,478.96c-.47,0-.94-.02-1.4-.07-122.75-11.54-422.84-11.54-521.45-11.54-26.14,0-50.05.03-70.83.06-15.97.02-30.08.04-41.93.04-8.28,0-15-6.72-15-15,0-35.89.07-86.99.16-146.15.1-71.4.22-152.33.22-220.79,0-8.28,6.72-15,15-15,22.99,0,44.93.33,68.16.68,26.36.4,53.62.81,86.03.81,82.82,0,212.21-2.39,480.01-21.02,5-.52,10.57-.79,16.55-.79,33.8,0,98.51,9.58,126.61,45.46,9.06,11.56,13.6,24.96,13.46,39.4,29.31,6.92,52.28,33.67,61.12,60.14,8.43,25.24,4.86,49.42-9.35,67.67,17.89,19,24.87,47.45,17.47,75.8-4.51,17.31-13.87,32.4-27.05,43.65-11.54,9.85-25.64,16.3-41.28,18.96-1.97,12.19-7.18,30.62-26.38,46.24-25.53,20.77-68.06,31.06-130.02,31.45h-.09Z"/>
        <path class="cls-1" d="M525.63,65.18c50.35,0,138.79,20.43,123.3,83.19.71-.03,1.41-.05,2.11-.05,48.96,0,92.6,79.06,44.11,115.54,49.04,30.06,31.54,120.83-41.81,123.73-3.23,16.32,3.61,75.44-143.23,76.37-111.17-10.45-360.04-11.6-522.89-11.6-46.2,0-85.47.09-112.73.09,0-80.39.38-243.27.38-366.95,48.59,0,92.74,1.49,154.18,1.49,93.98,0,228.44-3.48,481.32-21.07,4.47-.48,9.62-.73,15.24-.73M525.63,35.18c-6.4,0-12.4.28-17.85.84C240.64,54.6,111.61,56.99,29.06,56.99c-32.3,0-59.5-.41-85.8-.81-23.29-.35-45.28-.68-68.38-.68-16.57,0-30,13.43-30,30,0,68.45-.12,149.38-.22,220.77-.09,59.17-.16,110.27-.16,146.17,0,16.57,13.43,30,30,30,11.85,0,25.97-.02,41.94-.04,20.94-.03,44.67-.06,70.79-.06,98.45,0,398.03,0,520.08,11.47.93.09,1.87.13,2.81.13.06,0,.13,0,.19,0,65.51-.42,111.1-11.8,139.39-34.82,18.19-14.8,25.96-31.88,29.56-45.31,14.3-3.88,27.31-10.67,38.37-20.12,15.53-13.25,26.54-30.98,31.83-51.28,7.6-29.14,2.21-58.46-13.42-80.54,3.63-6.51,6.34-13.51,8.06-20.91,3.71-16,2.66-33.49-3.05-50.56-6.29-18.81-17.97-36.32-32.89-49.3-8.65-7.52-18.18-13.32-28.09-17.18-1.79-13.56-7.16-26.24-16.02-37.55-14.31-18.27-37.04-32.09-67.56-41.08-21.87-6.44-47.7-10.14-70.87-10.14h0Z"/>
      </g>
      <g class="cls-6">
        <g>
          <path class="cls-5" d="M48.61,257.78c-68.16,0-141.94-22.23-219.3-66.07-63.5-35.99-110.09-71.86-138.46-106.62-26.08-31.95-37.67-63.85-34.44-94.83,9.95-95.57,156.84-143.37,163.09-145.36,1.48-.47,3.01-.71,4.55-.71s3.07.24,4.55.71L347.83,10.4c3.95,1.26,7.2,4.09,8.98,7.83,1.78,3.74,1.94,8.05.43,11.91-.91,2.33-22.8,57.59-71.43,113.44-28.74,33-60.9,59.34-95.6,78.28-43.64,23.83-91.29,35.91-141.62,35.91Z"/>
          <path class="cls-3" d="M-175.96-140.79L343.28,24.69S258.13,242.78,48.61,242.78c-60.1,0-130.42-17.94-211.91-64.12-365.58-207.16-12.66-319.45-12.66-319.45M-175.96-170.79c-3.07,0-6.14.47-9.1,1.41-1.6.51-39.73,12.77-79.34,36.6-24.09,14.49-43.93,30.39-58.98,47.24-20.59,23.05-32.41,48.04-35.14,74.26-3.65,35.09,9.05,70.71,37.74,105.86,14.56,17.83,33.63,35.96,56.68,53.87,23.88,18.55,52.81,37.5,86,56.31,79.64,45.13,155.92,68.02,226.7,68.02,52.87,0,102.94-12.7,148.81-37.75,36.26-19.8,69.81-47.25,99.72-81.6,50.32-57.79,73.14-115.41,74.09-117.83,3.01-7.72,2.7-16.34-.87-23.83-3.57-7.48-10.07-13.15-17.97-15.67L-166.85-169.37c-2.96-.94-6.04-1.42-9.11-1.42h0Z"/>
        </g>
        <g>
          <path class="cls-5" d="M-203.96,570.05c-4,0-7.86-1.6-10.7-4.49-3.22-3.28-4.76-7.85-4.18-12.42l29.13-227.96c.96-7.51,7.36-13.1,14.87-13.1.19,0,.38,0,.57.01,1.65.06,40.79,1.67,82.46,16.09C-33.85,348.24.65,383.4,7.96,429.87c3.44,21.85-1.86,42.14-15.74,60.31-48.13,62.99-188.59,79.12-194.54,79.78-.55.06-1.1.09-1.64.09Z"/>
          <path class="cls-3" d="M-174.84,327.09s152.33,5.7,167.98,105.11c15.65,99.42-197.11,122.85-197.11,122.85l29.13-227.96M-174.85,297.09c-15.03,0-27.82,11.17-29.74,26.2l-29.13,227.96c-1.17,9.12,1.92,18.27,8.36,24.83,5.67,5.77,13.4,8.97,21.39,8.97,1.09,0,2.19-.06,3.29-.18,1.52-.17,37.74-4.24,80.03-15.91,60.16-16.6,102.14-40.04,124.79-69.67,16.24-21.25,22.69-46.07,18.64-71.75-4.69-29.77-19.04-55.41-42.66-76.21-17.52-15.43-40.08-27.99-67.03-37.31-43.76-15.14-85.07-16.84-86.81-16.9-.38-.01-.76-.02-1.14-.02h0Z"/>
        </g>
        <g>
          <path class="cls-5" d="M104.64,588.02c-33.31,0-55.96-9.62-67.34-28.59-14.47-24.12-8.65-59.92,17.78-109.45,38.98-73.04,87.54-110.08,144.32-110.08,105.05,0,196.52,129.65,200.37,135.17,2.51,3.6,3.31,8.12,2.2,12.37s-4.02,7.79-7.97,9.71c-7.66,3.71-188.73,90.89-289.35,90.89h-.01Z"/>
          <path class="cls-3" d="M199.41,354.9c98.42,0,188.05,128.74,188.05,128.74,0,0-184.5,89.39-282.82,89.39-55.16,0-83.2-28.14-36.32-115.98,40.54-75.96,86.71-102.14,131.09-102.14M199.41,324.9c-30.2,0-58.65,9.52-84.58,28.28-27.13,19.64-51.68,49.83-72.98,89.73-13.8,25.86-22.16,47.89-25.56,67.36-3.88,22.26-1.14,41.39,8.14,56.88,8,13.34,20.26,23.13,36.43,29.09,12.39,4.57,26.7,6.78,43.78,6.78,44.45,0,108.04-15.7,189-46.67,58.94-22.55,104.97-44.78,106.9-45.72,7.9-3.83,13.72-10.92,15.94-19.41,2.22-8.49.61-17.53-4.4-24.73-.99-1.42-24.68-35.23-61.34-69.23-21.99-20.39-44.24-36.75-66.12-48.62-29.04-15.76-57.71-23.75-85.21-23.75h0Z"/>
        </g>
      </g>
    </g>
    <g id="Print-2" data-name="Print">
      <ellipse class="cls-7" cx="608.74" cy="218.43" rx="50.5" ry="39.45" transform="translate(-20.03 67.01) rotate(-6.2)"/>
      <ellipse class="cls-7" cx="608.74" cy="313.74" rx="39.45" ry="50.5" transform="translate(245.56 894.34) rotate(-85.24)"/>
      <ellipse class="cls-7" cx="536.61" cy="142.3" rx="47.5" ry="37.11" transform="translate(-14.95 79.2) rotate(-8.33)"/>
      <ellipse class="cls-7" cx="535.56" cy="388.77" rx="37.11" ry="47.5" transform="translate(64.19 853.29) rotate(-80.56)"/>
      <path class="cls-7" d="M541.63,268.11c0-3.93,3.66-49.44-57.42-74.64-19.29-41.81-66.55-52.53-95.54-33.04-30.18,20.91-20.32,74.99-3.57,106.24,0,11.41-43.02,79.38,11.88,110.52,40.64,11.57,64.88-3.33,88.57-40.88,2.38-.71,56.08-16.05,56.08-68.2Z"/>
    </g>
  </g>
  <g id="Paw_copy_5" data-name="Paw copy 5">
    <g id="BG-4" data-name="BG">
      <g>
        <path class="cls-2" d="M991.4,752.9c-21.05,0-42.03-7.8-57.58-21.4-14.74-12.89-24.08-29.94-27.41-49.82-12.19-1.97-30.61-7.19-46.22-26.38-20.77-25.53-31.06-68.06-31.45-130.02,0-.5.02-1,.07-1.5,12.06-128.3,11.67-441.69,11.48-592.29-.02-15.96-.04-30.08-.04-41.92,0-8.28,6.72-15,15-15,35.89,0,86.99.07,146.15.16,71.4.1,152.33.22,220.79.22,8.28,0,15,6.72,15,15,0,22.99-.33,44.93-.68,68.16-1.52,100.91-3.41,226.48,20.21,566.04,3.72,35.48-4.65,100.31-34.97,134.05-13.29,14.79-30.02,22.6-48.38,22.6-.25,0-.51,0-.76,0-3.04,12.66-9.94,24.95-20.24,35.75-17.81,18.66-42.59,29.81-66.29,29.81-15.44,0-29.6-4.82-41.22-13.83-13.8,12.98-32.75,20.38-53.46,20.38Z"/>
        <path class="cls-1" d="M855.25-110.42c80.39,0,243.27.38,366.95.38,0,122.92-9.51,217.29,19.59,635.51,4.43,41.38-10.33,140.34-68.4,140.34-4.43,0-9.11-.57-14.05-1.8,1.62,34.69-37.1,67.35-73.25,67.35-15.75,0-31.01-6.2-42.24-21.12-11.43,18.64-31.62,27.67-52.43,27.67-33.94,0-69.5-24.01-71.3-69.48-16.32-3.23-75.44,3.61-76.37-143.23,13.41-142.71,11.51-512.32,11.51-635.62M855.25-140.42c-16.57,0-30,13.43-30,30,0,11.85.02,25.97.04,41.94.19,150.38.58,463.28-11.42,590.87-.09,1-.14,2-.13,3,.42,65.51,11.8,111.1,34.82,139.39,14.81,18.21,31.9,25.97,45.35,29.57,5.18,18.98,15.46,35.69,30.05,48.45,18.51,16.19,42.46,25.11,67.45,25.11,20.23,0,39.1-6,54.37-16.79,12.02,6.71,25.69,10.25,40.3,10.25,27.72,0,56.56-12.88,77.14-34.45,9.25-9.69,16.19-20.49,20.59-31.79,18.59-2.48,35.4-11.65,49.1-26.89,19.86-22.1,29.51-53.12,34.11-75.24,4.98-23.95,6.71-50.11,4.66-70.13-23.56-338.74-21.67-463.91-20.16-564.52.35-23.29.68-45.28.68-68.38,0-16.57-13.43-30-30-30-68.45,0-149.38-.12-220.77-.22-59.17-.09-110.27-.16-146.17-.16h0Z"/>
      </g>
      <g class="cls-9">
        <g>
          <path class="cls-5" d="M1283.01,373.36c-1.85,0-3.7-.34-5.46-1.03-1.62-.63-40.33-15.92-85.65-49.21-60.33-44.31-103.62-99.79-125.18-160.45-33.53-94.34-16.96-201.42,49.27-318.29,34.02-60.03,67.95-104.98,100.86-133.61,30.38-26.42,60.8-39.82,90.42-39.82,102.29,0,153.39,156.94,155.52,163.62.94,2.96.94,6.14,0,9.1l-165.48,519.24c-1.26,3.95-4.09,7.2-7.83,8.98-2.04.97-4.25,1.46-6.46,1.46Z"/>
          <path class="cls-3" d="M1307.27-314.05c92.5-.01,141.22,153.17,141.22,153.17l-165.48,519.24s-361.13-141-153.97-506.58c70.68-124.73,130.33-165.82,178.23-165.83M1307.28-344.05v30-30c-33.36,0-67.09,14.64-100.27,43.51-34.2,29.75-69.21,76.02-104.07,137.53-36.06,63.63-58.02,125.35-65.28,183.45-6.46,51.68-1.43,101.22,14.93,147.25,12.66,35.63,32.2,69.35,58.06,100.23,20.39,24.35,44.75,46.99,72.38,67.28,46.89,34.44,87.38,50.43,89.08,51.09,3.51,1.37,7.22,2.05,10.91,2.05,4.42,0,8.84-.98,12.92-2.92,7.48-3.57,13.15-10.07,15.67-17.97l165.48-519.24c1.89-5.92,1.89-12.28,0-18.2-.54-1.71-13.6-42.31-39.02-83.3-15.54-25.06-32.6-45.27-50.72-60.07-24.93-20.37-51.87-30.7-80.06-30.7h0Z"/>
        </g>
        <g>
          <path class="cls-5" d="M865.2,24.05c-25.49,0-48.24-12.3-67.6-36.57-14.19-17.78-26.6-42.2-36.91-72.57-17.12-50.45-22.72-100.06-22.95-102.15-.5-4.57,1.12-9.12,4.4-12.34,2.82-2.77,6.61-4.3,10.51-4.3.63,0,1.27.04,1.9.12l227.96,29.13c7.7.98,13.38,7.68,13.09,15.44-.06,1.65-1.67,40.79-16.09,82.46-20.05,57.96-55.21,92.46-101.68,99.77-4.24.67-8.49,1.01-12.63,1.01Z"/>
          <path class="cls-3" d="M752.65-188.89l227.96,29.13s-5.7,152.33-105.11,167.98c-3.53.56-6.96.82-10.3.82-90.76,0-112.55-197.93-112.55-197.93M752.65-218.89c-7.81,0-15.38,3.06-21.03,8.6-6.56,6.44-9.8,15.54-8.79,24.68.24,2.15,6.01,53.34,23.65,105.32,10.87,32.03,24.12,57.97,39.39,77.11,10.1,12.66,21.31,22.62,33.32,29.63,14.33,8.35,29.8,12.59,46,12.59,4.92,0,9.96-.4,14.96-1.19,29.77-4.69,55.41-19.04,76.21-42.66,15.43-17.52,27.99-40.08,37.31-67.03,15.14-43.76,16.84-85.07,16.9-86.81.58-15.52-10.77-28.91-26.18-30.88l-227.96-29.13c-1.27-.16-2.54-.24-3.8-.24h0Z"/>
        </g>
        <g>
          <path class="cls-5" d="M824.07,417.54c-1.27,0-2.54-.16-3.79-.49-4.25-1.11-7.79-4.02-9.71-7.97-.31-.65-31.62-65.49-57.09-138.07-35.9-102.31-43.15-168.33-22.15-201.84,7.01-11.19,20.91-24.52,47.31-24.52,21.05,0,46.92,8.34,79.09,25.51,69.73,37.21,106.69,83.27,109.86,136.88,6.38,108.11-129.17,203.79-134.95,207.81-2.54,1.77-5.54,2.69-8.57,2.69Z"/>
          <path class="cls-3" d="M778.64,59.66c17.51,0,41.07,7.22,72.02,23.74,244.42,130.44-26.6,319.14-26.6,319.14,0,0-166.17-342.89-45.43-342.89M778.64,29.66c-25.95,0-47.27,11.21-60.02,31.56-14.16,22.6-17.49,55.65-10.17,101.04,5.1,31.64,15.49,69.9,30.87,113.74,25.75,73.38,56.45,136.97,57.75,139.64,3.83,7.9,10.92,13.72,19.41,15.94,2.5.65,5.05.98,7.59.98,6.07,0,12.06-1.84,17.14-5.38,1.49-1.03,36.78-25.77,71.53-63.84,20.89-22.89,37.38-46.01,49.01-68.71,15.49-30.24,22.5-60,20.82-88.45-1.69-28.65-12.12-55.63-30.98-80.2-19.62-25.54-48.82-48.77-86.79-69.03-34.39-18.35-62.57-27.28-86.15-27.28h0Z"/>
        </g>
      </g>
    </g>
    <g id="Print-3" data-name="Print">
      <ellipse class="cls-7" cx="1089.27" cy="623.82" rx="39.45" ry="50.5" transform="translate(-60.99 121.27) rotate(-6.2)"/>
      <ellipse class="cls-7" cx="993.96" cy="623.82" rx="50.5" ry="39.45" transform="translate(289.7867 1562.5716) rotate(-85.2386)"/>
      <ellipse class="cls-7" cx="1165.4" cy="551.69" rx="37.11" ry="47.5" transform="translate(-67.6 174.57) rotate(-8.33)"/>
      <ellipse class="cls-7" cx="918.93" cy="550.64" rx="47.5" ry="37.11" transform="translate(224.9895 1366.7776) rotate(-80.557)"/>
      <path class="cls-7" d="M1039.59,556.71c3.93,0,49.44,3.66,74.64-57.42,41.81-19.29,52.53-66.55,33.04-95.54-20.91-30.18-74.99-20.32-106.24-3.57-11.41,0-79.38-43.02-110.52,11.88-11.57,40.64,3.33,64.88,40.88,88.57.71,2.38,16.05,56.08,68.2,56.08Z"/>
    </g>
  </g>
  <g id="Paw_copy_6" data-name="Paw copy 6">
    <g id="BG-5" data-name="BG">
      <g>
        <path class="cls-2" d="M814.7,1256.87c-33.8,0-98.5-9.57-126.61-45.46-9.06-11.57-13.6-24.96-13.46-39.4-29.3-6.92-52.28-33.67-61.12-60.14-8.44-25.24-4.86-49.43,9.35-67.67-17.89-19-24.87-47.45-17.47-75.8,4.51-17.31,13.87-32.4,27.05-43.65,11.54-9.85,25.64-16.3,41.28-18.96,1.97-12.19,7.18-30.62,26.38-46.24,25.53-20.77,68.06-31.06,130.02-31.45h.09c.47,0,.94.02,1.4.07,122.76,11.54,422.88,11.54,521.5,11.54,26.13,0,50.03-.03,70.8-.06,15.96-.02,30.07-.04,41.91-.04,8.28,0,15,6.72,15,15,0,35.89-.07,86.99-.16,146.15-.1,71.4-.22,152.33-.22,220.79,0,8.28-6.72,15-15,15-22.99,0-44.93-.33-68.16-.68-26.36-.4-53.62-.81-86.02-.81-82.82,0-212.21,2.39-480.02,21.02-5,.52-10.57.79-16.55.79Z"/>
        <path class="cls-1" d="M830.21,843.09c111.17,10.45,360.04,11.6,522.89,11.6,46.2,0,85.47-.09,112.72-.09,0,80.39-.38,243.27-.38,366.95-48.59,0-92.74-1.49-154.18-1.49-93.98,0-228.44,3.48-481.32,21.07-4.47.48-9.62.73-15.24.73-50.34,0-138.79-20.43-123.3-83.19-.71.03-1.41.05-2.11.05-48.96,0-92.6-79.06-44.11-115.54-49.04-30.06-31.54-120.83,41.81-123.73,3.23-16.32-3.61-75.44,143.23-76.37M830.21,813.09c-.06,0-.13,0-.19,0-65.51.42-111.1,11.8-139.39,34.82-18.19,14.8-25.96,31.88-29.56,45.31-14.3,3.88-27.31,10.67-38.37,20.12-15.53,13.25-26.54,30.98-31.83,51.28-7.6,29.14-2.21,58.46,13.42,80.54-3.63,6.51-6.34,13.51-8.06,20.91-3.71,16-2.66,33.49,3.05,50.56,6.29,18.81,17.97,36.32,32.89,49.3,8.65,7.52,18.18,13.32,28.09,17.18,1.79,13.56,7.16,26.24,16.02,37.55,14.31,18.27,37.04,32.09,67.56,41.08,21.87,6.44,47.7,10.14,70.87,10.14,6.4,0,12.4-.28,17.85-.84,267.15-18.58,396.17-20.96,478.72-20.96,32.29,0,59.49.41,85.8.81,23.29.35,45.29.68,68.39.68,16.57,0,30-13.43,30-30,0-68.45.12-149.38.22-220.77.09-59.17.16-110.27.16-146.17,0-16.57-13.43-30-30-30-11.85,0-25.96.02-41.93.04-20.94.03-44.67.06-70.79.06-98.45,0-398.03,0-520.09-11.47-.93-.09-1.87-.13-2.81-.13h0Z"/>
      </g>
      <g class="cls-8">
        <g>
          <path class="cls-5" d="M1516.29,1462.84c-1.54,0-3.07-.24-4.55-.71l-519.24-165.48c-3.95-1.26-7.2-4.09-8.98-7.83-1.78-3.74-1.94-8.05-.43-11.91.91-2.33,22.8-57.59,71.43-113.44,28.74-33,60.9-59.34,95.6-78.28,43.64-23.83,91.29-35.91,141.62-35.91,68.16,0,141.94,22.23,219.3,66.07,63.5,35.99,110.09,71.86,138.46,106.62,26.08,31.95,37.67,63.85,34.44,94.83-9.95,95.57-156.84,143.37-163.09,145.36-1.48.47-3.01.71-4.55.71Z"/>
          <path class="cls-3" d="M1291.72,1064.27c60.1,0,130.42,17.94,211.91,64.12,365.58,207.16,12.66,319.45,12.66,319.45l-519.24-165.48s85.15-218.08,294.67-218.09M1291.72,1034.27v30-30c-52.88,0-102.94,12.7-148.82,37.75-36.26,19.8-69.81,47.25-99.72,81.6-50.32,57.79-73.14,115.41-74.09,117.83-3.01,7.72-2.7,16.34.87,23.83,3.57,7.48,10.07,13.15,17.97,15.67l519.24,165.48c2.96.94,6.04,1.42,9.11,1.42s6.14-.47,9.1-1.41c1.6-.51,39.73-12.77,79.34-36.6,24.09-14.49,43.93-30.39,58.98-47.24,20.59-23.05,32.41-48.04,35.14-74.26,3.65-35.09-9.05-70.71-37.74-105.86-14.56-17.83-33.63-35.96-56.68-53.87-23.88-18.55-52.81-37.5-86-56.31-79.64-45.13-155.91-68.02-226.69-68.02h0Z"/>
        </g>
        <g>
          <path class="cls-5" d="M1140.92,967.16s0,0,0,0c-105.05,0-196.52-129.65-200.36-135.17-2.51-3.6-3.31-8.12-2.2-12.37s4.02-7.79,7.97-9.71c7.66-3.71,188.75-90.89,289.36-90.89,33.3,0,55.96,9.62,67.34,28.59,14.47,24.12,8.65,59.92-17.78,109.46-38.98,73.04-87.54,110.08-144.32,110.08Z"/>
          <path class="cls-3" d="M1235.68,734.03c55.16,0,83.2,28.14,36.32,115.98-40.54,75.96-86.71,102.14-131.09,102.14-98.42,0-188.05-128.74-188.05-128.74,0,0,184.5-89.39,282.82-89.39M1235.68,704.03c-44.45,0-108.04,15.7-189,46.67-58.94,22.55-104.97,44.78-106.9,45.72-7.9,3.83-13.72,10.92-15.94,19.41-2.22,8.49-.61,17.53,4.4,24.73.99,1.42,24.68,35.23,61.34,69.23,21.99,20.39,44.24,36.75,66.12,48.62,29.04,15.76,57.71,23.75,85.21,23.75,30.2,0,58.65-9.52,84.58-28.28,27.13-19.64,51.68-49.83,72.98-89.73,13.8-25.86,22.16-47.89,25.56-67.36,3.88-22.26,1.14-41.39-8.14-56.88-8-13.34-20.26-23.13-36.43-29.09-12.39-4.57-26.7-6.78-43.78-6.78h0Z"/>
        </g>
      </g>
    </g>
    <g id="Print-4" data-name="Print">
      <ellipse class="cls-7" cx="731.58" cy="1088.62" rx="50.5" ry="39.45" transform="translate(-113.27 85.36) rotate(-6.2)"/>
      <ellipse class="cls-7" cx="731.58" cy="993.32" rx="39.45" ry="50.5" transform="translate(-319.0314 1639.9206) rotate(-85.2386)"/>
      <ellipse class="cls-7" cx="803.72" cy="1164.75" rx="47.5" ry="37.11" transform="translate(-160.19 128.66) rotate(-8.33)"/>
      <ellipse class="cls-7" cx="804.77" cy="918.29" rx="37.11" ry="47.5" transform="translate(-233.1121 1561.4866) rotate(-80.557)"/>
      <path class="cls-7" d="M798.7,1038.94c0,3.93-3.66,49.44,57.42,74.64,19.29,41.81,66.55,52.53,95.54,33.04,30.18-20.91,20.32-74.99,3.57-106.24,0-11.41,43.02-79.38-11.88-110.52-40.64-11.57-64.88,3.33-88.57,40.88-2.38.71-56.08,16.05-56.08,68.2Z"/>
    </g>
  </g>
</svg>