<?xml version="1.0" encoding="UTF-8"?>
<svg xmlns="http://www.w3.org/2000/svg" xmlns:xlink="http://www.w3.org/1999/xlink" viewBox="0 0 1024 1024">
  <defs>
    <style>
      .cls-1 {
        fill: #f284b5;
      }

      .cls-2 {
        fill: #261911;
      }

      .cls-3 {
        fill: none;
      }

      .cls-4 {
        fill: #8b5e3c;
      }

      .cls-5 {
        fill: #f8dce8;
      }

      .cls-6 {
        fill: #ef60a3;
      }

      .cls-7 {
        clip-path: url(#clippath);
      }
    </style>
    <clipPath id="clippath">
      <path class="cls-3" d="M332.93-102.08c0-122.92,9.51-217.29-19.59-635.51-4.77-44.54,12.69-155.77,82.46-138.55-2.33-49.8,78.49-95.41,115.49-46.23,30.06-49.04,120.83-31.54,123.73,41.81,16.32,3.23,75.44-3.61,76.37,143.23-13.41,142.71-11.51,512.32-11.51,635.62-80.39,0-243.27-.38-366.95-.38Z"/>
    </clipPath>
  </defs>
  <g id="BG">
    <g id="BG-2" data-name="BG">
      <rect class="cls-6" width="1024" height="1024"/>
      <g>
        <path class="cls-1" d="M1024,651.66c-84.31-24.97-168.62-50.01-230.74-94.55-62.18-44.54-102.23-108.71-167.88-158.49-65.71-49.78-157.01-85.16-203.43-149.22-46.48-64.06-48.01-156.73-49.61-249.4h651.66v651.66Z"/>
        <path class="cls-5" d="M1024,325.86c-42.15-12.52-84.31-25.03-115.37-47.27-31.12-22.3-51.14-54.39-83.97-79.25-32.82-24.92-78.45-42.61-101.72-74.64-23.21-32.03-24.01-78.39-24.8-124.7h325.86v325.86Z"/>
      </g>
      <g>
        <path class="cls-1" d="M0,372.34c83.74,10.3,167.48,20.59,249.4,49.61,81.86,29.01,161.91,76.74,209.18,143.47,47.27,66.73,61.84,152.35,88.58,231.94,26.68,79.59,65.59,153.14,104.5,226.65H0V372.34Z"/>
        <path class="cls-5" d="M0,698.14c41.87,5.18,83.74,10.3,124.7,24.8,40.96,14.56,80.95,38.4,104.62,71.74,23.61,33.39,30.89,76.23,44.26,116,13.37,39.82,32.82,76.57,52.28,113.32H0v-325.86Z"/>
      </g>
    </g>
  </g>
  <g id="Paw">
    <g id="Paw-2" data-name="Paw">
      <g id="BG-3" data-name="BG">
        <g class="cls-7">
          <g>
            <path class="cls-4" d="M247.86,116.93c-102.29,0-153.39-156.94-155.52-163.62-.94-2.96-.94-6.14,0-9.1l165.48-519.24c1.26-3.95,4.09-7.2,7.83-8.98,2.04-.97,4.25-1.46,6.46-1.46,1.85,0,3.7.34,5.46,1.03,1.63.63,40.33,15.92,85.65,49.21,60.33,44.31,103.62,99.79,125.18,160.45,33.53,94.34,16.96,201.42-49.26,318.29-34.02,60.03-67.95,104.98-100.86,133.61-30.38,26.42-60.8,39.82-90.42,39.82Z"/>
            <path class="cls-2" d="M272.12-570.48s361.14,141,153.97,506.58c-70.68,124.73-130.33,165.83-178.23,165.83-92.5,0-141.22-153.17-141.22-153.17l165.48-519.24M272.12-600.48c-4.42,0-8.84.98-12.92,2.92-7.48,3.57-13.15,10.07-15.67,17.97L78.06-60.35c-1.89,5.92-1.89,12.28,0,18.2.54,1.71,13.6,42.31,39.02,83.3,15.54,25.06,32.6,45.27,50.73,60.07,24.93,20.37,51.87,30.7,80.07,30.7,33.34,0,67.08-14.64,100.26-43.51,34.2-29.75,69.21-76.02,104.07-137.53,36.06-63.63,58.02-125.35,65.28-183.45,6.46-51.68,1.43-101.22-14.93-147.25-12.66-35.63-32.2-69.35-58.06-100.23-20.39-24.35-44.75-46.99-72.38-67.28-46.89-34.44-87.38-50.43-89.08-51.09-3.51-1.37-7.22-2.05-10.91-2.05h0Z"/>
          </g>
          <path class="cls-2" d="M689.93-221.17c90.76,0,112.55,197.93,112.55,197.93l-227.96-29.13s5.7-152.33,105.11-167.98c3.53-.56,6.96-.82,10.3-.82M689.94-251.17h0c-4.92,0-9.96.4-14.96,1.19-29.77,4.69-55.41,19.04-76.21,42.66-15.43,17.52-27.99,40.08-37.31,67.03-15.14,43.76-16.84,85.07-16.9,86.81-.58,15.52,10.77,28.91,26.18,30.88l227.96,29.13c1.27.16,2.54.24,3.8.24,7.82,0,15.38-3.06,21.03-8.6,6.56-6.44,9.8-15.54,8.79-24.68-.24-2.15-6.01-53.34-23.65-105.32-10.87-32.03-24.12-57.97-39.39-77.11-10.1-12.66-21.31-22.62-33.32-29.63-14.32-8.35-29.8-12.59-46-12.59h0Z"/>
        </g>
      </g>
    </g>
  </g>
</svg>