<?xml version="1.0" encoding="UTF-8"?>
<svg id="BG_Only" xmlns="http://www.w3.org/2000/svg" viewBox="0 0 1024 1024">
  <defs>
    <style>
      .cls-1 {
        fill: #f284b5;
      }

      .cls-2 {
        fill: #f8dce8;
      }

      .cls-3 {
        fill: #ef60a3;
      }
    </style>
  </defs>
  <g id="BG-2" data-name="BG">
    <rect class="cls-3" width="1024" height="1024"/>
    <g>
      <path class="cls-1" d="M1024,651.66c-84.31-24.97-168.62-50.01-230.74-94.55-62.18-44.54-102.23-108.71-167.88-158.49-65.71-49.78-157.01-85.16-203.43-149.22-46.48-64.06-48.01-156.73-49.61-249.4h651.66v651.66Z"/>
      <path class="cls-2" d="M1024,325.86c-42.15-12.52-84.31-25.03-115.37-47.27-31.12-22.3-51.14-54.39-83.97-79.25-32.82-24.92-78.45-42.61-101.72-74.64-23.21-32.03-24.01-78.39-24.8-124.7h325.86v325.86Z"/>
    </g>
    <g>
      <path class="cls-1" d="M0,372.34c83.74,10.3,167.48,20.59,249.4,49.61,81.86,29.01,161.91,76.74,209.18,143.47,47.27,66.73,61.84,152.35,88.58,231.94,26.68,79.59,65.59,153.14,104.5,226.65H0V372.34Z"/>
      <path class="cls-2" d="M0,698.14c41.87,5.18,83.74,10.3,124.7,24.8,40.96,14.56,80.95,38.4,104.62,71.74,23.61,33.39,30.89,76.23,44.26,116,13.37,39.82,32.82,76.57,52.28,113.32H0v-325.86Z"/>
    </g>
  </g>
</svg>