<?xml version="1.0" encoding="UTF-8"?>
<svg id="Capsule" xmlns="http://www.w3.org/2000/svg" xmlns:xlink="http://www.w3.org/1999/xlink" viewBox="0 0 4096 2304">
  <defs>
    <style>
      .cls-1 {
        fill: #181818;
      }

      .cls-2 {
        clip-path: url(#clippath-6);
      }

      .cls-3 {
        clip-path: url(#clippath-4);
      }

      .cls-4 {
        fill: #fcfdf8;
      }

      .cls-5 {
        fill: #f284b5;
      }

      .cls-6 {
        fill: #261911;
      }

      .cls-7 {
        fill: none;
      }

      .cls-8 {
        fill: #8b5e3c;
      }

      .cls-9 {
        clip-path: url(#clippath-1);
      }

      .cls-10 {
        stroke: #410d2d;
        stroke-miterlimit: 10;
        stroke-width: 13px;
      }

      .cls-10, .cls-11 {
        fill: #ef60a3;
      }

      .cls-12 {
        clip-path: url(#clippath-5);
      }

      .cls-13 {
        fill: #f8dce8;
      }

      .cls-14 {
        clip-path: url(#clippath-3);
      }

      .cls-15 {
        clip-path: url(#clippath-2);
      }

      .cls-16 {
        clip-path: url(#clippath);
      }
    </style>
    <clipPath id="clippath">
      <path class="cls-7" d="M218.93,1815.78c0-122.92,9.51-217.29-19.59-635.51-4.77-44.54,12.69-155.77,82.46-138.55-2.33-49.8,78.49-95.41,115.49-46.23,30.06-49.04,120.83-31.54,123.73,41.81,16.32,3.23,75.44-3.61,76.37,143.23-13.41,142.71-11.51,512.32-11.51,635.62-80.39,0-243.27-.38-366.95-.38Z"/>
    </clipPath>
    <clipPath id="clippath-1">
      <path class="cls-7" d="M1127.07,488.22c0,122.92-9.51,217.29,19.59,635.51,4.77,44.54-12.69,155.77-82.46,138.55,2.33,49.8-78.49,95.41-115.49,46.23-30.06,49.04-120.83,31.54-123.73-41.81-16.32-3.23-75.44,3.61-76.37-143.23,13.41-142.71,11.51-512.32,11.51-635.62,80.39,0,243.27.38,366.95.38Z"/>
    </clipPath>
    <clipPath id="clippath-2">
      <path class="cls-7" d="M1318.93,1815.78c0-122.92,9.51-217.29-19.59-635.51-4.77-44.54,12.69-155.77,82.46-138.55-2.33-49.8,78.49-95.41,115.49-46.23,30.06-49.04,120.83-31.54,123.73,41.81,16.32,3.23,75.44-3.61,76.37,143.23-13.41,142.71-11.51,512.32-11.51,635.62-80.39,0-243.27-.38-366.95-.38Z"/>
    </clipPath>
    <clipPath id="clippath-3">
      <path class="cls-7" d="M2227.07,488.22c0,122.92-9.51,217.29,19.59,635.51,4.77,44.54-12.69,155.77-82.46,138.55,2.33,49.8-78.49,95.41-115.49,46.23-30.06,49.04-120.83,31.54-123.73-41.81-16.32-3.23-75.44,3.61-76.37-143.23,13.41-142.71,11.51-512.32,11.51-635.62,80.39,0,243.27.38,366.95.38Z"/>
    </clipPath>
    <clipPath id="clippath-4">
      <path class="cls-7" d="M2418.93,1815.78c0-122.92,9.51-217.29-19.59-635.51-4.77-44.54,12.69-155.77,82.46-138.55-2.33-49.8,78.49-95.41,115.49-46.23,30.06-49.04,120.83-31.54,123.73,41.81,16.32,3.23,75.44-3.61,76.37,143.23-13.41,142.71-11.51,512.32-11.51,635.62-80.39,0-243.27-.38-366.95-.38Z"/>
    </clipPath>
    <clipPath id="clippath-5">
      <path class="cls-7" d="M3327.07,488.22c0,122.92-9.51,217.29,19.59,635.51,4.77,44.54-12.69,155.77-82.46,138.55,2.33,49.8-78.49,95.41-115.49,46.23-30.06,49.04-120.83,31.54-123.73-41.81-16.32-3.23-75.44,3.61-76.37-143.23,13.41-142.71,11.51-512.32,11.51-635.62,80.39,0,243.27.38,366.95.38Z"/>
    </clipPath>
    <clipPath id="clippath-6">
      <path class="cls-7" d="M3518.93,1815.78c0-122.92,9.51-217.29-19.59-635.51-4.77-44.54,12.69-155.77,82.46-138.55-2.33-49.8,78.49-95.41,115.49-46.23,30.06-49.04,120.83-31.54,123.73,41.81,16.32,3.23,75.44-3.61,76.37,143.23-13.41,142.71-11.51,512.32-11.51,635.62-80.39,0-243.27-.38-366.95-.38Z"/>
    </clipPath>
  </defs>
  <g id="BG">
    <g id="BG_copy" data-name="BG copy">
      <rect class="cls-11" y="1365.33" width="1365.33" height="1365.33"/>
      <g>
        <path class="cls-5" d="M1365.33,2234.22c-112.41-33.3-224.82-66.67-307.66-126.07-82.91-59.39-136.31-144.95-223.84-211.32-87.61-66.37-209.35-113.55-271.25-198.96-61.97-85.41-64.02-208.97-66.14-332.53h868.88v868.88Z"/>
        <path class="cls-13" d="M1365.33,1799.81c-56.21-16.69-112.41-33.37-153.83-63.03-41.49-29.73-68.19-72.51-111.96-105.66-43.77-33.22-104.6-56.81-135.62-99.52-30.95-42.7-32.01-104.52-33.07-166.27h434.48v434.48Z"/>
      </g>
      <g>
        <path class="cls-5" d="M0,1861.78c111.65,13.73,223.31,27.46,332.53,66.14,109.15,38.68,215.87,102.32,278.91,191.3,63.03,88.97,82.45,203.13,118.1,309.25,35.57,106.12,87.46,204.19,139.34,302.19H0v-868.88Z"/>
        <path class="cls-13" d="M0,2296.19c55.83,6.9,111.65,13.73,166.27,33.07,54.61,19.42,107.94,51.2,139.49,95.65,31.48,44.53,41.19,101.64,59.01,154.66,17.83,53.1,43.77,102.1,69.71,151.1H0v-434.48Z"/>
      </g>
    </g>
    <g id="BG_copy_3" data-name="BG copy 3">
      <rect class="cls-11" x="0" y="0" width="1365.33" height="1365.33" transform="translate(1365.3334 0) rotate(90)"/>
      <g>
        <path class="cls-5" d="M496.45,1365.33c33.3-112.41,66.67-224.82,126.07-307.66,59.39-82.91,144.95-136.31,211.32-223.84,66.37-87.61,113.55-209.35,198.96-271.25,85.41-61.97,208.97-64.02,332.53-66.14v868.88H496.45Z"/>
        <path class="cls-13" d="M930.85,1365.33c16.69-56.21,33.37-112.41,63.03-153.83,29.73-41.49,72.51-68.19,105.66-111.96,33.22-43.77,56.81-104.6,99.52-135.62,42.7-30.95,104.52-32.01,166.27-33.07v434.48h-434.48Z"/>
      </g>
      <g>
        <path class="cls-5" d="M868.88,0c-13.73,111.65-27.46,223.31-66.14,332.53-38.68,109.15-102.32,215.87-191.3,278.91-88.97,63.03-203.13,82.45-309.25,118.1-106.12,35.57-204.19,87.46-302.19,139.34V0h868.88Z"/>
        <path class="cls-13" d="M434.48,0c-6.9,55.83-13.73,111.65-33.07,166.27-19.42,54.61-51.2,107.94-95.65,139.49-44.53,31.48-101.64,41.19-154.66,59.01-53.1,17.83-102.1,43.77-151.1,69.71V0h434.48Z"/>
      </g>
    </g>
    <g id="BG_copy_4" data-name="BG copy 4">
      <rect class="cls-11" x="1365.33" y="0" width="1365.33" height="1365.33" transform="translate(4096.0001 1365.3334) rotate(-180)"/>
      <g>
        <path class="cls-5" d="M1365.33,496.45c112.41,33.3,224.82,66.67,307.66,126.07,82.91,59.39,136.31,144.95,223.84,211.32,87.61,66.37,209.35,113.55,271.25,198.96,61.97,85.41,64.02,208.97,66.14,332.53h-868.88V496.45Z"/>
        <path class="cls-13" d="M1365.33,930.85c56.21,16.69,112.41,33.37,153.83,63.03,41.49,29.73,68.19,72.51,111.96,105.66,43.77,33.22,104.6,56.81,135.62,99.52,30.95,42.7,32.01,104.52,33.07,166.27h-434.48v-434.48Z"/>
      </g>
      <g>
        <path class="cls-5" d="M2730.67,868.88c-111.65-13.73-223.31-27.46-332.53-66.14-109.15-38.68-215.87-102.32-278.91-191.3-63.03-88.97-82.45-203.13-118.1-309.25C1965.55,196.08,1913.67,98,1861.78,0h868.88v868.88Z"/>
        <path class="cls-13" d="M2730.67,434.48c-55.83-6.9-111.65-13.73-166.27-33.07-54.61-19.42-107.94-51.2-139.49-95.65-31.48-44.53-41.19-101.64-59.01-154.66C2348.07,98,2322.13,49,2296.19,0h434.48v434.48Z"/>
      </g>
    </g>
    <g id="BG_copy_2" data-name="BG copy 2">
      <rect class="cls-11" x="1365.33" y="1365.33" width="1365.33" height="1365.33" transform="translate(4096.0001 0) rotate(90)"/>
      <g>
        <path class="cls-5" d="M1861.78,2730.67c33.3-112.41,66.67-224.82,126.07-307.66,59.39-82.91,144.95-136.31,211.32-223.84,66.37-87.61,113.55-209.35,198.96-271.25,85.41-61.97,208.97-64.02,332.53-66.14v868.88h-868.88Z"/>
        <path class="cls-13" d="M2296.19,2730.67c16.69-56.21,33.37-112.41,63.03-153.83,29.73-41.49,72.51-68.19,105.66-111.96,33.22-43.77,56.81-104.6,99.52-135.62,42.7-30.95,104.52-32.01,166.27-33.07v434.48h-434.48Z"/>
      </g>
      <g>
        <path class="cls-5" d="M2234.22,1365.33c-13.73,111.65-27.46,223.31-66.14,332.53-38.68,109.15-102.32,215.87-191.3,278.91-88.97,63.03-203.13,82.45-309.25,118.1-106.12,35.57-204.19,87.46-302.19,139.34v-868.88h868.88Z"/>
        <path class="cls-13" d="M1799.81,1365.33c-6.9,55.83-13.73,111.65-33.07,166.27-19.42,54.61-51.2,107.94-95.65,139.49-44.53,31.48-101.64,41.19-154.66,59.01-53.1,17.83-102.1,43.77-151.1,69.71v-434.48h434.48Z"/>
      </g>
      <rect class="cls-11" x="2730.67" y="1365.33" width="1365.33" height="1365.33"/>
      <g>
        <path class="cls-5" d="M4096,2234.22c-112.41-33.3-224.82-66.67-307.66-126.07-82.91-59.39-136.31-144.95-223.84-211.32-87.61-66.37-209.35-113.55-271.25-198.96-61.97-85.41-64.02-208.97-66.14-332.53h868.88v868.88Z"/>
        <path class="cls-13" d="M4096,1799.81c-56.21-16.69-112.41-33.37-153.83-63.03-41.49-29.73-68.19-72.51-111.96-105.66-43.77-33.22-104.6-56.81-135.62-99.52-30.95-42.7-32.01-104.52-33.07-166.27h434.48v434.48Z"/>
      </g>
      <g>
        <path class="cls-5" d="M2730.67,1861.78c111.65,13.73,223.31,27.46,332.53,66.14,109.15,38.68,215.87,102.32,278.91,191.3,63.03,88.97,82.45,203.13,118.1,309.25,35.57,106.12,87.46,204.19,139.34,302.19h-868.88v-868.88Z"/>
        <path class="cls-13" d="M2730.67,2296.19c55.83,6.9,111.65,13.73,166.27,33.07,54.61,19.42,107.94,51.2,139.49,95.65,31.48,44.53,41.19,101.64,59.01,154.66,17.83,53.1,43.77,102.1,69.71,151.1h-434.48v-434.48Z"/>
      </g>
      <rect class="cls-11" x="2730.67" y="0" width="1365.33" height="1365.33" transform="translate(2730.6667 4096.0001) rotate(-90)"/>
      <g>
        <path class="cls-5" d="M3599.55,0c-33.3,112.41-66.67,224.82-126.07,307.66-59.39,82.91-144.95,136.31-211.32,223.84-66.37,87.61-113.55,209.35-198.96,271.25-85.41,61.97-208.97,64.02-332.53,66.14V0h868.88Z"/>
        <path class="cls-13" d="M3165.15,0c-16.69,56.21-33.37,112.41-63.03,153.83-29.73,41.49-72.51,68.19-105.66,111.96-33.22,43.77-56.81,104.6-99.52,135.62-42.7,30.95-104.52,32.01-166.27,33.07V0h434.48Z"/>
      </g>
      <g>
        <path class="cls-5" d="M3227.12,1365.33c13.73-111.65,27.46-223.31,66.14-332.53,38.68-109.15,102.32-215.87,191.3-278.91,88.97-63.03,203.13-82.45,309.25-118.1,106.12-35.57,204.19-87.46,302.19-139.34v868.88h-868.88Z"/>
        <path class="cls-13" d="M3661.52,1365.33c6.9-55.83,13.73-111.65,33.07-166.27,19.42-54.61,51.2-107.94,95.65-139.49,44.53-31.48,101.64-41.19,154.66-59.01,53.1-17.83,102.1-43.77,151.1-69.71v434.48h-434.48Z"/>
      </g>
    </g>
  </g>
  <g id="Paws">
    <g id="Layer_30" data-name="Layer 30">
      <g id="Paw_copy_2" data-name="Paw copy 2">
        <g id="BG-2" data-name="BG">
          <g>
            <path class="cls-4" d="M585.88,1831.16c-35.89,0-86.99-.07-146.15-.16-71.4-.1-152.33-.22-220.79-.22-8.28,0-15-6.72-15-15,0-22.99.33-44.93.68-68.15,1.52-100.91,3.41-226.48-20.21-566.04-3.72-35.48,4.65-100.31,34.98-134.05,13.29-14.79,30.01-22.6,48.38-22.6.25,0,.51,0,.76,0,3.04-12.66,9.94-24.95,20.25-35.75,17.81-18.66,42.59-29.8,66.29-29.8,15.44,0,29.6,4.82,41.22,13.83,13.8-12.98,32.75-20.38,53.46-20.38s42.03,7.8,57.58,21.4c14.74,12.89,24.08,29.94,27.41,49.82,12.19,1.97,30.61,7.19,46.22,26.38,20.77,25.53,31.06,68.06,31.45,130.02,0,.5-.02,1-.07,1.5-12.06,128.3-11.67,441.68-11.48,592.29.02,15.97.04,30.08.04,41.93,0,8.28-6.72,15-15,15Z"/>
            <path class="cls-1" d="M449.73,967.84c33.94,0,69.5,24.01,71.3,69.48,16.32,3.23,75.44-3.61,76.37,143.23-13.41,142.71-11.51,512.32-11.51,635.62-80.39,0-243.27-.38-366.95-.38,0-122.92,9.51-217.29-19.59-635.51-4.43-41.38,10.33-140.34,68.4-140.34,4.43,0,9.11.58,14.05,1.8-1.62-34.69,37.1-67.35,73.25-67.35,15.75,0,31.01,6.2,42.24,21.12,11.43-18.64,31.62-27.67,52.43-27.67M449.73,937.84c-20.23,0-39.1,6-54.37,16.79-12.02-6.71-25.69-10.25-40.3-10.25-27.72,0-56.56,12.88-77.14,34.45-9.25,9.69-16.19,20.49-20.59,31.79-18.6,2.48-35.41,11.65-49.1,26.89-19.86,22.1-29.51,53.11-34.11,75.24-4.98,23.95-6.71,50.11-4.66,70.12,23.56,338.74,21.67,463.91,20.16,564.52-.35,23.29-.68,45.28-.68,68.38,0,16.57,13.43,30,30,30,68.45,0,149.38.12,220.77.22,59.17.09,110.27.16,146.17.16,16.57,0,30-13.43,30-30,0-11.85-.02-25.97-.04-41.94-.19-150.38-.58-463.28,11.42-590.87.09-1,.14-2,.13-3-.42-65.51-11.8-111.1-34.82-139.39-14.81-18.21-31.9-25.97-45.34-29.57-5.18-18.98-15.46-35.69-30.05-48.45-18.51-16.19-42.46-25.11-67.45-25.11h0Z"/>
          </g>
          <g class="cls-16">
            <g>
              <path class="cls-8" d="M133.86,2034.79c-102.29,0-153.39-156.94-155.52-163.62-.94-2.96-.94-6.14,0-9.1l165.48-519.24c1.26-3.95,4.09-7.2,7.83-8.98,2.04-.97,4.25-1.46,6.46-1.46,1.85,0,3.7.34,5.46,1.03,1.63.63,40.33,15.92,85.65,49.21,60.33,44.31,103.62,99.79,125.18,160.45,33.53,94.34,16.96,201.42-49.26,318.29-34.02,60.03-67.95,104.98-100.86,133.61-30.38,26.42-60.8,39.82-90.42,39.82Z"/>
              <path class="cls-6" d="M158.12,1347.38s361.14,141,153.97,506.58c-70.68,124.73-130.33,165.83-178.23,165.83-92.5,0-141.22-153.17-141.22-153.17l165.48-519.24M158.12,1317.38c-4.42,0-8.84.98-12.92,2.92-7.48,3.57-13.15,10.07-15.67,17.97L-35.94,1857.51c-1.89,5.92-1.89,12.28,0,18.2.54,1.71,13.6,42.31,39.02,83.3,15.54,25.06,32.6,45.27,50.72,60.07,24.93,20.37,51.87,30.7,80.07,30.7,33.34,0,67.08-14.64,100.26-43.51,34.2-29.75,69.21-76.02,104.07-137.53,36.06-63.63,58.02-125.35,65.28-183.45,6.46-51.68,1.43-101.22-14.93-147.25-12.66-35.63-32.2-69.35-58.06-100.23-20.39-24.35-44.75-46.99-72.38-67.28-46.89-34.44-87.38-50.43-89.08-51.09-3.51-1.37-7.22-2.05-10.91-2.05h0Z"/>
            </g>
            <g>
              <path class="cls-8" d="M688.48,1909.62c-.63,0-1.27-.04-1.9-.12l-227.96-29.13c-7.7-.98-13.38-7.68-13.09-15.44.06-1.65,1.67-40.79,16.09-82.46,20.05-57.96,55.21-92.46,101.68-99.77,4.24-.67,8.49-1.01,12.63-1.01,25.49,0,48.24,12.3,67.6,36.57,14.18,17.78,26.6,42.2,36.91,72.57,17.12,50.45,22.72,100.06,22.95,102.14.5,4.57-1.12,9.12-4.4,12.34-2.82,2.77-6.61,4.3-10.51,4.3Z"/>
              <path class="cls-6" d="M575.93,1696.69c90.76,0,112.55,197.93,112.55,197.93l-227.96-29.13s5.7-152.33,105.11-167.98c3.53-.56,6.96-.82,10.3-.82M575.94,1666.69h0c-4.92,0-9.96.4-14.96,1.19-29.77,4.69-55.41,19.04-76.21,42.66-15.43,17.52-27.99,40.08-37.31,67.03-15.14,43.76-16.84,85.07-16.9,86.81-.58,15.52,10.77,28.91,26.18,30.88l227.96,29.13c1.27.16,2.54.24,3.8.24,7.82,0,15.38-3.06,21.03-8.6,6.56-6.44,9.8-15.54,8.79-24.68-.24-2.15-6.01-53.34-23.65-105.32-10.87-32.03-24.12-57.97-39.39-77.11-10.1-12.66-21.31-22.62-33.32-29.63-14.32-8.35-29.8-12.59-46-12.59h0Z"/>
            </g>
            <g>
              <path class="cls-8" d="M662.49,1661.08c-21.06,0-46.93-8.35-79.08-25.51-69.73-37.21-106.69-83.27-109.86-136.88-6.38-108.11,129.17-203.79,134.95-207.81,2.54-1.77,5.54-2.69,8.57-2.69,1.27,0,2.54.16,3.79.49,4.25,1.11,7.79,4.02,9.71,7.97.31.65,31.62,65.49,57.09,138.08,35.9,102.32,43.14,168.34,22.14,201.84-7.01,11.18-20.9,24.51-47.29,24.51h-.02Z"/>
              <path class="cls-6" d="M617.06,1303.2s166.17,342.89,45.43,342.89c-17.51,0-41.07-7.22-72.02-23.74-244.42-130.44,26.6-319.14,26.6-319.14M617.06,1273.2c-6.07,0-12.06,1.84-17.14,5.38-1.49,1.03-36.78,25.77-71.53,63.84-20.89,22.89-37.38,46.01-49.01,68.71-15.49,30.24-22.5,60-20.82,88.45,1.69,28.65,12.12,55.63,30.98,80.2,19.62,25.54,48.82,48.77,86.79,69.03,34.39,18.35,62.57,27.28,86.15,27.28,25.95,0,47.27-11.21,60.02-31.56,14.16-22.6,17.49-55.65,10.17-101.04-5.1-31.64-15.49-69.9-30.87-113.74-25.75-73.38-56.45-136.97-57.75-139.64-3.83-7.9-10.92-13.72-19.41-15.94-2.5-.65-5.05-.98-7.59-.98h0Z"/>
            </g>
          </g>
        </g>
        <g id="Print">
          <ellipse class="cls-10" cx="351.86" cy="1081.92" rx="39.45" ry="50.5" transform="translate(-114.77 44.32) rotate(-6.2)"/>
          <ellipse class="cls-10" cx="447.17" cy="1081.92" rx="50.5" ry="39.45" transform="translate(-668.134 1437.7345) rotate(-85.2386)"/>
          <ellipse class="cls-10" cx="275.73" cy="1154.05" rx="37.11" ry="47.5" transform="translate(-164.21 52.09) rotate(-8.33)"/>
          <ellipse class="cls-10" cx="522.2" cy="1155.1" rx="47.5" ry="37.11" transform="translate(-702.9264 1480.7075) rotate(-80.557)"/>
          <path class="cls-10" d="M401.54,1149.03c-3.93,0-49.44-3.66-74.64,57.42-41.81,19.29-52.53,66.55-33.04,95.54,20.91,30.18,74.99,20.32,106.24,3.57,11.41,0,79.38,43.02,110.52-11.88,11.57-40.64-3.33-64.88-40.88-88.57-.71-2.38-16.05-56.08-68.2-56.08Z"/>
        </g>
      </g>
      <g id="Paw_copy_9" data-name="Paw copy 9">
        <g id="BG-3" data-name="BG">
          <g>
            <path class="cls-4" d="M896.28,1351.16c-21.05,0-42.03-7.8-57.58-21.4-14.74-12.89-24.08-29.94-27.41-49.82-12.19-1.97-30.61-7.19-46.22-26.38-20.77-25.53-31.06-68.06-31.45-130.02,0-.5.02-1,.07-1.5,12.06-128.3,11.67-441.69,11.48-592.3-.02-15.96-.04-30.07-.04-41.91,0-8.28,6.72-15,15-15,35.89,0,86.99.07,146.15.16,71.4.1,152.33.22,220.79.22,8.28,0,15,6.72,15,15,0,22.99-.33,44.93-.68,68.15-1.52,100.91-3.41,226.48,20.21,566.04,3.72,35.48-4.65,100.31-34.98,134.05-13.29,14.79-30.01,22.6-48.38,22.6-.25,0-.51,0-.76,0-3.04,12.66-9.94,24.95-20.24,35.75-17.81,18.66-42.59,29.81-66.29,29.81-15.44,0-29.6-4.82-41.22-13.83-13.8,12.98-32.75,20.38-53.46,20.38Z"/>
            <path class="cls-1" d="M760.12,487.84c80.39,0,243.27.38,366.95.38,0,122.92-9.51,217.29,19.59,635.51,4.43,41.38-10.33,140.34-68.4,140.34-4.43,0-9.11-.58-14.05-1.8,1.62,34.69-37.1,67.35-73.25,67.35-15.75,0-31.01-6.2-42.24-21.12-11.43,18.64-31.62,27.67-52.43,27.67-33.94,0-69.5-24.01-71.3-69.48-16.32-3.23-75.44,3.61-76.37-143.23,13.41-142.71,11.51-512.32,11.51-635.62M760.12,457.84c-16.57,0-30,13.43-30,30,0,11.85.02,25.97.04,41.94.19,150.38.58,463.28-11.42,590.87-.09,1-.14,2-.13,3,.42,65.51,11.8,111.1,34.82,139.39,14.81,18.21,31.9,25.97,45.34,29.57,5.18,18.98,15.46,35.69,30.05,48.45,18.51,16.19,42.46,25.11,67.45,25.11,20.23,0,39.1-6,54.37-16.79,12.02,6.71,25.69,10.25,40.3,10.25,27.72,0,56.56-12.88,77.14-34.45,9.25-9.69,16.19-20.49,20.59-31.79,18.59-2.48,35.4-11.65,49.1-26.89,19.86-22.1,29.51-53.12,34.11-75.24,4.98-23.95,6.71-50.11,4.66-70.13-23.56-338.74-21.67-463.91-20.16-564.52.35-23.29.68-45.28.68-68.38,0-16.57-13.43-30-30-30-68.45,0-149.38-.12-220.77-.22-59.17-.09-110.27-.16-146.17-.16h0Z"/>
          </g>
          <g class="cls-9">
            <g>
              <path class="cls-8" d="M1187.88,971.62c-1.85,0-3.7-.34-5.46-1.03-1.63-.63-40.33-15.93-85.65-49.21-60.33-44.31-103.62-99.79-125.18-160.45-33.53-94.34-16.96-201.42,49.27-318.29,34.02-60.03,67.95-104.98,100.86-133.61,30.38-26.42,60.8-39.82,90.42-39.82,102.29,0,153.39,156.94,155.52,163.62.94,2.96.94,6.14,0,9.1l-165.48,519.24c-1.26,3.95-4.09,7.2-7.83,8.98-2.04.97-4.25,1.46-6.46,1.46Z"/>
              <path class="cls-6" d="M1212.14,284.21c92.5-.01,141.22,153.17,141.22,153.17l-165.48,519.24s-361.13-141-153.97-506.58c70.68-124.73,130.33-165.82,178.23-165.83M1212.15,254.21v30-30c-33.36,0-67.09,14.64-100.27,43.51-34.2,29.75-69.21,76.02-104.07,137.53-36.06,63.63-58.02,125.35-65.28,183.45-6.46,51.68-1.43,101.22,14.93,147.25,12.66,35.63,32.2,69.35,58.06,100.23,20.39,24.35,44.75,46.99,72.38,67.28,46.89,34.44,87.38,50.43,89.08,51.09,3.51,1.37,7.22,2.05,10.91,2.05,4.42,0,8.84-.98,12.92-2.92,7.48-3.57,13.15-10.07,15.67-17.97l165.48-519.24c1.89-5.92,1.89-12.28,0-18.2-.54-1.71-13.6-42.31-39.02-83.3-15.54-25.06-32.6-45.27-50.72-60.07-24.93-20.37-51.87-30.7-80.06-30.7h0Z"/>
            </g>
            <g>
              <path class="cls-8" d="M770.07,622.31c-25.49,0-48.24-12.3-67.6-36.57-14.18-17.78-26.6-42.2-36.91-72.57-17.12-50.45-22.72-100.06-22.95-102.15-.5-4.57,1.12-9.12,4.4-12.34,2.82-2.77,6.61-4.3,10.51-4.3.63,0,1.27.04,1.9.12l227.96,29.13c7.7.98,13.38,7.68,13.09,15.44-.06,1.65-1.67,40.79-16.09,82.46-20.05,57.96-55.21,92.46-101.68,99.77-4.24.67-8.49,1.01-12.63,1.01Z"/>
              <path class="cls-6" d="M657.52,409.38l227.96,29.13s-5.7,152.33-105.11,167.98c-3.53.56-6.96.82-10.3.82-90.76,0-112.55-197.93-112.55-197.93M657.52,379.38c-7.81,0-15.38,3.06-21.03,8.6-6.56,6.44-9.8,15.54-8.79,24.68.24,2.15,6.01,53.34,23.65,105.32,10.87,32.03,24.12,57.97,39.39,77.11,10.1,12.66,21.31,22.62,33.32,29.63,14.33,8.35,29.8,12.59,46,12.59,4.92,0,9.96-.4,14.96-1.19,29.77-4.69,55.41-19.04,76.21-42.66,15.43-17.52,27.99-40.08,37.31-67.03,15.14-43.76,16.84-85.07,16.9-86.81.58-15.52-10.77-28.91-26.18-30.88l-227.96-29.13c-1.27-.16-2.54-.24-3.8-.24h0Z"/>
            </g>
            <g>
              <path class="cls-8" d="M728.94,1015.8c-1.27,0-2.54-.16-3.79-.49-4.25-1.11-7.79-4.02-9.71-7.97-.31-.65-31.62-65.48-57.09-138.06-35.9-102.31-43.15-168.33-22.15-201.84,7.01-11.19,20.91-24.52,47.31-24.52,21.05,0,46.92,8.34,79.09,25.51,69.73,37.21,106.69,83.27,109.86,136.88,6.39,108.11-129.17,203.79-134.95,207.81-2.54,1.77-5.54,2.69-8.57,2.69Z"/>
              <path class="cls-6" d="M683.51,657.92c17.51,0,41.07,7.22,72.02,23.74,244.42,130.44-26.6,319.14-26.6,319.14,0,0-166.17-342.89-45.43-342.89M683.51,627.92c-25.95,0-47.27,11.21-60.02,31.56-14.16,22.6-17.49,55.65-10.17,101.04,5.1,31.64,15.49,69.9,30.87,113.74,25.75,73.38,56.45,136.97,57.75,139.64,3.83,7.9,10.92,13.72,19.41,15.94,2.5.65,5.05.98,7.59.98,6.07,0,12.06-1.84,17.14-5.38,1.49-1.03,36.78-25.77,71.53-63.84,20.89-22.89,37.38-46.01,49.01-68.71,15.49-30.24,22.5-60,20.82-88.45-1.69-28.65-12.12-55.63-30.98-80.2-19.62-25.54-48.82-48.77-86.79-69.03-34.39-18.35-62.57-27.28-86.15-27.28h0Z"/>
            </g>
          </g>
        </g>
        <g id="Print-2" data-name="Print">
          <ellipse class="cls-10" cx="994.14" cy="1222.08" rx="39.45" ry="50.5" transform="translate(-126.15 114.49) rotate(-6.2)"/>
          <ellipse class="cls-10" cx="898.83" cy="1222.08" rx="50.5" ry="39.45" transform="translate(-393.6425 2016.3716) rotate(-85.2386)"/>
          <ellipse class="cls-10" cx="1070.27" cy="1149.95" rx="37.11" ry="47.5" transform="translate(-155.24 167.1) rotate(-8.33)"/>
          <ellipse class="cls-10" cx="823.8" cy="1148.9" rx="47.5" ry="37.11" transform="translate(-444.6864 1773.0438) rotate(-80.557)"/>
          <path class="cls-10" d="M944.46,1154.97c3.93,0,49.44,3.66,74.64-57.42,41.81-19.29,52.53-66.55,33.04-95.54-20.91-30.18-74.99-20.32-106.24-3.57-11.41,0-79.38-43.02-110.52,11.88-11.57,40.64,3.33,64.88,40.88,88.57.71,2.38,16.05,56.08,68.2,56.08Z"/>
        </g>
      </g>
    </g>
    <g id="Layer_30_copy" data-name="Layer 30 copy">
      <g id="Paw_copy_10" data-name="Paw copy 10">
        <g id="BG-4" data-name="BG">
          <g>
            <path class="cls-4" d="M1685.88,1831.16c-35.89,0-86.99-.07-146.15-.16-71.4-.1-152.33-.22-220.79-.22-8.28,0-15-6.72-15-15,0-22.99.33-44.93.68-68.15,1.52-100.91,3.41-226.48-20.21-566.04-3.72-35.48,4.65-100.31,34.98-134.05,13.29-14.79,30.01-22.6,48.38-22.6.25,0,.51,0,.76,0,3.04-12.66,9.94-24.95,20.25-35.75,17.81-18.66,42.59-29.8,66.29-29.8,15.44,0,29.6,4.82,41.22,13.83,13.8-12.98,32.75-20.38,53.46-20.38s42.03,7.8,57.58,21.4c14.74,12.89,24.08,29.94,27.41,49.82,12.19,1.97,30.61,7.19,46.22,26.38,20.77,25.53,31.06,68.06,31.45,130.02,0,.5-.02,1-.07,1.5-12.06,128.3-11.67,441.68-11.48,592.29.02,15.97.04,30.08.04,41.93,0,8.28-6.72,15-15,15Z"/>
            <path class="cls-1" d="M1549.73,967.84c33.94,0,69.5,24.01,71.3,69.48,16.32,3.23,75.44-3.61,76.37,143.23-13.41,142.71-11.51,512.32-11.51,635.62-80.39,0-243.27-.38-366.95-.38,0-122.92,9.51-217.29-19.59-635.51-4.43-41.38,10.33-140.34,68.4-140.34,4.43,0,9.11.58,14.05,1.8-1.62-34.69,37.1-67.35,73.25-67.35,15.75,0,31.01,6.2,42.24,21.12,11.43-18.64,31.62-27.67,52.43-27.67M1549.73,937.84c-20.23,0-39.1,6-54.37,16.79-12.02-6.71-25.69-10.25-40.3-10.25-27.72,0-56.56,12.88-77.14,34.45-9.25,9.69-16.19,20.49-20.59,31.79-18.59,2.48-35.41,11.65-49.1,26.89-19.86,22.1-29.51,53.11-34.11,75.24-4.98,23.95-6.71,50.11-4.66,70.12,23.56,338.74,21.67,463.91,20.16,564.52-.35,23.29-.68,45.28-.68,68.38,0,16.57,13.43,30,30,30,68.45,0,149.38.12,220.77.22,59.17.09,110.27.16,146.17.16,16.57,0,30-13.43,30-30,0-11.85-.02-25.97-.04-41.94-.19-150.38-.58-463.28,11.42-590.87.09-1,.14-2,.13-3-.42-65.51-11.8-111.1-34.82-139.39-14.81-18.21-31.9-25.97-45.34-29.57-5.18-18.98-15.46-35.69-30.05-48.45-18.51-16.19-42.46-25.11-67.45-25.11h0Z"/>
          </g>
          <g class="cls-15">
            <g>
              <path class="cls-8" d="M1233.86,2034.79c-102.29,0-153.39-156.94-155.52-163.62-.94-2.96-.94-6.14,0-9.1l165.48-519.24c1.26-3.95,4.09-7.2,7.83-8.98,2.04-.97,4.25-1.46,6.46-1.46,1.85,0,3.7.34,5.46,1.03,1.63.63,40.33,15.92,85.65,49.21,60.33,44.31,103.62,99.79,125.18,160.45,33.53,94.34,16.96,201.42-49.26,318.29-34.02,60.03-67.95,104.98-100.86,133.61-30.38,26.42-60.8,39.82-90.42,39.82Z"/>
              <path class="cls-6" d="M1258.12,1347.38s361.13,141,153.97,506.58c-70.68,124.73-130.33,165.83-178.23,165.83-92.5,0-141.22-153.17-141.22-153.17l165.48-519.24M1258.12,1317.38c-4.42,0-8.84.98-12.92,2.92-7.48,3.57-13.15,10.07-15.67,17.97l-165.48,519.24c-1.89,5.92-1.89,12.28,0,18.2.54,1.71,13.6,42.31,39.02,83.3,15.54,25.06,32.6,45.27,50.72,60.07,24.93,20.37,51.87,30.7,80.07,30.7,33.34,0,67.08-14.64,100.26-43.51,34.2-29.75,69.21-76.02,104.07-137.53,36.06-63.63,58.02-125.35,65.28-183.45,6.46-51.68,1.43-101.22-14.93-147.25-12.66-35.63-32.2-69.35-58.06-100.23-20.39-24.35-44.75-46.99-72.38-67.28-46.89-34.44-87.38-50.43-89.08-51.09-3.51-1.37-7.22-2.05-10.91-2.05h0Z"/>
            </g>
            <g>
              <path class="cls-8" d="M1788.48,1909.62c-.63,0-1.27-.04-1.9-.12l-227.96-29.13c-7.7-.98-13.38-7.68-13.09-15.44.06-1.65,1.67-40.79,16.09-82.46,20.05-57.96,55.21-92.46,101.68-99.77,4.24-.67,8.49-1.01,12.63-1.01,25.49,0,48.24,12.3,67.6,36.57,14.18,17.78,26.6,42.2,36.91,72.57,17.12,50.45,22.72,100.06,22.95,102.14.5,4.57-1.12,9.12-4.4,12.34-2.82,2.77-6.61,4.3-10.51,4.3Z"/>
              <path class="cls-6" d="M1675.93,1696.69c90.76,0,112.55,197.93,112.55,197.93l-227.96-29.13s5.7-152.33,105.11-167.98c3.53-.56,6.96-.82,10.3-.82M1675.94,1666.69h0c-4.92,0-9.96.4-14.96,1.19-29.77,4.69-55.41,19.04-76.21,42.66-15.43,17.52-27.99,40.08-37.31,67.03-15.14,43.76-16.84,85.07-16.9,86.81-.58,15.52,10.77,28.91,26.18,30.88l227.96,29.13c1.27.16,2.54.24,3.8.24,7.82,0,15.38-3.06,21.03-8.6,6.56-6.44,9.8-15.54,8.79-24.68-.24-2.15-6.01-53.34-23.65-105.32-10.87-32.03-24.12-57.97-39.39-77.11-10.1-12.66-21.31-22.62-33.32-29.63-14.32-8.35-29.8-12.59-46-12.59h0Z"/>
            </g>
            <g>
              <path class="cls-8" d="M1762.49,1661.08c-21.06,0-46.93-8.35-79.08-25.51-69.73-37.21-106.69-83.27-109.86-136.88-6.38-108.11,129.17-203.79,134.95-207.81,2.54-1.77,5.54-2.69,8.57-2.69,1.27,0,2.54.16,3.79.49,4.25,1.11,7.79,4.02,9.71,7.97.31.65,31.62,65.49,57.09,138.08,35.9,102.32,43.14,168.34,22.14,201.84-7.01,11.18-20.9,24.51-47.29,24.51h-.02Z"/>
              <path class="cls-6" d="M1717.06,1303.2s166.17,342.89,45.43,342.89c-17.51,0-41.07-7.22-72.02-23.74-244.42-130.44,26.6-319.14,26.6-319.14M1717.06,1273.2c-6.07,0-12.06,1.84-17.14,5.38-1.49,1.03-36.78,25.77-71.53,63.84-20.89,22.89-37.38,46.01-49.01,68.71-15.49,30.24-22.5,60-20.82,88.45,1.69,28.65,12.12,55.63,30.98,80.2,19.62,25.54,48.82,48.77,86.79,69.03,34.39,18.35,62.57,27.28,86.15,27.28,25.95,0,47.27-11.21,60.02-31.56,14.16-22.6,17.49-55.65,10.17-101.04-5.1-31.64-15.49-69.9-30.87-113.74-25.75-73.38-56.45-136.97-57.75-139.64-3.83-7.9-10.92-13.72-19.41-15.94-2.5-.65-5.05-.98-7.59-.98h0Z"/>
            </g>
          </g>
        </g>
        <g id="Print-3" data-name="Print">
          <ellipse class="cls-10" cx="1451.86" cy="1081.92" rx="39.45" ry="50.5" transform="translate(-108.34 163.1) rotate(-6.2)"/>
          <ellipse class="cls-10" cx="1547.17" cy="1081.92" rx="50.5" ry="39.45" transform="translate(340.5579 2533.9383) rotate(-85.2386)"/>
          <ellipse class="cls-10" cx="1375.73" cy="1154.05" rx="37.11" ry="47.5" transform="translate(-152.61 211.38) rotate(-8.33)"/>
          <ellipse class="cls-10" cx="1622.2" cy="1155.1" rx="47.5" ry="37.11" transform="translate(216.6003 2565.8017) rotate(-80.557)"/>
          <path class="cls-10" d="M1501.54,1149.03c-3.93,0-49.44-3.66-74.64,57.42-41.81,19.29-52.53,66.55-33.04,95.54,20.91,30.18,74.99,20.32,106.24,3.57,11.41,0,79.38,43.02,110.52-11.88,11.57-40.64-3.33-64.88-40.88-88.57-.71-2.38-16.05-56.08-68.2-56.08Z"/>
        </g>
      </g>
      <g id="Paw_copy_10-2" data-name="Paw copy 10">
        <g id="BG-5" data-name="BG">
          <g>
            <path class="cls-4" d="M1996.28,1351.16c-21.05,0-42.03-7.8-57.58-21.4-14.74-12.89-24.08-29.94-27.41-49.82-12.19-1.97-30.61-7.19-46.22-26.38-20.77-25.53-31.06-68.06-31.45-130.02,0-.5.02-1,.07-1.5,12.06-128.3,11.67-441.69,11.48-592.3-.02-15.96-.04-30.07-.04-41.91,0-8.28,6.72-15,15-15,35.89,0,86.99.07,146.15.16,71.4.1,152.33.22,220.79.22,8.28,0,15,6.72,15,15,0,22.99-.33,44.93-.68,68.15-1.52,100.91-3.41,226.48,20.21,566.04,3.72,35.48-4.65,100.31-34.98,134.05-13.29,14.79-30.01,22.6-48.38,22.6-.25,0-.51,0-.76,0-3.04,12.66-9.94,24.95-20.24,35.75-17.81,18.66-42.59,29.81-66.29,29.81-15.44,0-29.6-4.82-41.22-13.83-13.8,12.98-32.75,20.38-53.46,20.38Z"/>
            <path class="cls-1" d="M1860.12,487.84c80.39,0,243.27.38,366.95.38,0,122.92-9.51,217.29,19.59,635.51,4.43,41.38-10.33,140.34-68.41,140.34-4.43,0-9.11-.58-14.05-1.8,1.62,34.69-37.1,67.35-73.25,67.35-15.75,0-31.01-6.2-42.24-21.12-11.43,18.64-31.62,27.67-52.43,27.67-33.94,0-69.5-24.01-71.3-69.48-16.32-3.23-75.44,3.61-76.37-143.23,13.41-142.71,11.51-512.32,11.51-635.62M1860.12,457.84c-16.57,0-30,13.43-30,30,0,11.85.02,25.96.04,41.93.19,150.38.58,463.29-11.42,590.88-.09,1-.14,2-.13,3,.42,65.51,11.8,111.1,34.82,139.39,14.81,18.21,31.9,25.97,45.34,29.57,5.18,18.98,15.46,35.69,30.05,48.45,18.51,16.19,42.46,25.11,67.45,25.11,20.23,0,39.1-6,54.37-16.79,12.02,6.71,25.69,10.25,40.3,10.25,27.72,0,56.56-12.88,77.14-34.45,9.25-9.69,16.19-20.49,20.59-31.79,18.59-2.48,35.4-11.65,49.1-26.89,19.86-22.1,29.51-53.12,34.11-75.24,4.98-23.95,6.71-50.11,4.66-70.13-23.56-338.74-21.67-463.91-20.16-564.52.35-23.29.68-45.28.68-68.38,0-16.57-13.43-30-30-30-68.45,0-149.38-.12-220.77-.22-59.17-.09-110.27-.16-146.17-.16h0Z"/>
          </g>
          <g class="cls-14">
            <g>
              <path class="cls-8" d="M2287.88,971.62c-1.85,0-3.7-.34-5.46-1.03-1.63-.63-40.33-15.93-85.65-49.21-60.33-44.31-103.62-99.79-125.18-160.45-33.53-94.34-16.96-201.42,49.27-318.29,34.02-60.03,67.95-104.98,100.86-133.61,30.38-26.42,60.8-39.82,90.42-39.82,102.29,0,153.39,156.94,155.52,163.62.94,2.96.94,6.14,0,9.1l-165.48,519.24c-1.26,3.95-4.09,7.2-7.83,8.98-2.04.97-4.25,1.46-6.46,1.46Z"/>
              <path class="cls-6" d="M2312.14,284.21c92.5-.01,141.22,153.17,141.22,153.17l-165.48,519.24s-361.13-141-153.97-506.58c70.68-124.73,130.33-165.82,178.23-165.83M2312.15,254.21v30-30c-33.36,0-67.09,14.64-100.27,43.51-34.2,29.75-69.21,76.02-104.07,137.53-36.06,63.63-58.02,125.35-65.28,183.45-6.46,51.68-1.43,101.22,14.93,147.25,12.66,35.63,32.2,69.35,58.06,100.23,20.39,24.35,44.75,46.99,72.38,67.28,46.89,34.44,87.38,50.43,89.08,51.09,3.51,1.37,7.22,2.05,10.91,2.05,4.42,0,8.84-.98,12.92-2.92,7.48-3.57,13.15-10.07,15.67-17.97l165.48-519.24c1.89-5.92,1.89-12.28,0-18.2-.54-1.71-13.6-42.31-39.02-83.3-15.54-25.06-32.6-45.27-50.72-60.07-24.93-20.37-51.87-30.7-80.06-30.7h0Z"/>
            </g>
            <g>
              <path class="cls-8" d="M1870.07,622.31c-25.49,0-48.24-12.3-67.6-36.57-14.19-17.78-26.6-42.2-36.91-72.57-17.12-50.45-22.72-100.06-22.95-102.15-.5-4.57,1.12-9.12,4.4-12.34,2.82-2.77,6.61-4.3,10.51-4.3.63,0,1.27.04,1.9.12l227.96,29.13c7.7.98,13.38,7.68,13.09,15.44-.06,1.65-1.67,40.79-16.09,82.46-20.05,57.96-55.21,92.46-101.68,99.77-4.24.67-8.49,1.01-12.63,1.01Z"/>
              <path class="cls-6" d="M1757.52,409.38l227.96,29.13s-5.7,152.33-105.11,167.98c-3.53.56-6.96.82-10.3.82-90.76,0-112.55-197.93-112.55-197.93M1757.52,379.38c-7.81,0-15.38,3.06-21.03,8.6-6.56,6.44-9.8,15.54-8.79,24.68.24,2.15,6.01,53.34,23.65,105.32,10.87,32.03,24.12,57.97,39.39,77.11,10.1,12.66,21.31,22.62,33.32,29.63,14.33,8.35,29.8,12.59,46,12.59,4.92,0,9.96-.4,14.96-1.19,29.77-4.69,55.41-19.04,76.21-42.66,15.43-17.52,27.99-40.08,37.31-67.03,15.14-43.76,16.84-85.07,16.9-86.81.58-15.52-10.77-28.91-26.18-30.88l-227.96-29.13c-1.27-.16-2.54-.24-3.8-.24h0Z"/>
            </g>
            <g>
              <path class="cls-8" d="M1828.94,1015.8c-1.27,0-2.54-.16-3.79-.49-4.25-1.11-7.79-4.02-9.71-7.97-.31-.65-31.62-65.48-57.09-138.06-35.9-102.31-43.15-168.33-22.15-201.84,7.01-11.19,20.91-24.52,47.31-24.52,21.05,0,46.92,8.34,79.09,25.51,69.73,37.21,106.69,83.27,109.86,136.88,6.39,108.11-129.17,203.79-134.95,207.81-2.54,1.77-5.54,2.69-8.57,2.69Z"/>
              <path class="cls-6" d="M1783.51,657.92c17.51,0,41.07,7.22,72.02,23.74,244.42,130.44-26.6,319.14-26.6,319.14,0,0-166.17-342.89-45.43-342.89M1783.51,627.92c-25.95,0-47.27,11.21-60.02,31.56-14.16,22.6-17.49,55.65-10.17,101.04,5.1,31.64,15.49,69.9,30.87,113.74,25.75,73.38,56.45,136.97,57.75,139.64,3.83,7.9,10.92,13.72,19.41,15.94,2.5.65,5.05.98,7.59.98,6.07,0,12.06-1.84,17.14-5.38,1.49-1.03,36.78-25.77,71.53-63.84,20.89-22.89,37.38-46.01,49.01-68.71,15.49-30.24,22.5-60,20.82-88.45-1.69-28.65-12.12-55.63-30.98-80.2-19.62-25.54-48.82-48.77-86.79-69.03-34.39-18.35-62.57-27.28-86.15-27.28h0Z"/>
            </g>
          </g>
        </g>
        <g id="Print-4" data-name="Print">
          <ellipse class="cls-10" cx="2094.14" cy="1222.08" rx="39.45" ry="50.5" transform="translate(-119.72 233.27) rotate(-6.2)"/>
          <ellipse class="cls-10" cx="1998.83" cy="1222.08" rx="50.5" ry="39.45" transform="translate(615.0495 3112.5754) rotate(-85.2386)"/>
          <ellipse class="cls-10" cx="2170.27" cy="1149.95" rx="37.11" ry="47.5" transform="translate(-143.65 326.39) rotate(-8.33)"/>
          <ellipse class="cls-10" cx="1923.8" cy="1148.9" rx="47.5" ry="37.11" transform="translate(474.8403 2858.1379) rotate(-80.557)"/>
          <path class="cls-10" d="M2044.46,1154.97c3.93,0,49.44,3.66,74.64-57.42,41.81-19.29,52.53-66.55,33.04-95.54-20.91-30.18-74.99-20.32-106.24-3.57-11.41,0-79.38-43.02-110.52,11.88-11.57,40.64,3.33,64.88,40.88,88.57.71,2.38,16.05,56.08,68.2,56.08Z"/>
        </g>
      </g>
    </g>
    <g id="Layer_30_copy_2" data-name="Layer 30 copy 2">
      <g id="Paw_copy_11" data-name="Paw copy 11">
        <g id="BG-6" data-name="BG">
          <g>
            <path class="cls-4" d="M2785.88,1831.16c-35.89,0-86.99-.07-146.15-.16-71.4-.1-152.33-.22-220.79-.22-8.28,0-15-6.72-15-15,0-22.99.33-44.93.68-68.15,1.52-100.91,3.41-226.48-20.21-566.04-3.72-35.48,4.65-100.31,34.98-134.05,13.29-14.79,30.01-22.6,48.38-22.6.25,0,.51,0,.76,0,3.04-12.66,9.94-24.95,20.25-35.75,17.81-18.66,42.59-29.8,66.29-29.8,15.44,0,29.6,4.82,41.22,13.83,13.8-12.98,32.75-20.38,53.46-20.38s42.03,7.8,57.58,21.4c14.74,12.89,24.08,29.94,27.41,49.82,12.19,1.97,30.61,7.19,46.22,26.38,20.77,25.53,31.06,68.06,31.45,130.02,0,.5-.02,1-.07,1.5-12.06,128.3-11.67,441.68-11.48,592.29.02,15.97.04,30.08.04,41.93,0,8.28-6.72,15-15,15Z"/>
            <path class="cls-1" d="M2649.73,967.84c33.94,0,69.5,24.01,71.3,69.48,16.32,3.23,75.44-3.61,76.37,143.23-13.41,142.71-11.51,512.32-11.51,635.62-80.39,0-243.27-.38-366.95-.38,0-122.92,9.51-217.29-19.59-635.51-4.43-41.38,10.33-140.34,68.4-140.34,4.43,0,9.11.58,14.05,1.8-1.62-34.69,37.1-67.35,73.25-67.35,15.75,0,31.01,6.2,42.24,21.12,11.43-18.64,31.62-27.67,52.43-27.67M2649.73,937.84c-20.23,0-39.1,6-54.37,16.79-12.02-6.71-25.69-10.25-40.3-10.25-27.72,0-56.56,12.88-77.14,34.45-9.25,9.69-16.19,20.49-20.59,31.79-18.59,2.48-35.41,11.65-49.1,26.89-19.86,22.1-29.51,53.11-34.11,75.24-4.98,23.95-6.71,50.11-4.66,70.12,23.56,338.74,21.67,463.91,20.16,564.52-.35,23.29-.68,45.28-.68,68.38,0,16.57,13.43,30,30,30,68.45,0,149.38.12,220.77.22,59.17.09,110.27.16,146.17.16,16.57,0,30-13.43,30-30,0-11.85-.02-25.97-.04-41.94-.19-150.38-.58-463.28,11.42-590.87.09-1,.14-2,.13-3-.42-65.51-11.8-111.1-34.82-139.39-14.81-18.21-31.9-25.97-45.34-29.57-5.18-18.98-15.46-35.69-30.05-48.45-18.51-16.19-42.46-25.11-67.45-25.11h0Z"/>
          </g>
          <g class="cls-3">
            <g>
              <path class="cls-8" d="M2333.86,2034.79c-102.29,0-153.39-156.94-155.52-163.62-.94-2.96-.94-6.14,0-9.1l165.48-519.24c1.26-3.95,4.09-7.2,7.83-8.98,2.04-.97,4.25-1.46,6.46-1.46,1.85,0,3.7.34,5.46,1.03,1.63.63,40.33,15.92,85.65,49.21,60.33,44.31,103.62,99.79,125.18,160.45,33.53,94.34,16.96,201.42-49.26,318.29-34.02,60.03-67.95,104.98-100.86,133.61-30.38,26.42-60.8,39.82-90.42,39.82Z"/>
              <path class="cls-6" d="M2358.12,1347.38s361.13,141,153.97,506.58c-70.68,124.73-130.33,165.83-178.23,165.83-92.5,0-141.22-153.17-141.22-153.17l165.48-519.24M2358.12,1317.38c-4.42,0-8.84.98-12.92,2.92-7.48,3.57-13.15,10.07-15.67,17.97l-165.48,519.24c-1.89,5.92-1.89,12.28,0,18.2.54,1.71,13.6,42.31,39.02,83.3,15.54,25.06,32.6,45.27,50.72,60.07,24.93,20.37,51.87,30.7,80.07,30.7,33.34,0,67.08-14.64,100.26-43.51,34.2-29.75,69.21-76.02,104.07-137.53,36.06-63.63,58.02-125.35,65.28-183.45,6.46-51.68,1.43-101.22-14.93-147.25-12.66-35.63-32.2-69.35-58.06-100.23-20.39-24.35-44.75-46.99-72.38-67.28-46.89-34.44-87.38-50.43-89.08-51.09-3.51-1.37-7.22-2.05-10.91-2.05h0Z"/>
            </g>
            <g>
              <path class="cls-8" d="M2888.48,1909.62c-.63,0-1.27-.04-1.9-.12l-227.96-29.13c-7.7-.98-13.38-7.68-13.09-15.44.06-1.65,1.67-40.79,16.09-82.46,20.05-57.96,55.21-92.46,101.68-99.77,4.24-.67,8.49-1.01,12.63-1.01,25.49,0,48.24,12.3,67.6,36.57,14.18,17.78,26.6,42.2,36.91,72.57,17.12,50.45,22.72,100.06,22.95,102.14.5,4.57-1.12,9.12-4.4,12.34-2.82,2.77-6.61,4.3-10.51,4.3Z"/>
              <path class="cls-6" d="M2775.93,1696.69c90.76,0,112.55,197.93,112.55,197.93l-227.96-29.13s5.7-152.33,105.11-167.98c3.53-.56,6.96-.82,10.3-.82M2775.94,1666.69h0c-4.92,0-9.96.4-14.96,1.19-29.77,4.69-55.41,19.04-76.21,42.66-15.43,17.52-27.99,40.08-37.31,67.03-15.14,43.76-16.84,85.07-16.9,86.81-.58,15.52,10.77,28.91,26.18,30.88l227.96,29.13c1.27.16,2.54.24,3.8.24,7.82,0,15.38-3.06,21.03-8.6,6.56-6.44,9.8-15.54,8.79-24.68-.24-2.15-6.01-53.34-23.65-105.32-10.87-32.03-24.12-57.97-39.39-77.11-10.1-12.66-21.31-22.62-33.32-29.63-14.32-8.35-29.8-12.59-46-12.59h0Z"/>
            </g>
            <g>
              <path class="cls-8" d="M2862.49,1661.08c-21.06,0-46.93-8.35-79.08-25.51-69.73-37.21-106.69-83.27-109.86-136.88-6.38-108.11,129.17-203.79,134.95-207.81,2.54-1.77,5.54-2.69,8.57-2.69,1.27,0,2.54.16,3.79.49,4.25,1.11,7.79,4.02,9.71,7.97.31.65,31.62,65.49,57.09,138.08,35.9,102.32,43.14,168.34,22.14,201.84-7.01,11.18-20.9,24.51-47.29,24.51h-.02Z"/>
              <path class="cls-6" d="M2817.06,1303.2s166.17,342.89,45.43,342.89c-17.51,0-41.07-7.22-72.02-23.74-244.42-130.44,26.6-319.14,26.6-319.14M2817.06,1273.2c-6.07,0-12.06,1.84-17.14,5.38-1.49,1.03-36.78,25.77-71.53,63.84-20.89,22.89-37.38,46.01-49.01,68.71-15.49,30.24-22.5,60-20.82,88.45,1.69,28.65,12.12,55.63,30.98,80.2,19.62,25.54,48.82,48.77,86.79,69.03,34.39,18.35,62.57,27.28,86.15,27.28,25.95,0,47.27-11.21,60.02-31.56,14.16-22.6,17.49-55.65,10.17-101.04-5.1-31.64-15.49-69.9-30.87-113.74-25.75-73.38-56.45-136.97-57.75-139.64-3.83-7.9-10.92-13.72-19.41-15.94-2.5-.65-5.05-.98-7.59-.98h0Z"/>
            </g>
          </g>
        </g>
        <g id="Print-5" data-name="Print">
          <ellipse class="cls-10" cx="2551.86" cy="1081.92" rx="39.45" ry="50.5" transform="translate(-101.91 281.88) rotate(-6.2)"/>
          <ellipse class="cls-10" cx="2647.17" cy="1081.92" rx="50.5" ry="39.45" transform="translate(1349.2499 3630.1422) rotate(-85.2386)"/>
          <ellipse class="cls-10" cx="2475.73" cy="1154.05" rx="37.11" ry="47.5" transform="translate(-141.02 370.67) rotate(-8.33)"/>
          <ellipse class="cls-10" cx="2722.2" cy="1155.1" rx="47.5" ry="37.11" transform="translate(1136.1271 3650.8958) rotate(-80.557)"/>
          <path class="cls-10" d="M2601.54,1149.03c-3.93,0-49.44-3.66-74.64,57.42-41.81,19.29-52.53,66.55-33.04,95.54,20.91,30.18,74.99,20.32,106.24,3.57,11.41,0,79.38,43.02,110.52-11.88,11.57-40.64-3.33-64.88-40.88-88.57-.71-2.38-16.05-56.08-68.2-56.08Z"/>
        </g>
      </g>
      <g id="Paw_copy_11-2" data-name="Paw copy 11">
        <g id="BG-7" data-name="BG">
          <g>
            <path class="cls-4" d="M3096.28,1351.16c-21.05,0-42.03-7.8-57.58-21.4-14.74-12.89-24.08-29.94-27.41-49.82-12.19-1.97-30.61-7.19-46.22-26.38-20.77-25.53-31.06-68.06-31.45-130.02,0-.5.02-1,.07-1.5,12.06-128.3,11.67-441.69,11.48-592.3-.02-15.96-.04-30.07-.04-41.91,0-8.28,6.72-15,15-15,35.89,0,86.99.07,146.15.16,71.4.1,152.33.22,220.79.22,8.28,0,15,6.72,15,15,0,22.99-.33,44.93-.68,68.15-1.52,100.91-3.41,226.48,20.21,566.04,3.72,35.48-4.65,100.31-34.98,134.05-13.29,14.79-30.01,22.6-48.38,22.6-.25,0-.51,0-.76,0-3.04,12.66-9.94,24.95-20.24,35.75-17.81,18.66-42.59,29.81-66.29,29.81-15.44,0-29.6-4.82-41.22-13.83-13.8,12.98-32.75,20.38-53.46,20.38Z"/>
            <path class="cls-1" d="M2960.12,487.84c80.39,0,243.27.38,366.95.38,0,122.92-9.51,217.29,19.59,635.51,4.43,41.38-10.33,140.34-68.4,140.34-4.43,0-9.11-.58-14.05-1.8,1.62,34.69-37.1,67.35-73.25,67.35-15.75,0-31.01-6.2-42.24-21.12-11.43,18.64-31.62,27.67-52.43,27.67-33.94,0-69.5-24.01-71.3-69.48-16.32-3.23-75.44,3.61-76.37-143.23,13.41-142.71,11.51-512.32,11.51-635.62M2960.12,457.84c-16.57,0-30,13.43-30,30,0,11.85.02,25.97.04,41.94.19,150.38.58,463.28-11.42,590.87-.09,1-.14,2-.13,3,.42,65.51,11.8,111.1,34.82,139.39,14.81,18.21,31.9,25.97,45.34,29.57,5.18,18.98,15.46,35.69,30.05,48.45,18.51,16.19,42.46,25.11,67.45,25.11,20.23,0,39.1-6,54.37-16.79,12.02,6.71,25.69,10.25,40.3,10.25,27.72,0,56.56-12.88,77.14-34.45,9.25-9.69,16.19-20.49,20.59-31.79,18.59-2.48,35.4-11.65,49.1-26.89,19.86-22.1,29.51-53.12,34.11-75.24,4.98-23.95,6.71-50.11,4.66-70.13-23.56-338.74-21.67-463.91-20.16-564.52.35-23.29.68-45.28.68-68.38,0-7.96-3.16-15.59-8.79-21.21-5.63-5.63-13.26-8.79-21.21-8.79-68.45,0-149.38-.12-220.77-.22-59.17-.09-110.27-.16-146.17-.16h0Z"/>
          </g>
          <g class="cls-12">
            <g>
              <path class="cls-8" d="M3387.88,971.62c-1.85,0-3.7-.34-5.46-1.03-1.63-.63-40.33-15.93-85.65-49.21-60.33-44.31-103.62-99.79-125.18-160.45-33.53-94.34-16.96-201.42,49.27-318.29,34.02-60.03,67.95-104.98,100.86-133.61,30.38-26.42,60.8-39.82,90.42-39.82,102.29,0,153.39,156.94,155.52,163.62.94,2.96.94,6.14,0,9.1l-165.48,519.24c-1.26,3.95-4.09,7.2-7.83,8.98-2.04.97-4.25,1.46-6.46,1.46Z"/>
              <path class="cls-6" d="M3412.14,284.21c92.5-.01,141.22,153.17,141.22,153.17l-165.48,519.24s-361.13-141-153.97-506.58c70.68-124.73,130.33-165.82,178.23-165.83M3412.15,254.21v30-30c-33.36,0-67.09,14.64-100.27,43.51-34.2,29.75-69.21,76.02-104.07,137.53-36.06,63.63-58.02,125.35-65.28,183.45-6.46,51.68-1.43,101.22,14.93,147.25,12.66,35.63,32.2,69.35,58.06,100.23,20.39,24.35,44.75,46.99,72.38,67.28,46.89,34.44,87.38,50.43,89.08,51.09,3.51,1.37,7.22,2.05,10.91,2.05,4.42,0,8.84-.98,12.92-2.92,7.48-3.57,13.15-10.07,15.67-17.97l165.48-519.24c1.89-5.92,1.89-12.28,0-18.2-.54-1.71-13.6-42.31-39.02-83.3-15.54-25.06-32.6-45.27-50.72-60.07-24.93-20.37-51.87-30.7-80.06-30.7h0Z"/>
            </g>
            <g>
              <path class="cls-8" d="M2970.07,622.31c-25.49,0-48.24-12.3-67.6-36.57-14.19-17.78-26.6-42.2-36.91-72.57-17.12-50.45-22.72-100.06-22.95-102.15-.5-4.57,1.12-9.12,4.4-12.34,2.82-2.77,6.61-4.3,10.51-4.3.63,0,1.27.04,1.9.12l227.96,29.13c7.7.98,13.38,7.68,13.09,15.44-.06,1.65-1.67,40.79-16.09,82.46-20.05,57.96-55.21,92.46-101.68,99.77-4.24.67-8.49,1.01-12.63,1.01Z"/>
              <path class="cls-6" d="M2857.52,409.38l227.96,29.13s-5.7,152.33-105.11,167.98c-3.53.56-6.96.82-10.3.82-90.76,0-112.55-197.93-112.55-197.93M2857.52,379.38c-7.81,0-15.38,3.06-21.03,8.6-6.56,6.44-9.8,15.54-8.79,24.68.24,2.15,6.01,53.34,23.65,105.32,10.87,32.03,24.12,57.97,39.39,77.11,10.1,12.66,21.31,22.62,33.32,29.63,14.33,8.35,29.8,12.59,46.01,12.59,4.92,0,9.96-.4,14.96-1.19,29.77-4.69,55.41-19.04,76.21-42.66,15.43-17.52,27.99-40.08,37.31-67.03,15.14-43.76,16.84-85.07,16.9-86.81.58-15.52-10.77-28.91-26.18-30.88l-227.96-29.13c-1.27-.16-2.54-.24-3.8-.24h0Z"/>
            </g>
            <g>
              <path class="cls-8" d="M2928.94,1015.8c-1.27,0-2.54-.16-3.79-.49-4.25-1.11-7.79-4.02-9.71-7.97-.31-.65-31.62-65.48-57.09-138.06-35.9-102.31-43.15-168.33-22.15-201.84,7.01-11.19,20.91-24.52,47.31-24.52,21.05,0,46.92,8.34,79.09,25.51,69.73,37.21,106.69,83.27,109.86,136.88,6.39,108.11-129.17,203.79-134.95,207.81-2.54,1.77-5.54,2.69-8.57,2.69Z"/>
              <path class="cls-6" d="M2883.51,657.92c17.51,0,41.07,7.22,72.02,23.74,244.42,130.44-26.6,319.14-26.6,319.14,0,0-166.17-342.89-45.43-342.89M2883.51,627.92c-25.95,0-47.27,11.21-60.02,31.56-14.16,22.6-17.49,55.65-10.17,101.04,5.1,31.64,15.49,69.9,30.87,113.74,25.75,73.38,56.45,136.97,57.75,139.64,3.83,7.9,10.92,13.72,19.41,15.94,2.5.65,5.05.98,7.59.98,6.07,0,12.06-1.84,17.14-5.38,1.49-1.03,36.78-25.77,71.53-63.84,20.89-22.89,37.38-46.01,49.01-68.71,15.49-30.24,22.5-60,20.82-88.45-1.69-28.65-12.12-55.63-30.98-80.2-19.62-25.54-48.82-48.77-86.79-69.03-34.39-18.35-62.57-27.28-86.15-27.28h0Z"/>
            </g>
          </g>
        </g>
        <g id="Print-6" data-name="Print">
          <ellipse class="cls-10" cx="3194.14" cy="1222.08" rx="39.45" ry="50.5" transform="translate(-113.29 352.05) rotate(-6.2)"/>
          <ellipse class="cls-10" cx="3098.83" cy="1222.08" rx="50.5" ry="39.45" transform="translate(1623.7415 4208.7793) rotate(-85.2386)"/>
          <ellipse class="cls-10" cx="3270.27" cy="1149.95" rx="37.11" ry="47.5" transform="translate(-132.05 485.68) rotate(-8.33)"/>
          <ellipse class="cls-10" cx="3023.8" cy="1148.9" rx="47.5" ry="37.11" transform="translate(1394.367 3943.2321) rotate(-80.557)"/>
          <path class="cls-10" d="M3144.46,1154.97c3.93,0,49.44,3.66,74.64-57.42,41.81-19.29,52.53-66.55,33.04-95.54-20.91-30.18-74.99-20.32-106.24-3.57-11.41,0-79.38-43.02-110.52,11.88-11.57,40.64,3.33,64.88,40.88,88.57.71,2.38,16.05,56.08,68.2,56.08Z"/>
        </g>
      </g>
    </g>
    <g id="Layer_30_copy_3" data-name="Layer 30 copy 3">
      <g id="Paw_copy_12" data-name="Paw copy 12">
        <g id="BG-8" data-name="BG">
          <g>
            <path class="cls-4" d="M3885.88,1831.16c-35.89,0-86.99-.07-146.15-.16-71.4-.1-152.33-.22-220.79-.22-8.28,0-15-6.72-15-15,0-22.99.33-44.93.68-68.15,1.52-100.91,3.41-226.48-20.21-566.04-3.72-35.48,4.65-100.31,34.98-134.05,13.29-14.79,30.01-22.6,48.38-22.6.25,0,.51,0,.76,0,3.04-12.66,9.94-24.95,20.25-35.75,17.81-18.66,42.59-29.8,66.29-29.8,15.44,0,29.6,4.82,41.22,13.83,13.8-12.98,32.75-20.38,53.46-20.38s42.03,7.8,57.58,21.4c14.74,12.89,24.08,29.94,27.41,49.82,12.19,1.97,30.61,7.19,46.22,26.38,20.77,25.53,31.06,68.06,31.45,130.02,0,.5-.02,1-.07,1.5-12.06,128.3-11.67,441.68-11.48,592.29.02,15.97.04,30.08.04,41.93,0,8.28-6.72,15-15,15Z"/>
            <path class="cls-1" d="M3749.73,967.84c33.94,0,69.5,24.01,71.3,69.48,16.32,3.23,75.44-3.61,76.37,143.23-13.41,142.71-11.51,512.32-11.51,635.62-80.39,0-243.27-.38-366.95-.38,0-122.92,9.51-217.29-19.59-635.51-4.43-41.38,10.33-140.34,68.4-140.34,4.43,0,9.11.58,14.05,1.8-1.62-34.69,37.1-67.35,73.25-67.35,15.75,0,31.01,6.2,42.24,21.12,11.43-18.64,31.62-27.67,52.43-27.67M3749.73,937.84c-20.23,0-39.1,6-54.37,16.79-12.02-6.71-25.69-10.25-40.3-10.25-27.72,0-56.56,12.88-77.14,34.45-9.25,9.69-16.19,20.49-20.59,31.79-18.6,2.48-35.41,11.65-49.1,26.89-19.86,22.1-29.51,53.11-34.11,75.24-4.98,23.95-6.71,50.11-4.65,70.12,23.56,338.74,21.67,463.91,20.16,564.52-.35,23.29-.68,45.28-.68,68.38,0,16.57,13.43,30,30,30,68.45,0,149.38.12,220.77.22,59.17.09,110.27.16,146.17.16,16.57,0,30-13.43,30-30,0-11.85-.02-25.97-.04-41.94-.19-150.38-.58-463.28,11.42-590.87.09-1,.14-2,.13-3-.42-65.51-11.8-111.1-34.82-139.39-14.81-18.21-31.9-25.97-45.34-29.57-5.18-18.98-15.46-35.69-30.05-48.45-18.51-16.19-42.46-25.11-67.45-25.11h0Z"/>
          </g>
          <g class="cls-2">
            <g>
              <path class="cls-8" d="M3433.86,2034.79c-102.29,0-153.39-156.94-155.52-163.62-.94-2.96-.94-6.14,0-9.1l165.48-519.24c1.26-3.95,4.09-7.2,7.83-8.98,2.04-.97,4.25-1.46,6.46-1.46,1.85,0,3.7.34,5.46,1.03,1.63.63,40.33,15.92,85.65,49.21,60.33,44.31,103.62,99.79,125.18,160.45,33.53,94.34,16.96,201.42-49.26,318.29-34.02,60.03-67.95,104.98-100.86,133.61-30.38,26.42-60.8,39.82-90.42,39.82Z"/>
              <path class="cls-6" d="M3458.12,1347.38s361.14,141,153.97,506.58c-70.68,124.73-130.33,165.83-178.23,165.83-92.5,0-141.22-153.17-141.22-153.17l165.48-519.24M3458.12,1317.38c-4.42,0-8.84.98-12.92,2.92-7.48,3.57-13.15,10.07-15.67,17.97l-165.48,519.24c-1.89,5.92-1.89,12.28,0,18.2.54,1.71,13.6,42.31,39.02,83.3,15.54,25.06,32.6,45.27,50.73,60.07,24.93,20.37,51.87,30.7,80.07,30.7,33.34,0,67.08-14.64,100.26-43.51,34.2-29.75,69.21-76.02,104.07-137.53,36.06-63.63,58.02-125.35,65.28-183.45,6.46-51.68,1.43-101.22-14.93-147.25-12.66-35.63-32.2-69.35-58.06-100.23-20.39-24.35-44.75-46.99-72.38-67.28-46.89-34.44-87.38-50.43-89.08-51.09-3.51-1.37-7.22-2.05-10.91-2.05h0Z"/>
            </g>
            <g>
              <path class="cls-8" d="M3988.48,1909.62c-.63,0-1.27-.04-1.9-.12l-227.96-29.13c-7.7-.98-13.38-7.68-13.09-15.44.06-1.65,1.67-40.79,16.09-82.46,20.05-57.96,55.21-92.46,101.68-99.77,4.24-.67,8.49-1.01,12.63-1.01,25.49,0,48.24,12.3,67.6,36.57,14.18,17.78,26.6,42.2,36.91,72.57,17.12,50.45,22.72,100.06,22.95,102.14.5,4.57-1.12,9.12-4.4,12.34-2.82,2.77-6.61,4.3-10.51,4.3Z"/>
              <path class="cls-6" d="M3875.93,1696.69c90.76,0,112.55,197.93,112.55,197.93l-227.96-29.13s5.7-152.33,105.12-167.98c3.53-.56,6.96-.82,10.3-.82M3875.94,1666.69h0c-4.92,0-9.96.4-14.96,1.19-29.77,4.69-55.41,19.04-76.21,42.66-15.43,17.52-27.99,40.08-37.31,67.03-15.14,43.76-16.84,85.07-16.9,86.81-.58,15.52,10.77,28.91,26.18,30.88l227.96,29.13c1.27.16,2.54.24,3.8.24,7.82,0,15.38-3.06,21.03-8.6,6.56-6.44,9.8-15.54,8.79-24.68-.24-2.15-6.01-53.34-23.65-105.32-10.87-32.03-24.12-57.97-39.39-77.11-10.1-12.66-21.31-22.62-33.32-29.63-14.32-8.35-29.8-12.59-46-12.59h0Z"/>
            </g>
            <g>
              <path class="cls-8" d="M3962.49,1661.08c-21.06,0-46.93-8.35-79.08-25.51-69.73-37.21-106.69-83.27-109.86-136.88-6.38-108.11,129.17-203.79,134.95-207.81,2.54-1.77,5.54-2.69,8.57-2.69,1.27,0,2.54.16,3.79.49,4.25,1.11,7.79,4.02,9.71,7.97.31.65,31.62,65.49,57.09,138.08,35.9,102.32,43.14,168.34,22.14,201.84-7.01,11.18-20.9,24.51-47.29,24.51h-.02Z"/>
              <path class="cls-6" d="M3917.06,1303.2s166.17,342.89,45.43,342.89c-17.51,0-41.07-7.22-72.02-23.74-244.42-130.44,26.6-319.14,26.6-319.14M3917.06,1273.2c-6.07,0-12.06,1.84-17.14,5.38-1.49,1.03-36.78,25.77-71.53,63.84-20.89,22.89-37.38,46.01-49.01,68.71-15.49,30.24-22.5,60-20.82,88.45,1.69,28.65,12.12,55.63,30.98,80.2,19.62,25.54,48.82,48.77,86.79,69.03,34.39,18.35,62.57,27.28,86.15,27.28,25.95,0,47.27-11.21,60.02-31.56,14.16-22.6,17.49-55.65,10.17-101.04-5.1-31.64-15.49-69.9-30.87-113.74-25.75-73.38-56.45-136.97-57.75-139.64-3.83-7.9-10.92-13.72-19.41-15.94-2.5-.65-5.05-.98-7.59-.98h0Z"/>
            </g>
          </g>
        </g>
        <g id="Print-7" data-name="Print">
          <ellipse class="cls-10" cx="3651.86" cy="1081.92" rx="39.45" ry="50.5" transform="translate(-95.47 400.66) rotate(-6.2)"/>
          <ellipse class="cls-10" cx="3747.17" cy="1081.92" rx="50.5" ry="39.45" transform="translate(2357.9419 4726.346) rotate(-85.2386)"/>
          <ellipse class="cls-10" cx="3575.73" cy="1154.05" rx="37.11" ry="47.5" transform="translate(-129.43 529.95) rotate(-8.33)"/>
          <ellipse class="cls-10" cx="3822.2" cy="1155.1" rx="47.5" ry="37.11" transform="translate(2055.6538 4735.99) rotate(-80.557)"/>
          <path class="cls-10" d="M3701.54,1149.03c-3.93,0-49.44-3.66-74.64,57.42-41.81,19.29-52.53,66.55-33.04,95.54,20.91,30.18,74.99,20.32,106.24,3.57,11.41,0,79.38,43.02,110.52-11.88,11.57-40.64-3.33-64.88-40.88-88.57-.71-2.38-16.05-56.08-68.2-56.08Z"/>
        </g>
      </g>
    </g>
  </g>
</svg>