<?xml version="1.0" encoding="UTF-8"?>
<svg id="Capsule" xmlns="http://www.w3.org/2000/svg" xmlns:xlink="http://www.w3.org/1999/xlink" viewBox="0 0 2048 1152">
  <defs>
    <style>
      .cls-1 {
        fill: #181818;
      }

      .cls-2 {
        clip-path: url(#clippath-4);
      }

      .cls-3 {
        fill: #fcfdf8;
      }

      .cls-4 {
        fill: #f284b5;
      }

      .cls-5 {
        fill: #261911;
      }

      .cls-6 {
        fill: none;
      }

      .cls-7 {
        fill: #8b5e3c;
      }

      .cls-8 {
        clip-path: url(#clippath-1);
      }

      .cls-9 {
        stroke: #410d2d;
        stroke-miterlimit: 10;
        stroke-width: 13px;
      }

      .cls-9, .cls-10 {
        fill: #ef60a3;
      }

      .cls-11 {
        fill: #f8dce8;
      }

      .cls-12 {
        clip-path: url(#clippath-3);
      }

      .cls-13 {
        clip-path: url(#clippath-2);
      }

      .cls-14 {
        clip-path: url(#clippath);
      }
    </style>
    <clipPath id="clippath">
      <path class="cls-6" d="M105.99-81.28c0,122.92-9.51,217.29,19.59,635.51,4.77,44.54-12.69,155.77-82.46,138.55,2.33,49.8-78.49,95.41-115.49,46.23-30.06,49.04-120.83,31.54-123.73-41.81-16.32-3.23-75.44,3.61-76.37-143.23,13.41-142.71,11.51-512.32,11.51-635.62,80.39,0,243.27.38,366.95.38Z"/>
    </clipPath>
    <clipPath id="clippath-1">
      <path class="cls-6" d="M297.85,1246.29c0-122.92,9.51-217.29-19.59-635.51-4.77-44.54,12.69-155.77,82.46-138.55-2.33-49.8,78.49-95.41,115.49-46.23,30.06-49.04,120.83-31.54,123.73,41.81,16.32,3.23,75.44-3.61,76.37,143.23-13.41,142.71-11.51,512.32-11.51,635.62-80.39,0-243.27-.38-366.95-.38Z"/>
    </clipPath>
    <clipPath id="clippath-2">
      <path class="cls-6" d="M1205.99-81.28c0,122.92-9.51,217.29,19.59,635.51,4.77,44.54-12.69,155.77-82.46,138.55,2.33,49.8-78.49,95.41-115.49,46.23-30.06,49.04-120.83,31.54-123.73-41.81-16.32-3.23-75.44,3.61-76.37-143.23,13.41-142.71,11.51-512.32,11.51-635.62,80.39,0,243.27.38,366.95.38Z"/>
    </clipPath>
    <clipPath id="clippath-3">
      <path class="cls-6" d="M1397.85,1246.29c0-122.92,9.51-217.29-19.59-635.51-4.77-44.54,12.69-155.77,82.46-138.55-2.33-49.8,78.49-95.41,115.49-46.23,30.06-49.04,120.83-31.54,123.73,41.81,16.32,3.23,75.44-3.61,76.37,143.23-13.41,142.71-11.51,512.32-11.51,635.62-80.39,0-243.27-.38-366.95-.38Z"/>
    </clipPath>
    <clipPath id="clippath-4">
      <path class="cls-6" d="M2305.99-81.28c0,122.92-9.51,217.29,19.59,635.51,4.77,44.54-12.69,155.77-82.46,138.55,2.33,49.8-78.49,95.41-115.49,46.23-30.06,49.04-120.83,31.54-123.73-41.81-16.32-3.23-75.44,3.61-76.37-143.23,13.41-142.71,11.51-512.32,11.51-635.62,80.39,0,243.27.38,366.95.38Z"/>
    </clipPath>
  </defs>
  <g id="BG_copy_5" data-name="BG copy 5">
    <g id="BG_copy_5-2" data-name="BG copy 5">
      <rect class="cls-10" x="-1021.08" y="795.84" width="1365.33" height="1365.33"/>
      <g>
        <path class="cls-4" d="M344.25,1664.72c-112.41-33.3-224.82-66.67-307.66-126.07-82.91-59.39-136.31-144.95-223.84-211.32-87.61-66.37-209.35-113.55-271.25-198.96-61.97-85.41-64.02-208.97-66.14-332.53H344.25v868.88Z"/>
        <path class="cls-11" d="M344.25,1230.32c-56.21-16.69-112.41-33.37-153.83-63.03-41.49-29.73-68.19-72.51-111.96-105.66-43.77-33.22-104.6-56.81-135.62-99.52-30.95-42.7-32.01-104.52-33.07-166.27h434.48v434.48Z"/>
      </g>
    </g>
    <g id="BG_copy_5-3" data-name="BG copy 5">
      <rect class="cls-10" x="-1021.08" y="-569.5" width="1365.33" height="1365.33" transform="translate(-225.24 451.58) rotate(90)"/>
      <g>
        <path class="cls-4" d="M-524.63,795.84c33.3-112.41,66.67-224.82,126.07-307.66,59.39-82.91,144.95-136.31,211.32-223.84C-120.87,176.73-73.69,54.99,11.72-6.9c85.41-61.97,208.97-64.02,332.53-66.14v868.88h-868.88Z"/>
        <path class="cls-11" d="M-90.23,795.84c16.69-56.21,33.37-112.41,63.03-153.83,29.73-41.49,72.51-68.19,105.66-111.96,33.22-43.77,56.81-104.6,99.52-135.62,42.7-30.95,104.52-32.01,166.27-33.07v434.48H-90.23Z"/>
      </g>
    </g>
    <g id="BG_copy_5-4" data-name="BG copy 5">
      <rect class="cls-10" x="344.25" y="-569.5" width="1365.33" height="1365.33" transform="translate(2053.8407 226.3392) rotate(-180)"/>
      <g>
        <path class="cls-4" d="M344.25-73.05c112.41,33.3,224.82,66.67,307.66,126.07,82.91,59.39,136.31,144.95,223.84,211.32,87.61,66.37,209.35,113.55,271.25,198.96,61.97,85.41,64.02,208.97,66.14,332.53H344.25V-73.05Z"/>
        <path class="cls-11" d="M344.25,361.36c56.21,16.69,112.41,33.37,153.83,63.03,41.49,29.73,68.19,72.51,111.96,105.66,43.77,33.22,104.6,56.81,135.62,99.52,30.95,42.7,32.01,104.52,33.07,166.27h-434.48v-434.48Z"/>
      </g>
      <path class="cls-4" d="M1709.59,299.39c-111.65-13.73-223.31-27.46-332.53-66.14-109.15-38.68-215.87-102.32-278.91-191.3-63.03-88.97-82.45-203.13-118.1-309.25-35.57-106.12-87.46-204.19-139.34-302.19h868.88V299.39Z"/>
    </g>
    <g id="BG_copy_5-5" data-name="BG copy 5">
      <rect class="cls-10" x="344.25" y="795.84" width="1365.33" height="1365.33" transform="translate(2505.4233 451.5826) rotate(90)"/>
      <g>
        <path class="cls-4" d="M1213.14,795.84c-13.73,111.65-27.46,223.31-66.14,332.53-38.68,109.15-102.32,215.87-191.3,278.91-88.97,63.03-203.13,82.45-309.25,118.1-106.12,35.57-204.19,87.46-302.19,139.34v-868.88h868.88Z"/>
        <path class="cls-11" d="M778.73,795.84c-6.9,55.83-13.73,111.65-33.07,166.27-19.42,54.61-51.2,107.94-95.65,139.49-44.53,31.48-101.64,41.19-154.66,59.01-53.1,17.83-102.1,43.77-151.1,69.71v-434.48h434.48Z"/>
      </g>
      <rect class="cls-10" x="1709.59" y="795.84" width="1365.33" height="1365.33"/>
      <rect class="cls-10" x="1709.59" y="-569.5" width="1365.33" height="1365.33" transform="translate(2279.0841 2505.4233) rotate(-90)"/>
      <path class="cls-4" d="M2578.47-569.5c-33.3,112.41-66.67,224.82-126.07,307.66-59.39,82.91-144.95,136.31-211.32,223.84-66.37,87.61-113.55,209.35-198.96,271.25-85.41,61.97-208.97,64.02-332.53,66.14v-868.88h868.88Z"/>
    </g>
  </g>
  <g id="Paws_copy" data-name="Paws copy">
    <g id="Layer_30_copy_4" data-name="Layer 30 copy 4">
      <g id="Paw_copy_13-2" data-name="Paw copy 13">
        <g id="BG-2" data-name="BG">
          <g>
            <path class="cls-3" d="M-124.8,781.67c-21.05,0-42.03-7.8-57.58-21.4-14.74-12.89-24.08-29.94-27.41-49.82-12.19-1.97-30.61-7.19-46.22-26.38-20.77-25.53-31.06-68.06-31.45-130.02,0-.5.02-1,.07-1.5,12.06-128.3,11.67-441.68,11.48-592.28-.02-15.97-.04-30.08-.04-41.93,0-8.28,6.72-15,15-15,35.89,0,86.99.07,146.15.16,71.4.1,152.33.22,220.79.22,8.28,0,15,6.72,15,15,0,22.99-.33,44.93-.68,68.15-1.52,100.91-3.41,226.48,20.21,566.04,3.72,35.48-4.65,100.31-34.98,134.05-13.29,14.79-30.01,22.6-48.38,22.6-.25,0-.51,0-.76,0-3.04,12.66-9.94,24.95-20.24,35.75-17.81,18.66-42.59,29.81-66.29,29.81-15.44,0-29.6-4.82-41.22-13.83-13.8,12.98-32.75,20.38-53.46,20.38Z"/>
            <path class="cls-1" d="M-260.96-81.66c80.39,0,243.27.38,366.95.38,0,122.92-9.51,217.3,19.59,635.51,4.43,41.38-10.33,140.34-68.4,140.34-4.43,0-9.11-.57-14.05-1.8,1.62,34.69-37.1,67.35-73.25,67.35-15.75,0-31.01-6.2-42.24-21.12-11.43,18.64-31.62,27.67-52.43,27.67-33.94,0-69.5-24.01-71.3-69.48-16.32-3.23-75.44,3.61-76.37-143.23,13.41-142.71,11.51-512.32,11.51-635.62M-260.96-111.66c-16.57,0-30,13.43-30,30,0,11.85.02,25.97.04,41.94.19,150.38.58,463.28-11.42,590.87-.09,1-.14,2-.13,3,.42,65.51,11.8,111.1,34.82,139.39,14.81,18.21,31.9,25.97,45.35,29.57,5.18,18.98,15.46,35.69,30.05,48.45,18.51,16.19,42.46,25.11,67.45,25.11,20.23,0,39.1-6,54.37-16.79,12.02,6.71,25.69,10.25,40.3,10.25,27.72,0,56.56-12.88,77.14-34.45,9.25-9.69,16.19-20.49,20.59-31.79,18.59-2.48,35.4-11.65,49.1-26.89,19.86-22.1,29.51-53.12,34.11-75.24,4.98-23.95,6.71-50.11,4.66-70.13-23.56-338.74-21.67-463.91-20.16-564.52.35-23.29.68-45.28.68-68.38,0-16.57-13.43-30-30-30-68.45,0-149.38-.12-220.77-.22-59.17-.09-110.27-.16-146.17-.16h0Z"/>
          </g>
          <g class="cls-14">
            <g>
              <path class="cls-7" d="M166.8,402.12c-1.85,0-3.7-.34-5.46-1.03-1.63-.63-40.33-15.92-85.65-49.21C15.36,307.58-27.93,252.09-49.49,191.44-83.02,97.1-66.45-9.99-.23-126.85c34.02-60.03,67.95-104.98,100.86-133.61,30.38-26.42,60.8-39.82,90.42-39.82,102.29,0,153.39,156.94,155.52,163.62.94,2.96.94,6.14,0,9.1L181.09,391.68c-1.26,3.95-4.09,7.2-7.83,8.98-2.04.97-4.25,1.46-6.46,1.46Z"/>
              <path class="cls-5" d="M191.06-285.28c92.5-.01,141.22,153.17,141.22,153.17L166.8,387.12S-194.34,246.13,12.83-119.45c70.68-124.73,130.33-165.82,178.23-165.83M191.07-315.28v30-30c-33.36,0-67.09,14.64-100.27,43.51C56.6-242.03,21.58-195.76-13.27-134.25-49.33-70.61-71.29-8.89-78.55,49.21c-6.46,51.68-1.43,101.22,14.93,147.25,12.66,35.62,32.2,69.35,58.06,100.23,20.39,24.35,44.75,46.99,72.38,67.28,46.89,34.44,87.38,50.43,89.08,51.09,3.51,1.37,7.22,2.05,10.91,2.05,4.42,0,8.84-.98,12.92-2.92,7.48-3.57,13.15-10.07,15.67-17.97L360.86-123.01c1.89-5.92,1.89-12.28,0-18.2-.54-1.71-13.6-42.31-39.02-83.3-15.54-25.06-32.6-45.27-50.72-60.07-24.93-20.37-51.87-30.7-80.06-30.7h0Z"/>
            </g>
          </g>
        </g>
        <g id="Print">
          <ellipse class="cls-9" cx="-26.94" cy="652.59" rx="39.45" ry="50.5" transform="translate(-70.62 .91) rotate(-6.2)"/>
          <ellipse class="cls-9" cx="49.19" cy="580.45" rx="37.11" ry="47.5" transform="translate(-83.53 13.24) rotate(-8.33)"/>
          <path class="cls-9" d="M-76.62,585.47c3.93,0,49.44,3.66,74.64-57.42,41.81-19.29,52.53-66.55,33.04-95.54-20.91-30.18-74.99-20.32-106.24-3.57-11.41,0-79.38-43.02-110.52,11.88-11.57,40.64,3.33,64.88,40.88,88.57.71,2.38,16.05,56.08,68.2,56.08Z"/>
        </g>
      </g>
    </g>
    <g id="Layer_30_copy_4-2" data-name="Layer 30 copy 4">
      <g id="Paw_copy_13-3" data-name="Paw copy 13">
        <g id="BG-3" data-name="BG">
          <g>
            <path class="cls-3" d="M664.8,1261.67c-35.89,0-86.99-.07-146.15-.16-71.4-.1-152.33-.22-220.79-.22-8.28,0-15-6.72-15-15,0-22.99.33-44.93.68-68.16,1.52-100.91,3.41-226.48-20.21-566.04-3.72-35.48,4.65-100.31,34.97-134.05,13.29-14.79,30.01-22.6,48.38-22.6.25,0,.51,0,.76,0,3.04-12.66,9.94-24.95,20.25-35.75,17.81-18.66,42.59-29.8,66.29-29.8,15.44,0,29.6,4.82,41.22,13.83,13.8-12.98,32.75-20.38,53.46-20.38s42.03,7.8,57.58,21.4c14.74,12.89,24.08,29.94,27.41,49.82,12.19,1.97,30.61,7.19,46.22,26.38,20.77,25.53,31.06,68.06,31.45,130.02,0,.5-.02,1-.07,1.5-12.06,128.3-11.67,441.69-11.48,592.3.02,15.96.04,30.07.04,41.91,0,8.28-6.72,15-15,15Z"/>
            <path class="cls-1" d="M528.65,398.34c33.94,0,69.5,24.01,71.3,69.48,16.32,3.23,75.44-3.61,76.37,143.23-13.41,142.71-11.51,512.32-11.51,635.62-80.39,0-243.27-.38-366.95-.38,0-122.92,9.51-217.3-19.59-635.51-4.43-41.38,10.33-140.34,68.4-140.34,4.43,0,9.11.57,14.05,1.8-1.62-34.69,37.1-67.35,73.25-67.35,15.75,0,31.01,6.2,42.24,21.12,11.43-18.64,31.62-27.67,52.43-27.67M528.65,368.34c-20.23,0-39.1,6-54.37,16.79-12.02-6.71-25.69-10.25-40.3-10.25-27.72,0-56.56,12.88-77.14,34.45-9.25,9.69-16.19,20.49-20.59,31.79-18.6,2.48-35.41,11.65-49.1,26.89-19.86,22.1-29.51,53.11-34.11,75.24-4.98,23.95-6.71,50.11-4.66,70.12,23.56,338.74,21.67,463.91,20.16,564.52-.35,23.29-.68,45.28-.68,68.38,0,16.57,13.43,30,30,30,68.45,0,149.38.12,220.77.22,59.17.09,110.27.16,146.17.16,16.57,0,30-13.43,30-30,0-11.85-.02-25.97-.04-41.94-.19-150.38-.58-463.28,11.42-590.87.09-1,.14-2,.13-3-.42-65.51-11.8-111.1-34.82-139.39-14.81-18.21-31.9-25.97-45.35-29.57-5.18-18.98-15.46-35.69-30.05-48.45-18.51-16.19-42.46-25.11-67.45-25.11h0Z"/>
          </g>
          <g class="cls-8">
            <g>
              <path class="cls-7" d="M212.78,1465.29c-102.29,0-153.39-156.94-155.52-163.62-.94-2.96-.94-6.14,0-9.1l165.48-519.24c1.26-3.95,4.09-7.2,7.83-8.98,2.04-.97,4.25-1.46,6.46-1.46,1.85,0,3.7.34,5.46,1.03,1.63.63,40.33,15.92,85.65,49.21,60.33,44.31,103.62,99.79,125.18,160.45,33.53,94.34,16.96,201.42-49.27,318.29-34.02,60.03-67.95,104.98-100.86,133.61-30.38,26.43-60.8,39.82-90.42,39.82Z"/>
              <path class="cls-5" d="M237.04,777.88s361.13,141,153.97,506.58c-70.68,124.73-130.33,165.83-178.23,165.83-92.5,0-141.22-153.17-141.22-153.17l165.48-519.24M237.04,747.88c-4.42,0-8.84.98-12.92,2.92-7.48,3.57-13.15,10.07-15.67,17.97L42.98,1288.02c-1.89,5.92-1.89,12.28,0,18.2.54,1.71,13.6,42.31,39.02,83.3,15.54,25.06,32.6,45.27,50.73,60.07,24.93,20.37,51.87,30.7,80.07,30.7,33.34,0,67.08-14.64,100.26-43.51,34.2-29.75,69.21-76.02,104.07-137.53,36.06-63.63,58.02-125.35,65.28-183.45,6.46-51.68,1.43-101.22-14.93-147.25-12.66-35.62-32.2-69.35-58.06-100.23-20.39-24.35-44.75-46.99-72.38-67.28-46.89-34.44-87.38-50.43-89.08-51.09-3.51-1.37-7.22-2.05-10.91-2.05h0Z"/>
            </g>
            <g>
              <path class="cls-7" d="M767.4,1340.13c-.63,0-1.27-.04-1.9-.12l-227.96-29.13c-7.7-.98-13.38-7.68-13.09-15.44.06-1.65,1.67-40.79,16.09-82.46,20.05-57.96,55.21-92.46,101.68-99.77,4.24-.67,8.49-1.01,12.63-1.01,25.49,0,48.24,12.3,67.6,36.57,14.18,17.78,26.6,42.2,36.91,72.57,17.12,50.45,22.72,100.06,22.95,102.15.5,4.57-1.12,9.12-4.4,12.34-2.82,2.77-6.61,4.3-10.51,4.3Z"/>
              <path class="cls-5" d="M654.85,1127.19c90.76,0,112.55,197.93,112.55,197.93l-227.96-29.13s5.7-152.33,105.11-167.98c3.53-.55,6.96-.82,10.3-.82M654.86,1097.19h0c-4.92,0-9.96.4-14.96,1.19-29.77,4.69-55.41,19.04-76.21,42.66-15.43,17.52-27.99,40.08-37.31,67.03-15.14,43.76-16.84,85.07-16.9,86.81-.58,15.52,10.77,28.91,26.18,30.88l227.96,29.13c1.27.16,2.54.24,3.8.24,7.82,0,15.38-3.06,21.03-8.6,6.56-6.45,9.8-15.54,8.79-24.68-.24-2.15-6.01-53.34-23.65-105.32-10.87-32.03-24.12-57.97-39.39-77.11-10.1-12.66-21.31-22.62-33.32-29.63-14.32-8.35-29.8-12.59-46-12.59h0Z"/>
            </g>
            <g>
              <path class="cls-7" d="M741.41,1091.58c-21.06,0-46.93-8.35-79.08-25.51-69.73-37.21-106.69-83.27-109.86-136.88-6.39-108.11,129.17-203.79,134.95-207.81,2.54-1.77,5.54-2.69,8.57-2.69,1.27,0,2.54.16,3.79.49,4.25,1.11,7.79,4.02,9.71,7.97.31.65,31.62,65.49,57.09,138.08,35.9,102.32,43.14,168.34,22.14,201.84-7.01,11.18-20.9,24.51-47.29,24.51h-.02Z"/>
              <path class="cls-5" d="M695.98,733.7s166.17,342.89,45.43,342.89c-17.51,0-41.07-7.22-72.02-23.74-244.42-130.44,26.6-319.14,26.6-319.14M695.99,703.7c-6.07,0-12.06,1.84-17.14,5.38-1.49,1.03-36.78,25.77-71.53,63.84-20.89,22.89-37.38,46.01-49.01,68.71-15.49,30.24-22.5,60-20.82,88.45,1.69,28.65,12.12,55.64,30.98,80.2,19.62,25.54,48.82,48.77,86.79,69.03,34.39,18.35,62.57,27.28,86.15,27.28,25.95,0,47.27-11.21,60.02-31.56,14.16-22.6,17.49-55.65,10.17-101.04-5.1-31.64-15.49-69.9-30.87-113.74-25.75-73.38-56.45-136.97-57.75-139.64-3.83-7.9-10.92-13.72-19.41-15.94-2.5-.65-5.05-.98-7.59-.98h0Z"/>
            </g>
          </g>
        </g>
        <g id="Print-2" data-name="Print">
          <ellipse class="cls-9" cx="430.78" cy="512.42" rx="39.45" ry="50.5" transform="translate(-52.81 49.51) rotate(-6.2)"/>
          <ellipse class="cls-9" cx="526.09" cy="512.42" rx="50.5" ry="39.45" transform="translate(-28.23 994.16) rotate(-85.24)"/>
          <ellipse class="cls-9" cx="354.65" cy="584.55" rx="37.11" ry="47.5" transform="translate(-80.91 57.52) rotate(-8.33)"/>
          <ellipse class="cls-9" cx="601.12" cy="585.6" rx="47.5" ry="37.11" transform="translate(-75.1743 1082.4967) rotate(-80.557)"/>
          <path class="cls-9" d="M480.46,579.54c-3.93,0-49.44-3.66-74.64,57.42-41.81,19.29-52.53,66.55-33.04,95.54,20.91,30.18,74.99,20.32,106.24,3.57,11.41,0,79.38,43.02,110.52-11.88,11.57-40.64-3.33-64.88-40.88-88.57-.71-2.38-16.05-56.08-68.2-56.08Z"/>
        </g>
      </g>
      <g id="Paw_copy_13-4" data-name="Paw copy 13">
        <g id="BG-4" data-name="BG">
          <g>
            <path class="cls-3" d="M975.2,781.67c-21.05,0-42.03-7.8-57.58-21.4-14.74-12.89-24.08-29.94-27.41-49.82-12.19-1.97-30.61-7.19-46.22-26.38-20.77-25.53-31.06-68.06-31.45-130.02,0-.5.02-1,.07-1.5,12.06-128.3,11.67-441.68,11.48-592.28-.02-15.97-.04-30.08-.04-41.93,0-8.28,6.72-15,15-15,35.89,0,86.99.07,146.15.16,71.4.1,152.33.22,220.79.22,8.28,0,15,6.72,15,15,0,22.99-.33,44.93-.68,68.15-1.52,100.91-3.41,226.48,20.21,566.04,3.72,35.48-4.65,100.31-34.98,134.05-13.29,14.79-30.01,22.6-48.38,22.6-.25,0-.51,0-.76,0-3.04,12.66-9.94,24.95-20.24,35.75-17.81,18.66-42.59,29.81-66.29,29.81-15.44,0-29.6-4.82-41.22-13.83-13.8,12.98-32.75,20.38-53.46,20.38Z"/>
            <path class="cls-1" d="M839.04-81.66c80.39,0,243.27.38,366.95.38,0,122.92-9.51,217.3,19.59,635.51,4.43,41.38-10.33,140.34-68.4,140.34-4.43,0-9.11-.57-14.05-1.8,1.62,34.69-37.1,67.35-73.25,67.35-15.75,0-31.01-6.2-42.24-21.12-11.43,18.64-31.62,27.67-52.43,27.67-33.94,0-69.5-24.01-71.3-69.48-16.32-3.23-75.44,3.61-76.37-143.23,13.41-142.71,11.51-512.32,11.51-635.62M839.04-111.66c-16.57,0-30,13.43-30,30,0,11.85.02,25.97.04,41.94.19,150.38.58,463.28-11.42,590.87-.09,1-.14,2-.13,3,.42,65.51,11.8,111.1,34.82,139.39,14.81,18.21,31.9,25.97,45.34,29.57,5.18,18.98,15.46,35.69,30.05,48.45,18.51,16.19,42.46,25.11,67.45,25.11,20.23,0,39.1-6,54.37-16.79,12.02,6.71,25.69,10.25,40.3,10.25,27.72,0,56.56-12.88,77.14-34.45,9.25-9.69,16.19-20.49,20.59-31.79,18.59-2.48,35.4-11.65,49.1-26.89,19.86-22.1,29.51-53.12,34.11-75.24,4.98-23.95,6.71-50.11,4.66-70.13-23.56-338.74-21.67-463.91-20.16-564.52.35-23.29.68-45.28.68-68.38,0-16.57-13.43-30-30-30-68.45,0-149.38-.12-220.77-.22-59.17-.09-110.27-.16-146.17-.16h0Z"/>
          </g>
          <g class="cls-13">
            <g>
              <path class="cls-7" d="M1266.8,402.12c-1.85,0-3.7-.34-5.46-1.03-1.63-.63-40.33-15.92-85.65-49.21-60.33-44.31-103.62-99.79-125.18-160.45-33.53-94.34-16.96-201.42,49.26-318.29,34.02-60.03,67.95-104.98,100.86-133.61,30.38-26.42,60.8-39.82,90.42-39.82,102.29,0,153.39,156.94,155.52,163.62.94,2.96.94,6.14,0,9.1l-165.48,519.24c-1.26,3.95-4.09,7.2-7.83,8.98-2.04.97-4.25,1.46-6.46,1.46Z"/>
              <path class="cls-5" d="M1291.06-285.28c92.5-.01,141.22,153.17,141.22,153.17l-165.48,519.24s-361.13-141-153.97-506.58c70.68-124.73,130.33-165.82,178.23-165.83M1291.07-315.28v30-30c-33.36,0-67.09,14.64-100.27,43.51-34.2,29.75-69.21,76.02-104.07,137.53-36.06,63.63-58.02,125.35-65.28,183.45-6.46,51.68-1.43,101.22,14.93,147.25,12.66,35.62,32.2,69.35,58.06,100.23,20.39,24.35,44.75,46.99,72.38,67.28,46.89,34.44,87.38,50.43,89.08,51.09,3.51,1.37,7.22,2.05,10.91,2.05,4.42,0,8.84-.98,12.92-2.92,7.48-3.57,13.15-10.07,15.67-17.97l165.48-519.24c1.89-5.92,1.89-12.28,0-18.2-.54-1.71-13.6-42.31-39.02-83.3-15.54-25.06-32.6-45.27-50.72-60.07-24.93-20.37-51.87-30.7-80.06-30.7h0Z"/>
            </g>
            <g>
              <path class="cls-7" d="M848.99,52.81c-25.49,0-48.24-12.3-67.6-36.57-14.18-17.78-26.6-42.2-36.91-72.57-17.12-50.45-22.72-100.06-22.95-102.15-.5-4.57,1.12-9.12,4.4-12.34,2.82-2.77,6.61-4.3,10.51-4.3.63,0,1.27.04,1.9.12l227.96,29.13c7.7.98,13.38,7.68,13.09,15.44-.06,1.65-1.67,40.79-16.09,82.46-20.05,57.96-55.21,92.46-101.68,99.77-4.24.67-8.49,1.01-12.63,1.01Z"/>
              <path class="cls-5" d="M736.44-160.12l227.96,29.13s-5.7,152.33-105.11,167.98c-3.53.56-6.96.82-10.3.82-90.76,0-112.55-197.93-112.55-197.93M736.44-190.12c-7.81,0-15.38,3.06-21.03,8.6-6.56,6.44-9.8,15.54-8.79,24.68.24,2.15,6.01,53.34,23.65,105.32,10.87,32.03,24.12,57.97,39.39,77.11,10.1,12.66,21.31,22.62,33.32,29.63,14.33,8.35,29.8,12.59,46.01,12.59,4.92,0,9.96-.4,14.96-1.19,29.77-4.69,55.41-19.04,76.21-42.66,15.43-17.52,27.99-40.08,37.31-67.03,15.14-43.76,16.84-85.07,16.9-86.81.58-15.52-10.77-28.91-26.18-30.88l-227.96-29.13c-1.27-.16-2.54-.24-3.8-.24h0Z"/>
            </g>
            <g>
              <path class="cls-7" d="M807.86,446.31c-1.27,0-2.54-.16-3.79-.49-4.25-1.11-7.79-4.02-9.71-7.97-.31-.65-31.62-65.49-57.09-138.07-35.9-102.31-43.15-168.33-22.15-201.84,7.01-11.19,20.91-24.52,47.31-24.52,21.05,0,46.92,8.34,79.09,25.51,69.73,37.21,106.69,83.27,109.86,136.88,6.38,108.11-129.17,203.79-134.95,207.81-2.54,1.77-5.54,2.69-8.57,2.69Z"/>
              <path class="cls-5" d="M762.43,88.42c17.51,0,41.07,7.22,72.02,23.74,244.42,130.44-26.6,319.14-26.6,319.14,0,0-166.17-342.89-45.43-342.89M762.43,58.42c-25.95,0-47.27,11.21-60.02,31.56-14.16,22.6-17.49,55.65-10.17,101.04,5.1,31.64,15.49,69.9,30.87,113.74,25.75,73.38,56.45,136.97,57.75,139.64,3.83,7.9,10.92,13.72,19.41,15.94,2.5.65,5.05.98,7.59.98,6.07,0,12.06-1.84,17.14-5.38,1.49-1.03,36.78-25.77,71.53-63.84,20.89-22.89,37.38-46.01,49.01-68.71,15.49-30.24,22.5-60,20.82-88.45-1.69-28.65-12.12-55.63-30.98-80.2-19.62-25.54-48.82-48.77-86.79-69.03-34.39-18.35-62.57-27.28-86.15-27.28h0Z"/>
            </g>
          </g>
        </g>
        <g id="Print-3" data-name="Print">
          <ellipse class="cls-9" cx="1073.06" cy="652.59" rx="39.45" ry="50.5" transform="translate(-64.19 119.69) rotate(-6.2)"/>
          <ellipse class="cls-9" cx="977.75" cy="652.59" rx="50.5" ry="39.45" transform="translate(246.2586 1572.7949) rotate(-85.2386)"/>
          <ellipse class="cls-9" cx="1149.19" cy="580.45" rx="37.11" ry="47.5" transform="translate(-71.94 172.53) rotate(-8.33)"/>
          <ellipse class="cls-9" cx="902.72" cy="579.4" rx="47.5" ry="37.11" transform="translate(183.0657 1374.833) rotate(-80.557)"/>
          <path class="cls-9" d="M1023.38,585.47c3.93,0,49.44,3.66,74.64-57.42,41.81-19.29,52.53-66.55,33.04-95.54-20.91-30.18-74.99-20.32-106.24-3.57-11.41,0-79.38-43.02-110.52,11.88-11.57,40.64,3.33,64.88,40.88,88.57.71,2.38,16.05,56.08,68.2,56.08Z"/>
        </g>
      </g>
    </g>
    <g id="Layer_30_copy_4-3" data-name="Layer 30 copy 4">
      <g id="Paw_copy_13-5" data-name="Paw copy 13">
        <g id="BG-5" data-name="BG">
          <g>
            <path class="cls-3" d="M1764.8,1261.67c-35.89,0-86.99-.07-146.15-.16-71.4-.1-152.33-.22-220.79-.22-8.28,0-15-6.72-15-15,0-22.99.33-44.93.68-68.16,1.52-100.91,3.41-226.48-20.21-566.04-3.72-35.48,4.65-100.31,34.97-134.05,13.29-14.79,30.01-22.6,48.38-22.6.25,0,.51,0,.76,0,3.04-12.66,9.94-24.95,20.25-35.75,17.81-18.66,42.59-29.8,66.29-29.8,15.44,0,29.6,4.82,41.22,13.83,13.8-12.98,32.75-20.38,53.46-20.38s42.03,7.8,57.58,21.4c14.74,12.89,24.08,29.94,27.41,49.82,12.19,1.97,30.61,7.19,46.22,26.38,20.77,25.53,31.06,68.06,31.45,130.02,0,.5-.02,1-.07,1.5-12.06,128.3-11.67,441.69-11.48,592.3.02,15.96.04,30.07.04,41.91,0,8.28-6.72,15-15,15Z"/>
            <path class="cls-1" d="M1628.65,398.34c33.94,0,69.5,24.01,71.3,69.48,16.32,3.23,75.44-3.61,76.37,143.23-13.41,142.71-11.51,512.32-11.51,635.62-80.39,0-243.27-.38-366.95-.38,0-122.92,9.51-217.3-19.59-635.51-4.43-41.38,10.33-140.34,68.41-140.34,4.43,0,9.11.57,14.05,1.8-1.62-34.69,37.1-67.35,73.25-67.35,15.75,0,31.01,6.2,42.24,21.12,11.43-18.64,31.62-27.67,52.43-27.67M1628.65,368.34c-20.23,0-39.1,6-54.37,16.79-12.02-6.71-25.69-10.25-40.3-10.25-27.72,0-56.56,12.88-77.14,34.45-9.25,9.69-16.19,20.49-20.59,31.79-18.6,2.48-35.41,11.65-49.1,26.89-19.86,22.1-29.51,53.11-34.11,75.24-4.98,23.95-6.71,50.11-4.66,70.12,23.56,338.74,21.67,463.91,20.16,564.52-.35,23.29-.68,45.28-.68,68.38,0,16.57,13.43,30,30,30,68.45,0,149.38.12,220.77.22,59.17.09,110.27.16,146.17.16,16.57,0,30-13.43,30-30,0-11.85-.02-25.96-.04-41.93-.19-150.38-.58-463.29,11.42-590.88.09-1,.14-2,.13-3-.42-65.51-11.8-111.1-34.82-139.39-14.81-18.21-31.9-25.97-45.35-29.57-5.18-18.98-15.46-35.69-30.05-48.45-18.51-16.19-42.46-25.11-67.45-25.11h0Z"/>
          </g>
          <g class="cls-12">
            <g>
              <path class="cls-7" d="M1312.78,1465.29c-102.29,0-153.39-156.94-155.52-163.62-.94-2.96-.94-6.14,0-9.1l165.48-519.24c1.26-3.95,4.09-7.2,7.83-8.98,2.04-.97,4.25-1.46,6.46-1.46,1.85,0,3.7.34,5.46,1.03,1.63.63,40.33,15.92,85.65,49.21,60.33,44.31,103.62,99.79,125.18,160.45,33.53,94.34,16.96,201.42-49.27,318.29-34.02,60.03-67.95,104.98-100.86,133.61-30.38,26.43-60.8,39.82-90.42,39.82Z"/>
              <path class="cls-5" d="M1337.04,777.88s361.13,141,153.97,506.58c-70.68,124.73-130.33,165.83-178.23,165.83-92.5,0-141.22-153.17-141.22-153.17l165.48-519.24M1337.04,747.88c-4.42,0-8.84.98-12.92,2.92-7.48,3.57-13.15,10.07-15.67,17.97l-165.48,519.24c-1.89,5.92-1.89,12.28,0,18.2.54,1.71,13.6,42.31,39.02,83.3,15.54,25.06,32.6,45.27,50.72,60.07,24.93,20.37,51.87,30.7,80.07,30.7,33.34,0,67.08-14.64,100.26-43.51,34.2-29.75,69.21-76.02,104.07-137.53,36.06-63.63,58.02-125.35,65.28-183.45,6.46-51.68,1.43-101.22-14.93-147.25-12.66-35.63-32.2-69.35-58.06-100.23-20.39-24.35-44.75-46.99-72.38-67.28-46.89-34.44-87.38-50.43-89.08-51.09-3.51-1.37-7.22-2.05-10.91-2.05h0Z"/>
            </g>
            <g>
              <path class="cls-7" d="M1867.4,1340.13c-.63,0-1.27-.04-1.9-.12l-227.96-29.13c-7.7-.98-13.38-7.68-13.09-15.44.06-1.65,1.67-40.79,16.09-82.46,20.05-57.96,55.21-92.46,101.68-99.77,4.24-.67,8.49-1.01,12.63-1.01,25.49,0,48.24,12.3,67.6,36.57,14.18,17.78,26.6,42.2,36.91,72.57,17.12,50.45,22.72,100.06,22.95,102.15.5,4.57-1.12,9.12-4.4,12.34-2.82,2.77-6.61,4.3-10.51,4.3Z"/>
              <path class="cls-5" d="M1754.85,1127.19c90.76,0,112.55,197.93,112.55,197.93l-227.96-29.13s5.7-152.33,105.11-167.98c3.53-.55,6.96-.82,10.3-.82M1754.86,1097.19h0c-4.92,0-9.96.4-14.96,1.19-29.77,4.69-55.41,19.04-76.21,42.66-15.43,17.52-27.99,40.08-37.31,67.03-15.14,43.76-16.84,85.07-16.9,86.81-.58,15.52,10.77,28.91,26.18,30.88l227.96,29.13c1.27.16,2.54.24,3.8.24,7.82,0,15.38-3.06,21.03-8.6,6.56-6.45,9.8-15.54,8.79-24.68-.24-2.15-6.01-53.34-23.65-105.32-10.87-32.03-24.12-57.97-39.39-77.11-10.1-12.66-21.31-22.62-33.32-29.63-14.32-8.35-29.8-12.59-46-12.59h0Z"/>
            </g>
            <g>
              <path class="cls-7" d="M1841.41,1091.58c-21.06,0-46.93-8.35-79.08-25.51-69.73-37.21-106.69-83.27-109.86-136.88-6.39-108.11,129.17-203.79,134.95-207.81,2.54-1.77,5.54-2.69,8.57-2.69,1.27,0,2.54.16,3.79.49,4.25,1.11,7.79,4.02,9.71,7.97.31.65,31.62,65.49,57.09,138.08,35.9,102.32,43.14,168.34,22.14,201.84-7.01,11.18-20.9,24.51-47.29,24.51h-.02Z"/>
              <path class="cls-5" d="M1795.98,733.7s166.17,342.89,45.43,342.89c-17.51,0-41.07-7.22-72.02-23.74-244.42-130.44,26.6-319.14,26.6-319.14M1795.98,703.7c-6.07,0-12.06,1.84-17.14,5.38-1.49,1.03-36.78,25.77-71.53,63.84-20.89,22.89-37.38,46.01-49.01,68.71-15.49,30.24-22.5,60-20.82,88.45,1.69,28.65,12.12,55.64,30.98,80.2,19.62,25.54,48.82,48.77,86.79,69.03,34.39,18.35,62.57,27.28,86.15,27.28,25.95,0,47.27-11.21,60.02-31.56,14.16-22.6,17.49-55.65,10.17-101.04-5.1-31.64-15.49-69.9-30.87-113.74-25.75-73.38-56.45-136.97-57.75-139.64-3.83-7.9-10.92-13.72-19.41-15.94-2.5-.65-5.05-.98-7.59-.98h0Z"/>
            </g>
          </g>
        </g>
        <g id="Print-4" data-name="Print">
          <ellipse class="cls-9" cx="1530.78" cy="512.42" rx="39.45" ry="50.5" transform="translate(-46.38 168.29) rotate(-6.2)"/>
          <ellipse class="cls-9" cx="1626.09" cy="512.42" rx="50.5" ry="39.45" transform="translate(980.459 2090.3616) rotate(-85.2386)"/>
          <ellipse class="cls-9" cx="1454.65" cy="584.55" rx="37.11" ry="47.5" transform="translate(-69.32 216.8) rotate(-8.33)"/>
          <ellipse class="cls-9" cx="1701.12" cy="585.6" rx="47.5" ry="37.11" transform="translate(844.3524 2167.5909) rotate(-80.557)"/>
          <path class="cls-9" d="M1580.46,579.54c-3.93,0-49.44-3.66-74.64,57.42-41.81,19.29-52.53,66.55-33.04,95.54,20.91,30.18,74.99,20.32,106.24,3.57,11.41,0,79.38,43.02,110.52-11.88,11.57-40.64-3.33-64.88-40.88-88.57-.71-2.38-16.05-56.08-68.2-56.08Z"/>
        </g>
      </g>
      <g id="Paw_copy_13-6" data-name="Paw copy 13">
        <g id="BG-6" data-name="BG">
          <g>
            <path class="cls-3" d="M2075.2,781.67c-21.05,0-42.03-7.8-57.58-21.4-14.74-12.89-24.08-29.94-27.41-49.82-12.19-1.97-30.61-7.19-46.22-26.38-20.77-25.53-31.06-68.06-31.45-130.02,0-.5.02-1,.07-1.5,12.06-128.3,11.67-441.68,11.48-592.28-.02-15.97-.04-30.08-.04-41.93,0-8.28,6.72-15,15-15,35.89,0,86.99.07,146.15.16,71.4.1,152.33.22,220.79.22,8.28,0,15,6.72,15,15,0,22.99-.33,44.93-.68,68.15-1.52,100.91-3.41,226.48,20.21,566.04,3.72,35.48-4.65,100.31-34.98,134.05-13.29,14.79-30.01,22.6-48.38,22.6-.25,0-.51,0-.76,0-3.04,12.66-9.94,24.95-20.24,35.75-17.81,18.66-42.59,29.81-66.29,29.81-15.44,0-29.6-4.82-41.22-13.83-13.8,12.98-32.75,20.38-53.46,20.38Z"/>
            <path class="cls-1" d="M1939.04-81.66c80.39,0,243.27.38,366.95.38,0,122.92-9.51,217.3,19.59,635.51,4.43,41.38-10.33,140.34-68.4,140.34-4.43,0-9.11-.57-14.05-1.8,1.62,34.69-37.1,67.35-73.25,67.35-15.75,0-31.01-6.2-42.24-21.12-11.43,18.64-31.62,27.67-52.43,27.67-33.94,0-69.5-24.01-71.3-69.48-16.32-3.23-75.44,3.61-76.37-143.23,13.41-142.71,11.51-512.32,11.51-635.62M1939.04-111.66c-16.57,0-30,13.43-30,30,0,11.85.02,25.97.04,41.94.19,150.38.58,463.28-11.42,590.87-.09,1-.14,2-.13,3,.42,65.51,11.8,111.1,34.82,139.39,14.81,18.21,31.9,25.97,45.34,29.57,5.18,18.98,15.46,35.69,30.05,48.45,18.51,16.19,42.46,25.11,67.45,25.11,20.23,0,39.1-6,54.37-16.79,12.02,6.71,25.69,10.25,40.3,10.25,27.72,0,56.56-12.88,77.14-34.45,9.25-9.69,16.19-20.49,20.59-31.79,18.59-2.48,35.4-11.65,49.1-26.89,19.86-22.1,29.51-53.12,34.11-75.24,4.98-23.95,6.71-50.11,4.66-70.13-23.56-338.74-21.67-463.91-20.16-564.52.35-23.29.68-45.28.68-68.38,0-16.57-13.43-30-30-30-68.45,0-149.38-.12-220.77-.22-59.17-.09-110.27-.16-146.17-.16h0Z"/>
          </g>
          <g class="cls-2">
            <g>
              <path class="cls-7" d="M1948.99,52.81c-25.49,0-48.24-12.3-67.6-36.57-14.18-17.78-26.6-42.2-36.91-72.57-17.12-50.45-22.72-100.06-22.95-102.15-.5-4.57,1.12-9.12,4.4-12.34,2.82-2.77,6.61-4.3,10.51-4.3.63,0,1.27.04,1.9.12l227.96,29.13c7.7.98,13.38,7.68,13.09,15.44-.06,1.65-1.67,40.79-16.09,82.46-20.05,57.96-55.21,92.46-101.68,99.77-4.24.67-8.49,1.01-12.63,1.01Z"/>
              <path class="cls-5" d="M1836.44-160.12l227.96,29.13s-5.7,152.33-105.11,167.98c-3.53.56-6.96.82-10.3.82-90.76,0-112.55-197.93-112.55-197.93M1836.44-190.12c-7.81,0-15.38,3.06-21.03,8.6-6.56,6.44-9.8,15.54-8.79,24.68.24,2.15,6.01,53.34,23.65,105.32,10.87,32.03,24.12,57.97,39.39,77.11,10.1,12.66,21.31,22.62,33.32,29.63,14.33,8.35,29.8,12.59,46.01,12.59,4.92,0,9.96-.4,14.96-1.19,29.77-4.69,55.41-19.04,76.21-42.66,15.43-17.52,27.99-40.08,37.31-67.03,15.14-43.76,16.84-85.07,16.9-86.81.58-15.52-10.77-28.91-26.18-30.88l-227.96-29.13c-1.27-.16-2.54-.24-3.8-.24h0Z"/>
            </g>
            <g>
              <path class="cls-7" d="M1907.86,446.31c-1.27,0-2.54-.16-3.79-.49-4.25-1.11-7.79-4.02-9.71-7.97-.31-.65-31.62-65.49-57.09-138.07-35.9-102.31-43.15-168.33-22.15-201.84,7.01-11.19,20.91-24.52,47.31-24.52,21.05,0,46.92,8.34,79.09,25.51,69.73,37.21,106.69,83.27,109.86,136.88,6.38,108.11-129.17,203.79-134.95,207.81-2.54,1.77-5.54,2.69-8.57,2.69Z"/>
              <path class="cls-5" d="M1862.43,88.42c17.51,0,41.07,7.22,72.02,23.74,244.42,130.44-26.6,319.14-26.6,319.14,0,0-166.17-342.89-45.43-342.89M1862.43,58.42c-25.95,0-47.27,11.21-60.02,31.56-14.16,22.6-17.49,55.65-10.17,101.04,5.1,31.64,15.49,69.9,30.87,113.74,25.75,73.38,56.45,136.97,57.75,139.64,3.83,7.9,10.92,13.72,19.41,15.94,2.5.65,5.05.98,7.59.98,6.07,0,12.06-1.84,17.14-5.38,1.49-1.03,36.78-25.77,71.53-63.84,20.89-22.89,37.38-46.01,49.01-68.71,15.49-30.24,22.5-60,20.82-88.45-1.69-28.65-12.12-55.63-30.98-80.2-19.62-25.54-48.82-48.77-86.79-69.03-34.39-18.35-62.57-27.28-86.15-27.28h0Z"/>
            </g>
          </g>
        </g>
        <g id="Print-5" data-name="Print">
          <ellipse class="cls-9" cx="2077.75" cy="652.59" rx="50.5" ry="39.45" transform="translate(1254.9506 2668.9987) rotate(-85.2386)"/>
          <ellipse class="cls-9" cx="2002.72" cy="579.4" rx="47.5" ry="37.11" transform="translate(1102.5924 2459.9272) rotate(-80.557)"/>
          <path class="cls-9" d="M2123.38,585.47c3.93,0,49.44,3.66,74.64-57.42,41.81-19.29,52.53-66.55,33.04-95.54-20.91-30.18-74.99-20.32-106.24-3.57-11.41,0-79.38-43.02-110.52,11.88-11.57,40.64,3.33,64.88,40.88,88.57.71,2.38,16.05,56.08,68.2,56.08Z"/>
        </g>
      </g>
    </g>
  </g>
</svg>