<?xml version="1.0" encoding="UTF-8"?>
<svg id="Full_Logo" data-name="Full Logo" xmlns="http://www.w3.org/2000/svg" xmlns:xlink="http://www.w3.org/1999/xlink" viewBox="0 0 1024 1024">
  <defs>
    <style>
      .cls-1 {
        fill: #181818;
      }

      .cls-2 {
        fill: #9b6c4d;
      }

      .cls-3 {
        fill: #0f0f10;
      }

      .cls-4 {
        fill: #fcfdf8;
      }

      .cls-5 {
        fill: #565656;
        stroke: #000;
      }

      .cls-5, .cls-6 {
        stroke-miterlimit: 10;
        stroke-width: 13px;
      }

      .cls-7 {
        fill: #2d1d14;
      }

      .cls-8 {
        fill: #f284b5;
      }

      .cls-9 {
        fill: #261911;
      }

      .cls-10 {
        fill: none;
      }

      .cls-11 {
        fill: #8b5e3c;
      }

      .cls-12 {
        clip-path: url(#clippath-1);
      }

      .cls-6 {
        stroke: #410d2d;
      }

      .cls-6, .cls-13 {
        fill: #ef60a3;
      }

      .cls-14 {
        fill: #f8dce8;
      }

      .cls-15 {
        clip-path: url(#clippath);
      }
    </style>
    <clipPath id="clippath">
      <path class="cls-10" d="M333.96,1217.06c-42.04-115.51-65.38-207.44-235.76-590.48-19.72-40.22-41.35-150.71,30.1-158.39-19.22-46,41.12-116.5,92.72-82.94,11.48-56.37,102.75-70.96,130.57-3.03,16.44-2.54,69.65-29.19,120.75,108.47,36.2,138.69,164.41,485.36,206.58,601.22-75.54,27.5-228.73,82.84-344.95,125.15Z"/>
    </clipPath>
    <clipPath id="clippath-1">
      <path class="cls-10" d="M709.36-191.18c42.04,115.51,65.38,207.44,235.76,590.48,19.72,40.22,41.35,150.71-30.1,158.39,19.22,46-41.12,116.5-92.72,82.94-11.48,56.37-102.75,70.96-130.57,3.03-16.44,2.54-69.65,29.19-120.75-108.47-36.2-138.69-164.41-485.36-206.58-601.22,75.54-27.5,228.73-82.84,344.95-125.15Z"/>
    </clipPath>
  </defs>
  <g id="BG-3" data-name="BG">
    <rect class="cls-13" width="1024" height="1024"/>
    <g>
      <path class="cls-8" d="M1024,651.66c-84.31-24.97-168.62-50.01-230.74-94.55-62.18-44.54-102.23-108.71-167.88-158.49-65.71-49.78-157.01-85.16-203.43-149.22-46.48-64.06-48.01-156.73-49.61-249.4h651.66v651.66Z"/>
      <path class="cls-14" d="M1024,325.86c-42.15-12.52-84.31-25.03-115.37-47.27-31.12-22.3-51.14-54.39-83.97-79.25-32.82-24.92-78.45-42.61-101.72-74.64-23.21-32.03-24.01-78.39-24.8-124.7h325.86v325.86Z"/>
    </g>
    <g>
      <path class="cls-8" d="M0,372.34c83.74,10.3,167.48,20.59,249.4,49.61,81.86,29.01,161.91,76.74,209.18,143.47,47.27,66.73,61.84,152.35,88.58,231.94,26.68,79.59,65.59,153.14,104.5,226.65H0V372.34Z"/>
      <path class="cls-14" d="M0,698.14c41.87,5.18,83.74,10.3,124.7,24.8,40.96,14.56,80.95,38.4,104.62,71.74,23.61,33.39,30.89,76.23,44.26,116,13.37,39.82,32.82,76.57,52.28,113.32H0v-325.86Z"/>
    </g>
  </g>
  <g id="Chicken_Paw" data-name="Chicken Paw">
    <g id="BG-4" data-name="BG">
      <g>
        <path class="cls-4" d="M333.96,1232.07c-6.13,0-11.88-3.78-14.1-9.87-7.86-21.6-15.06-42.33-22.67-64.28-33.09-95.35-74.25-213.99-212.59-524.99-8.74-17.95-16.02-44-19.01-68.09-2.78-22.39-3.28-54.17,10.09-78.42,7.86-14.25,19.59-24.24,34.4-29.45-2.04-17.96,3.13-37.7,14.97-55.48,16.43-24.67,42.29-39.99,67.5-39.99,6.8,0,13.45,1.05,19.88,3.13,5.34-10.61,13.36-19.91,23.51-27.1,14.23-10.08,32.02-15.63,50.08-15.63,31.54,0,58.38,15.92,73.88,43.19,4.36-.84,9.6-1.56,15.43-1.56,19.53,0,37.92,8.13,54.66,24.16,20.69,19.81,39.66,52.72,56.4,97.8.17.47.32.95.45,1.43,32.55,124.69,140.1,419.05,191.79,560.51,5.48,14.99,10.32,28.24,14.37,39.37,1.36,3.74,1.18,7.86-.5,11.47s-4.73,6.4-8.46,7.76c-33.73,12.27-81.76,29.68-137.37,49.83-67.14,24.33-143.24,51.9-207.58,75.32-1.69.62-3.43.91-5.13.91Z"/>
        <path class="cls-1" d="M286.02,336.89c25.97,0,52.62,13.74,65.56,45.33,4.94-.76,13.21-3.71,23.75-3.71,24.5,0,61.27,15.92,97,112.18,36.2,138.69,164.41,485.36,206.58,601.22-75.54,27.5-228.73,82.84-344.95,125.15-42.04-115.51-65.38-207.44-235.76-590.48-19.72-40.22-41.35-150.71,30.1-158.39-15.73-37.64,21.83-91.7,64.26-91.7,9.42,0,19.08,2.66,28.45,8.76,6.14-30.16,35.13-48.36,65.01-48.36M286.02,306.89c-21.14,0-42,6.53-58.74,18.39-8.75,6.2-16.18,13.72-22.06,22.21-4.16-.66-8.38-1-12.65-1-16.02,0-32.26,4.89-46.94,14.14-12.83,8.08-24.26,19.34-33.05,32.54-11.41,17.14-17.49,36.01-17.89,54.15-2.53,1.32-4.97,2.78-7.33,4.37-10.2,6.88-18.54,16.13-24.8,27.48-15.32,27.78-14.9,62.92-11.84,87.51,3.17,25.51,10.93,53.25,20.3,72.58,138,310.26,179.03,428.53,212.02,523.58,7.63,22,14.85,42.78,22.75,64.49,2.72,7.48,8.3,13.57,15.51,16.93,4.01,1.87,8.34,2.81,12.68,2.81,3.47,0,6.94-.6,10.26-1.81,64.3-23.4,140.36-50.96,207.46-75.28,55.66-20.17,103.73-37.58,137.48-49.87,15.57-5.67,23.6-22.88,17.93-38.45-4.05-11.13-8.9-24.4-14.38-39.4-51.61-141.24-158.99-435.14-191.36-559.13-.25-.97-.55-1.92-.9-2.86-17.78-47.89-37.43-81.72-60.08-103.42-19.63-18.8-41.51-28.33-65.04-28.33-2.81,0-5.48.14-7.99.36-7.51-10.63-16.77-19.57-27.47-26.42-15.89-10.18-34.51-15.56-53.85-15.56h0Z"/>
      </g>
      <g class="cls-15">
        <g>
          <path class="cls-11" d="M294.7,1457.91c-84.73,0-164.52-102.17-167.88-106.52-1.9-2.46-2.99-5.45-3.11-8.55l-22.09-544.53c-.17-4.14,1.38-8.17,4.29-11.12,2.82-2.87,6.68-4.49,10.7-4.49.12,0,.23,0,.35,0,1.74.04,43.34,1.17,97.32,16.95,71.85,21,131.5,58.33,172.51,107.96,63.77,77.18,84.82,183.48,62.57,315.94-13.74,81.77-34.8,142.84-62.6,181.52-25.19,35.06-56.16,52.83-92.05,52.83Z"/>
          <path class="cls-9" d="M116.61,797.7s387.58,8.98,317.95,423.37c-28.83,171.56-84.51,221.84-139.85,221.84-78.33,0-156-100.68-156-100.68l-22.09-544.53M116.61,767.7c-8.04,0-15.75,3.23-21.4,8.97-5.81,5.91-8.91,13.96-8.58,22.24l22.09,544.53c.25,6.21,2.43,12.19,6.22,17.11.87,1.13,21.64,27.89,52.8,54.74,44.36,38.23,87.08,57.61,126.96,57.61,19.69,0,38.4-4.79,55.6-14.25,18.01-9.9,34.37-24.98,48.64-44.83,14.36-19.98,27.04-45.48,37.69-75.77,11.05-31.42,20.31-69.11,27.51-112.02,12.12-72.13,11.65-137.64-1.4-194.71-11.61-50.77-33.27-95.61-64.39-133.27-24.08-29.15-53.97-54.15-88.84-74.33-27.49-15.91-58.12-28.85-91.03-38.47-55.84-16.32-99.35-17.5-101.18-17.55-.23,0-.46,0-.7,0h0Z"/>
        </g>
        <g>
          <path class="cls-11" d="M577.97,1196.15c-6.38,0-12.24-4.09-14.27-10.4-.51-1.57-12.38-38.91-13.08-82.99-.98-61.32,20.26-105.76,61.42-128.53,11.75-6.5,24.24-9.79,37.12-9.79,37.46,0,77.11,27.43,117.86,81.54,28.97,38.46,47.79,76.35,48.58,77.95,2.04,4.12,2.07,8.95.09,13.1-1.98,4.15-5.75,7.16-10.24,8.17l-224.17,50.6c-1.11.25-2.22.37-3.31.37Z"/>
          <path class="cls-9" d="M649.16,979.43c78.35,0,152.99,151.13,152.99,151.13l-224.17,50.6s-46.74-145.09,41.32-193.8c9.92-5.49,19.92-7.92,29.86-7.92M649.17,949.43v22.5-22.5h0c-15.45,0-30.39,3.93-44.38,11.67-26.37,14.59-45.56,36.84-57.03,66.15-8.51,21.75-12.59,47.23-12.13,75.75.74,46.3,13.27,85.7,13.81,87.35,4.06,12.62,15.77,20.81,28.54,20.81,2.19,0,4.41-.24,6.62-.74l224.17-50.6c8.97-2.02,16.51-8.05,20.47-16.35,3.96-8.3,3.89-17.96-.18-26.2-.81-1.65-20.25-40.76-50.05-80.33-43.73-58.07-87.42-87.52-129.84-87.52h0Z"/>
        </g>
        <g>
          <path class="cls-11" d="M655.37,926.26c-12.01,0-25.66-1.08-40.56-3.2-78.25-11.12-128.74-41.75-150.05-91.05-42.97-99.4,51.69-235.68,55.74-241.43,2.53-3.59,6.5-5.89,10.87-6.3.47-.04.93-.07,1.4-.07,3.88,0,7.63,1.51,10.45,4.24.54.53,55.06,53.59,105.03,115.31,71.01,87.72,98.15,148.56,82.96,186-9.82,24.21-35.32,36.49-75.79,36.49h-.04Z"/>
          <path class="cls-9" d="M532.76,599.22s321.52,312.04,122.62,312.04c-11.13,0-23.92-.98-38.45-3.05-274.3-38.98-84.16-308.99-84.16-308.99M532.76,569.22c-.93,0-1.86.04-2.8.13-8.74.82-16.68,5.42-21.73,12.6-1.04,1.48-25.75,36.8-45.38,84.46-11.8,28.65-19.39,56.02-22.55,81.33-4.22,33.72-.62,64.08,10.69,90.23,11.39,26.35,30.41,48.14,56.54,64.76,27.17,17.29,62.56,29.13,105.17,35.19,15.62,2.22,29.98,3.34,42.67,3.34,22.13,0,39.97-3.28,54.55-10.03,16.62-7.7,28.78-20.09,35.17-35.84,10.64-26.23,5.05-59.51-17.08-101.74-14.95-28.53-37.87-61.95-68.14-99.33-50.53-62.41-103.98-114.44-106.24-116.63-5.62-5.46-13.13-8.47-20.89-8.47h0Z"/>
        </g>
      </g>
    </g>
    <g id="Print">
      <ellipse class="cls-6" cx="207.87" cy="481.99" rx="39.45" ry="50.5" transform="translate(-191.44 141.29) rotate(-26.2)"/>
      <ellipse class="cls-6" cx="297.43" cy="449.39" rx="39.45" ry="50.5" transform="translate(-107.66 93.98) rotate(-15.24)"/>
      <ellipse class="cls-6" cx="161.01" cy="575.81" rx="37.11" ry="47.5" transform="translate(-253.94 145.34) rotate(-28.33)"/>
      <ellipse class="cls-6" cx="392.97" cy="492.5" rx="37.11" ry="47.5" transform="translate(-83.58 80.33) rotate(-10.56)"/>
      <path class="cls-6" d="M277.51,528.06c-3.7,1.35-47.71,13.47-50.49,79.49-32.69,32.43-26.6,80.5,1.63,101.08,29.98,21.21,77.42-6.55,101.05-32.99,10.72-3.9,89.31,13.27,99.79-48.97-3.03-42.15-25.32-59.83-68.71-69.25-1.48-1.99-34.26-47.21-83.27-29.37Z"/>
    </g>
  </g>
  <g id="Pepper_Paw" data-name="Pepper Paw">
    <g id="BG-5" data-name="BG">
      <g>
        <path class="cls-3" d="M757.28,703.99c-31.54,0-58.37-15.92-73.87-43.19-4.36.84-9.6,1.56-15.43,1.56-19.53,0-37.92-8.13-54.66-24.16-20.69-19.81-39.66-52.72-56.4-97.8-.17-.47-.32-.95-.45-1.43-32.55-124.69-140.1-419.06-191.79-560.52-5.48-14.99-10.32-28.24-14.37-39.36-1.36-3.74-1.18-7.86.5-11.47s4.73-6.4,8.46-7.76c33.73-12.28,81.78-29.69,137.41-49.84,67.13-24.32,143.21-51.89,207.54-75.3,1.69-.62,3.43-.91,5.13-.91,6.13,0,11.88,3.78,14.1,9.87,7.86,21.6,15.06,42.33,22.67,64.28,33.09,95.35,74.25,213.98,212.59,524.99,8.75,17.95,16.02,44.01,19.01,68.1,2.78,22.39,3.28,54.17-10.09,78.42-7.86,14.25-19.59,24.24-34.4,29.45,2.04,17.96-3.13,37.69-14.97,55.47-16.43,24.67-42.29,40-67.51,40.01h-.01c-6.8,0-13.44-1.05-19.87-3.12-5.34,10.6-13.36,19.91-23.51,27.09-14.23,10.08-32.02,15.63-50.07,15.63h-.01Z"/>
        <path class="cls-4" d="M709.36-191.18c42.04,115.51,65.38,207.44,235.76,590.48,19.72,40.22,41.35,150.71-30.1,158.39,15.73,37.64-21.83,91.7-64.26,91.7-9.42,0-19.08-2.66-28.45-8.76-6.14,30.16-35.13,48.36-65.01,48.36-25.97,0-52.62-13.74-65.56-45.33-4.94.76-13.21,3.71-23.75,3.71-24.5,0-61.27-15.92-97-112.18-36.2-138.69-164.41-485.36-206.58-601.22,75.54-27.5,228.73-82.84,344.95-125.15M709.36-221.19c-3.41,0-6.87.58-10.26,1.82-64.34,23.42-140.45,50.99-207.6,75.32-55.6,20.15-103.62,37.55-137.35,49.82-7.48,2.72-13.57,8.3-16.93,15.51-3.36,7.21-3.72,15.46-1,22.94,4.05,11.13,8.9,24.4,14.38,39.4,51.61,141.24,158.99,435.14,191.36,559.14.25.97.55,1.92.9,2.86,17.78,47.89,37.43,81.72,60.08,103.42,19.63,18.79,41.51,28.32,65.04,28.32,2.81,0,5.48-.14,7.99-.36,7.51,10.63,16.77,19.57,27.47,26.42,15.89,10.18,34.51,15.56,53.85,15.56,21.14,0,42-6.53,58.75-18.39,8.75-6.2,16.18-13.72,22.06-22.21,4.16.66,8.38,1,12.65,1,16.02,0,32.26-4.89,46.94-14.14,12.83-8.08,24.26-19.34,33.05-32.54,11.41-17.14,17.49-36.01,17.89-54.15,2.53-1.32,4.97-2.78,7.33-4.37,10.2-6.88,18.54-16.13,24.8-27.48,15.32-27.78,14.9-62.92,11.84-87.51-3.17-25.51-10.93-53.25-20.3-72.58C834.32,76.37,793.28-41.9,760.3-136.95c-7.64-22-14.85-42.78-22.75-64.49-4.43-12.18-15.94-19.75-28.19-19.75h0Z"/>
      </g>
      <g class="cls-12">
        <g>
          <path class="cls-2" d="M440.96,369.43c-10.97,0-22.32-8.47-37.96-28.3-11.56-14.66-25.3-35.47-39.74-60.18-33.48-57.34-65.69-126.45-86.15-184.88-26.66-76.12-32.15-128.97-16.31-157.06.9-1.6,2.09-3.02,3.51-4.19,45.57-37.69,121.83-100.76,206.52-153.98,101.99-64.1,189.42-96.6,259.85-96.6,27.57,0,53.04,4.96,75.69,14.75,8.28,3.58,13.72,10.03,15.31,18.18,4.54,23.24-21.71,51.04-86.85,117.27-110.24,112.1-294.76,299.71-273.13,495.38,1.8,16.24-.03,26.42-5.92,33-3.82,4.26-9.07,6.61-14.81,6.61h0Z"/>
          <path class="cls-7" d="M730.68-300.76c24.64,0,48.11,4.17,69.74,13.52,66.94,28.92-387.92,308.48-353.63,618.71,1.76,15.91-.55,22.96-5.82,22.96-36.09,0-210.85-330.44-167.1-408.05,94.38-78.06,299.85-247.14,456.81-247.14M730.68-330.76c-40.32,0-85.89,10.02-135.43,29.77-40.69,16.22-85.23,39.48-132.4,69.13-85.51,53.74-162.25,117.21-208.1,155.12-2.83,2.34-5.21,5.18-7.01,8.38-10.52,18.66-13.36,44.13-8.66,77.86,3.59,25.75,11.63,56.57,23.9,91.59,20.78,59.31,53.45,129.41,87.4,187.53,14.77,25.28,28.9,46.66,40.88,61.84,6.96,8.82,13.17,15.57,18.99,20.65,10.28,8.96,20.33,13.32,30.72,13.32s19.28-4.12,25.98-11.6c11.51-12.86,11.21-30.62,9.66-44.65-9.06-81.95,18.08-169.19,82.96-266.71,56.4-84.77,131.28-160.91,185.96-216.5,25.44-25.86,47.41-48.2,62.96-66.6,19.71-23.31,32-43.13,27.91-64.07-2.53-12.96-11.31-23.56-24.08-29.08-24.54-10.6-52.01-15.98-81.64-15.98h0Z"/>
        </g>
        <g>
          <path class="cls-2" d="M557.12,310.46c-10.56,0-19.19-5.2-23.68-14.24-5.86-11.79-4.33-29.81,4.79-56.72,7.18-21.18,18.84-47.28,34.66-77.57,30.26-57.97,71.59-123.28,110.56-174.71.26-.35.54-.68.83-1,107.92-119.34,299.33-240.16,456.36-240.16,35.92,0,68.85,6.36,97.9,18.91,8.2,3.54,13.29,10.51,13.96,19.11,1.17,14.95-9.35,38.5-93.53,108.92-49.28,41.22-118.46,94.02-205.63,156.92-152.06,109.73-317.84,220.37-358.18,245.9-15.76,9.98-27.85,14.63-38.02,14.63h-.02Z"/>
          <path class="cls-7" d="M1140.63-238.93c32.69,0,63.74,5.49,91.95,17.68,66.94,28.92-560.34,450.54-645.45,504.41-13.37,8.46-23.2,12.3-30.01,12.3-47.24,0,52.09-185.43,138.27-299.17,105.29-116.43,293.16-235.22,445.23-235.22M1140.63-268.93c-95.65,0-191.36,42.29-254.8,77.76-40.15,22.45-79.33,48.71-116.44,78.05-36.1,28.54-68.48,58.58-96.25,89.28-.58.64-1.14,1.31-1.66,2-39.44,52.05-81.27,118.16-111.9,176.83-16.17,30.97-28.13,57.78-35.56,79.69-10.64,31.36-11.87,52.39-4.02,68.21,7.02,14.12,20.9,22.56,37.12,22.56,13.15,0,27.78-5.39,46.05-16.95,41.83-26.47,204.51-134.98,358.93-246.41,87.45-63.11,156.92-116.13,206.48-157.58,29.37-24.57,52.12-45.43,67.62-62.01,23.54-25.17,32.59-42.44,31.24-59.59-1.11-14.12-9.69-25.97-22.97-31.71-30.93-13.36-65.87-20.14-103.85-20.14h0Z"/>
        </g>
      </g>
    </g>
    <g id="Print-2" data-name="Print">
      <ellipse class="cls-5" cx="835.44" cy="543.89" rx="39.45" ry="50.5" transform="translate(-154.29 424.71) rotate(-26.2)"/>
      <ellipse class="cls-5" cx="745.88" cy="576.49" rx="39.45" ry="50.5" transform="translate(-125.3 216.32) rotate(-15.24)"/>
      <ellipse class="cls-5" cx="882.31" cy="450.07" rx="37.11" ry="47.5" transform="translate(-107.91 472.54) rotate(-28.33)"/>
      <ellipse class="cls-5" cx="650.35" cy="533.38" rx="37.11" ry="47.5" transform="translate(-86.71 128.18) rotate(-10.56)"/>
      <path class="cls-5" d="M765.8,497.81c3.7-1.35,47.71-13.47,50.49-79.49,32.69-32.43,26.6-80.5-1.63-101.08-29.98-21.21-77.42,6.55-101.05,32.99-10.72,3.9-89.31-13.27-99.79,48.97,3.03,42.15,25.32,59.83,68.71,69.25,1.48,1.99,34.26,47.21,83.27,29.37Z"/>
    </g>
  </g>
</svg>