<?xml version="1.0" encoding="UTF-8"?>
<svg id="Full_Logo" data-name="Full Logo" xmlns="http://www.w3.org/2000/svg" xmlns:xlink="http://www.w3.org/1999/xlink" viewBox="0 0 1024 1024">
  <defs>
    <style>
      .cls-1 {
        fill: #181818;
      }

      .cls-2 {
        fill: #fcfdf8;
      }

      .cls-3 {
        fill: #f284b5;
      }

      .cls-4 {
        fill: #261911;
      }

      .cls-5 {
        fill: none;
      }

      .cls-6 {
        fill: #8b5e3c;
      }

      .cls-7 {
        stroke: #410d2d;
        stroke-miterlimit: 10;
        stroke-width: 13px;
      }

      .cls-7, .cls-8 {
        fill: #ef60a3;
      }

      .cls-9 {
        fill: #f8dce8;
      }

      .cls-10 {
        clip-path: url(#clippath);
      }
    </style>
    <clipPath id="clippath">
      <path class="cls-5" d="M332.93,1131.22c0-122.92,9.51-217.29-19.59-635.51-4.77-44.54,12.69-155.77,82.46-138.55-2.33-49.8,78.49-95.41,115.49-46.23,30.06-49.04,120.83-31.54,123.73,41.81,16.32,3.23,75.44-3.61,76.37,143.23-13.41,142.71-11.51,512.32-11.51,635.62-80.39,0-243.27-.38-366.95-.38Z"/>
    </clipPath>
  </defs>
  <g id="BG-3" data-name="BG">
    <rect class="cls-8" width="1024" height="1024"/>
    <g>
      <path class="cls-3" d="M1024,651.66c-84.31-24.97-168.62-50.01-230.74-94.55-62.18-44.54-102.23-108.71-167.88-158.49-65.71-49.78-157.01-85.16-203.43-149.22-46.48-64.06-48.01-156.73-49.61-249.4h651.66v651.66Z"/>
      <path class="cls-9" d="M1024,325.86c-42.15-12.52-84.31-25.03-115.37-47.27-31.12-22.3-51.14-54.39-83.97-79.25-32.82-24.92-78.45-42.61-101.72-74.64-23.21-32.03-24.01-78.39-24.8-124.7h325.86v325.86Z"/>
    </g>
    <g>
      <path class="cls-3" d="M0,372.34c83.74,10.3,167.48,20.59,249.4,49.61,81.86,29.01,161.91,76.74,209.18,143.47,47.27,66.73,61.84,152.35,88.58,231.94,26.68,79.59,65.59,153.14,104.5,226.65H0V372.34Z"/>
      <path class="cls-9" d="M0,698.14c41.87,5.18,83.74,10.3,124.7,24.8,40.96,14.56,80.95,38.4,104.62,71.74,23.61,33.39,30.89,76.23,44.26,116,13.37,39.82,32.82,76.57,52.28,113.32H0v-325.86Z"/>
    </g>
  </g>
  <g id="Paw-2" data-name="Paw">
    <g id="BG-4" data-name="BG">
      <g>
        <path class="cls-2" d="M699.88,1146.6c-35.89,0-86.99-.07-146.15-.16-71.4-.1-152.33-.22-220.79-.22-8.28,0-15-6.72-15-15,0-22.99.33-44.93.68-68.15,1.52-100.91,3.41-226.48-20.21-566.04-3.72-35.48,4.65-100.31,34.98-134.05,13.29-14.79,30.01-22.6,48.38-22.6.25,0,.51,0,.76,0,3.04-12.66,9.94-24.95,20.25-35.75,17.81-18.66,42.59-29.8,66.29-29.8,15.44,0,29.6,4.82,41.22,13.83,13.8-12.98,32.75-20.38,53.46-20.38s42.03,7.8,57.58,21.4c14.74,12.89,24.08,29.94,27.41,49.82,12.19,1.97,30.61,7.19,46.22,26.38,20.77,25.53,31.06,68.06,31.45,130.02,0,.5-.02,1-.07,1.5-12.06,128.29-11.67,441.68-11.48,592.28.02,15.97.04,30.08.04,41.93,0,8.28-6.72,15-15,15Z"/>
        <path class="cls-1" d="M563.73,283.27c33.94,0,69.5,24.01,71.3,69.48,16.32,3.23,75.44-3.61,76.37,143.23-13.41,142.71-11.51,512.32-11.51,635.62-80.39,0-243.27-.38-366.95-.38,0-122.92,9.51-217.29-19.59-635.51-4.43-41.38,10.33-140.34,68.4-140.34,4.43,0,9.11.57,14.05,1.8-1.62-34.69,37.1-67.35,73.25-67.35,15.75,0,31.01,6.2,42.24,21.12,11.43-18.64,31.62-27.67,52.43-27.67M563.73,253.27c-20.23,0-39.1,6-54.37,16.79-12.02-6.71-25.69-10.25-40.3-10.25-27.72,0-56.56,12.88-77.14,34.45-9.25,9.69-16.19,20.49-20.59,31.79-18.6,2.48-35.41,11.65-49.1,26.89-19.86,22.1-29.51,53.11-34.11,75.24-4.98,23.95-6.71,50.11-4.66,70.12,23.56,338.74,21.67,463.91,20.16,564.52-.35,23.29-.68,45.28-.68,68.38,0,16.57,13.43,30,30,30,68.45,0,149.38.12,220.77.22,59.17.09,110.27.16,146.17.16,16.57,0,30-13.43,30-30,0-11.85-.02-25.97-.04-41.94-.19-150.38-.58-463.28,11.42-590.87.09-1,.14-2,.13-3-.42-65.51-11.8-111.1-34.82-139.39-14.81-18.21-31.9-25.97-45.34-29.57-5.18-18.98-15.46-35.69-30.05-48.45-18.51-16.19-42.46-25.11-67.45-25.11h0Z"/>
      </g>
      <g class="cls-10">
        <g>
          <path class="cls-6" d="M247.86,1350.23c-102.29,0-153.39-156.94-155.52-163.62-.94-2.96-.94-6.14,0-9.1l165.48-519.24c1.26-3.95,4.09-7.2,7.83-8.98,2.04-.97,4.25-1.46,6.46-1.46,1.85,0,3.7.34,5.46,1.03,1.63.63,40.33,15.92,85.65,49.21,60.33,44.31,103.62,99.79,125.18,160.45,33.53,94.34,16.96,201.42-49.26,318.29-34.02,60.03-67.95,104.98-100.86,133.61-30.38,26.42-60.8,39.82-90.42,39.82Z"/>
          <path class="cls-4" d="M272.12,662.82s361.14,141,153.97,506.58c-70.68,124.73-130.33,165.83-178.23,165.83-92.5,0-141.22-153.17-141.22-153.17l165.48-519.24M272.12,632.82c-4.42,0-8.84.98-12.92,2.92-7.48,3.57-13.15,10.07-15.67,17.97l-165.48,519.24c-1.89,5.92-1.89,12.28,0,18.2.54,1.71,13.6,42.31,39.02,83.3,15.54,25.06,32.6,45.27,50.73,60.07,24.93,20.37,51.87,30.7,80.07,30.7,33.34,0,67.08-14.64,100.26-43.51,34.2-29.75,69.21-76.02,104.07-137.53,36.06-63.63,58.02-125.35,65.28-183.45,6.46-51.68,1.43-101.22-14.93-147.25-12.66-35.63-32.2-69.35-58.06-100.23-20.39-24.35-44.75-46.99-72.38-67.28-46.89-34.44-87.38-50.43-89.08-51.09-3.51-1.37-7.22-2.05-10.91-2.05h0Z"/>
        </g>
        <g>
          <path class="cls-6" d="M802.48,1225.06c-.63,0-1.27-.04-1.9-.12l-227.96-29.13c-7.7-.98-13.38-7.68-13.09-15.44.06-1.65,1.67-40.79,16.09-82.46,20.05-57.96,55.21-92.46,101.68-99.77,4.24-.67,8.49-1.01,12.63-1.01,25.49,0,48.24,12.3,67.6,36.57,14.18,17.78,26.6,42.2,36.91,72.57,17.12,50.45,22.72,100.06,22.95,102.14.5,4.57-1.12,9.12-4.4,12.34-2.82,2.77-6.61,4.3-10.51,4.3Z"/>
          <path class="cls-4" d="M689.93,1012.13c90.76,0,112.55,197.93,112.55,197.93l-227.96-29.13s5.7-152.33,105.11-167.98c3.53-.56,6.96-.82,10.3-.82M689.94,982.13h0c-4.92,0-9.96.4-14.96,1.19-29.77,4.69-55.41,19.04-76.21,42.66-15.43,17.52-27.99,40.08-37.31,67.03-15.14,43.76-16.84,85.07-16.9,86.81-.58,15.52,10.77,28.91,26.18,30.88l227.96,29.13c1.27.16,2.54.24,3.8.24,7.82,0,15.38-3.06,21.03-8.6,6.56-6.44,9.8-15.54,8.79-24.68-.24-2.15-6.01-53.34-23.65-105.32-10.87-32.03-24.12-57.97-39.39-77.11-10.1-12.66-21.31-22.62-33.32-29.63-14.32-8.35-29.8-12.59-46-12.59h0Z"/>
        </g>
        <g>
          <path class="cls-6" d="M776.49,976.52c-21.06,0-46.93-8.35-79.08-25.51-69.73-37.21-106.69-83.27-109.86-136.88-6.38-108.11,129.17-203.79,134.95-207.81,2.54-1.77,5.54-2.69,8.57-2.69,1.27,0,2.54.16,3.79.49,4.25,1.11,7.79,4.02,9.71,7.97.31.65,31.62,65.49,57.09,138.08,35.9,102.32,43.14,168.34,22.14,201.84-7.01,11.18-20.9,24.51-47.29,24.51h-.02Z"/>
          <path class="cls-4" d="M731.06,618.63s166.17,342.89,45.43,342.89c-17.51,0-41.07-7.22-72.02-23.74-244.42-130.44,26.6-319.14,26.6-319.14M731.06,588.63c-6.07,0-12.06,1.84-17.14,5.38-1.49,1.03-36.78,25.77-71.53,63.84-20.89,22.89-37.38,46.01-49.01,68.71-15.49,30.24-22.5,60-20.82,88.45,1.69,28.65,12.12,55.63,30.98,80.2,19.62,25.54,48.82,48.77,86.79,69.03,34.39,18.35,62.57,27.28,86.15,27.28,25.95,0,47.27-11.21,60.02-31.56,14.16-22.6,17.49-55.65,10.17-101.04-5.1-31.64-15.49-69.9-30.87-113.74-25.75-73.38-56.45-136.97-57.75-139.64-3.83-7.9-10.92-13.72-19.41-15.94-2.5-.65-5.05-.98-7.59-.98h0Z"/>
        </g>
      </g>
    </g>
    <g id="Print">
      <ellipse class="cls-7" cx="465.86" cy="397.36" rx="39.45" ry="50.5" transform="translate(-40.18 52.63) rotate(-6.2)"/>
      <ellipse class="cls-7" cx="561.17" cy="397.36" rx="50.5" ry="39.45" transform="translate(118.6 923.6) rotate(-85.24)"/>
      <ellipse class="cls-7" cx="389.73" cy="469.49" rx="37.11" ry="47.5" transform="translate(-63.88 61.38) rotate(-8.33)"/>
      <ellipse class="cls-7" cx="636.2" cy="470.54" rx="47.5" ry="37.11" transform="translate(67.6549 1020.9151) rotate(-80.557)"/>
      <path class="cls-7" d="M515.54,464.47c-3.93,0-49.44-3.66-74.64,57.42-41.81,19.29-52.53,66.55-33.04,95.54,20.91,30.18,74.99,20.32,106.24,3.57,11.41,0,79.38,43.02,110.52-11.88,11.57-40.64-3.33-64.88-40.88-88.57-.71-2.38-16.05-56.08-68.2-56.08Z"/>
    </g>
  </g>
</svg>