<?xml version="1.0" encoding="UTF-8"?>
<svg xmlns="http://www.w3.org/2000/svg" xmlns:xlink="http://www.w3.org/1999/xlink" viewBox="0 0 1024 1024">
  <defs>
    <style>
      .cls-1 {
        fill: #181818;
      }

      .cls-2 {
        fill: #fcfdf8;
      }

      .cls-3 {
        fill: #261911;
      }

      .cls-4 {
        fill: none;
      }

      .cls-5 {
        fill: #8b5e3c;
      }

      .cls-6 {
        clip-path: url(#clippath-1);
      }

      .cls-7 {
        fill: #ef60a3;
        stroke: #410d2d;
        stroke-miterlimit: 10;
        stroke-width: 13px;
      }

      .cls-8 {
        clip-path: url(#clippath-2);
      }

      .cls-9 {
        clip-path: url(#clippath);
      }
    </style>
    <clipPath id="clippath">
      <path class="cls-4" d="M1098.88,861.5c122.92,0,217.29,9.51,635.51-19.59,44.54-4.77,155.77,12.69,138.55,82.46,49.8-2.33,95.41,78.49,46.23,115.49,49.04,30.06,31.54,120.83-41.81,123.73-3.23,16.32,3.61,75.44-143.23,76.37-142.71-13.41-512.32-11.51-635.62-11.51,0-80.39.38-243.27.38-366.95Z"/>
    </clipPath>
    <clipPath id="clippath-1">
      <path class="cls-4" d="M332.93,1121.92c0-122.92,9.51-217.29-19.59-635.51-4.77-44.54,12.69-155.77,82.46-138.55-2.33-49.8,78.49-95.41,115.49-46.23,30.06-49.04,120.83-31.54,123.73,41.81,16.32,3.23,75.44-3.61,76.37,143.23-13.41,142.71-11.51,512.32-11.51,635.62-80.39,0-243.27-.38-366.95-.38Z"/>
    </clipPath>
    <clipPath id="clippath-2">
      <path class="cls-4" d="M332.93-92.78c0-122.92,9.51-217.29-19.59-635.51-4.77-44.54,12.69-155.77,82.46-138.55-2.33-49.8,78.49-95.41,115.49-46.23,30.06-49.04,120.83-31.54,123.73,41.81,16.32,3.23,75.44-3.61,76.37,143.23-13.41,142.71-11.51,512.32-11.51,635.62-80.39,0-243.27-.38-366.95-.38Z"/>
    </clipPath>
  </defs>
  <g id="_4Paw" data-name="4Paw">
    <g id="Paw_copy_4" data-name="Paw copy 4">
      <g id="BG-2" data-name="BG">
        <g class="cls-9">
          <g>
            <path class="cls-5" d="M1272.61,1033.78c-68.16,0-141.94-22.23-219.3-66.07-63.5-35.99-110.09-71.86-138.46-106.62-26.08-31.95-37.67-63.85-34.44-94.83,9.95-95.57,156.84-143.37,163.09-145.36,1.48-.47,3.01-.71,4.55-.71s3.07.24,4.55.71l519.24,165.48c3.95,1.26,7.2,4.09,8.98,7.83s1.94,8.05.43,11.91c-.91,2.33-22.8,57.59-71.43,113.44-28.74,33-60.9,59.34-95.6,78.28-43.64,23.83-91.29,35.91-141.62,35.91Z"/>
            <path class="cls-3" d="M1048.04,635.21l519.24,165.48s-85.15,218.09-294.67,218.09c-60.1,0-130.42-17.94-211.91-64.12-365.58-207.16-12.66-319.45-12.66-319.45M1048.04,605.21c-3.07,0-6.14.47-9.1,1.41-1.6.51-39.73,12.77-79.34,36.6-24.09,14.49-43.93,30.39-58.98,47.24-20.59,23.05-32.41,48.04-35.14,74.26-3.65,35.09,9.05,70.71,37.74,105.86,14.56,17.83,33.63,35.96,56.68,53.87,23.88,18.55,52.81,37.5,86,56.31,79.64,45.13,155.92,68.02,226.7,68.02,52.87,0,102.94-12.7,148.81-37.75,36.26-19.8,69.81-47.25,99.72-81.6,50.32-57.79,73.14-115.41,74.09-117.83,3.01-7.72,2.7-16.34-.87-23.83s-10.07-13.15-17.97-15.67l-519.24-165.48c-2.96-.94-6.04-1.42-9.11-1.42h0Z"/>
          </g>
        </g>
      </g>
    </g>
  </g>
  <g id="Paw_Only">
    <g id="Paw">
      <g id="BG-4" data-name="BG">
        <g>
          <path class="cls-2" d="M699.88,1137.3c-35.89,0-86.99-.07-146.15-.16-71.4-.1-152.33-.22-220.79-.22-8.28,0-15-6.72-15-15,0-22.99.33-44.93.68-68.15,1.52-100.91,3.41-226.48-20.21-566.04-3.72-35.48,4.65-100.31,34.98-134.05,13.29-14.79,30.01-22.6,48.38-22.6.25,0,.51,0,.76,0,3.04-12.66,9.94-24.95,20.25-35.75,17.81-18.66,42.59-29.8,66.29-29.8,15.44,0,29.6,4.82,41.22,13.83,13.8-12.98,32.75-20.38,53.46-20.38s42.03,7.8,57.58,21.4c14.74,12.89,24.08,29.94,27.41,49.82,12.19,1.97,30.61,7.19,46.22,26.38,20.77,25.53,31.06,68.06,31.45,130.02,0,.5-.02,1-.07,1.5-12.06,128.29-11.67,441.68-11.48,592.28.02,15.97.04,30.08.04,41.93,0,8.28-6.72,15-15,15Z"/>
          <path class="cls-1" d="M563.73,273.98c33.94,0,69.5,24.01,71.3,69.48,16.32,3.23,75.44-3.61,76.37,143.23-13.41,142.71-11.51,512.32-11.51,635.62-80.39,0-243.27-.38-366.95-.38,0-122.92,9.51-217.29-19.59-635.51-4.43-41.38,10.33-140.34,68.4-140.34,4.43,0,9.11.57,14.05,1.8-1.62-34.69,37.1-67.35,73.25-67.35,15.75,0,31.01,6.2,42.24,21.12,11.43-18.64,31.62-27.67,52.43-27.67M563.73,243.98c-20.23,0-39.1,6-54.37,16.79-12.02-6.71-25.69-10.25-40.3-10.25-27.72,0-56.56,12.88-77.14,34.45-9.25,9.69-16.19,20.49-20.59,31.79-18.6,2.48-35.41,11.65-49.1,26.89-19.86,22.1-29.51,53.11-34.11,75.24-4.98,23.95-6.71,50.11-4.66,70.12,23.56,338.74,21.67,463.91,20.16,564.52-.35,23.29-.68,45.28-.68,68.38,0,16.57,13.43,30,30,30,68.45,0,149.38.12,220.77.22,59.17.09,110.27.16,146.17.16,16.57,0,30-13.43,30-30,0-11.85-.02-25.97-.04-41.94-.19-150.38-.58-463.28,11.42-590.87.09-1,.14-2,.13-3-.42-65.51-11.8-111.1-34.82-139.39-14.81-18.21-31.9-25.97-45.34-29.57-5.18-18.98-15.46-35.69-30.05-48.45-18.51-16.19-42.46-25.11-67.45-25.11h0Z"/>
        </g>
        <g class="cls-6">
          <g>
            <path class="cls-5" d="M247.86,1340.93c-102.29,0-153.39-156.94-155.52-163.62-.94-2.96-.94-6.14,0-9.1l165.48-519.24c1.26-3.95,4.09-7.2,7.83-8.98,2.04-.97,4.25-1.46,6.46-1.46,1.85,0,3.7.34,5.46,1.03,1.63.63,40.33,15.92,85.65,49.21,60.33,44.31,103.62,99.79,125.18,160.45,33.53,94.34,16.96,201.42-49.26,318.29-34.02,60.03-67.95,104.98-100.86,133.61-30.38,26.42-60.8,39.82-90.42,39.82Z"/>
            <path class="cls-3" d="M272.12,653.52s361.14,141,153.97,506.58c-70.68,124.73-130.33,165.83-178.23,165.83-92.5,0-141.22-153.17-141.22-153.17l165.48-519.24M272.12,623.52c-4.42,0-8.84.98-12.92,2.92-7.48,3.57-13.15,10.07-15.67,17.97l-165.48,519.24c-1.89,5.92-1.89,12.28,0,18.2.54,1.71,13.6,42.31,39.02,83.3,15.54,25.06,32.6,45.27,50.73,60.07,24.93,20.37,51.87,30.7,80.07,30.7,33.34,0,67.08-14.64,100.26-43.51,34.2-29.75,69.21-76.02,104.07-137.53,36.06-63.63,58.02-125.35,65.28-183.45,6.46-51.68,1.43-101.22-14.93-147.25-12.66-35.63-32.2-69.35-58.06-100.23-20.39-24.35-44.75-46.99-72.38-67.28-46.89-34.44-87.38-50.43-89.08-51.09-3.51-1.37-7.22-2.05-10.91-2.05h0Z"/>
          </g>
          <g>
            <path class="cls-5" d="M802.48,1215.76c-.63,0-1.27-.04-1.9-.12l-227.96-29.13c-7.7-.98-13.38-7.68-13.09-15.44.06-1.65,1.67-40.79,16.09-82.46,20.05-57.96,55.21-92.46,101.68-99.77,4.24-.67,8.49-1.01,12.63-1.01,25.49,0,48.24,12.3,67.6,36.57,14.18,17.78,26.6,42.2,36.91,72.57,17.12,50.45,22.72,100.06,22.95,102.14.5,4.57-1.12,9.12-4.4,12.34-2.82,2.77-6.61,4.3-10.51,4.3Z"/>
            <path class="cls-3" d="M689.93,1002.83c90.76,0,112.55,197.93,112.55,197.93l-227.96-29.13s5.7-152.33,105.11-167.98c3.53-.56,6.96-.82,10.3-.82M689.94,972.83h0c-4.92,0-9.96.4-14.96,1.19-29.77,4.69-55.41,19.04-76.21,42.66-15.43,17.52-27.99,40.08-37.31,67.03-15.14,43.76-16.84,85.07-16.9,86.81-.58,15.52,10.77,28.91,26.18,30.88l227.96,29.13c1.27.16,2.54.24,3.8.24,7.82,0,15.38-3.06,21.03-8.6,6.56-6.44,9.8-15.54,8.79-24.68-.24-2.15-6.01-53.34-23.65-105.32-10.87-32.03-24.12-57.97-39.39-77.11-10.1-12.66-21.31-22.62-33.32-29.63-14.32-8.35-29.8-12.59-46-12.59h0Z"/>
          </g>
          <g>
            <path class="cls-5" d="M776.49,967.22c-21.06,0-46.93-8.35-79.08-25.51-69.73-37.21-106.69-83.27-109.86-136.88-6.38-108.11,129.17-203.79,134.95-207.81,2.54-1.77,5.54-2.69,8.57-2.69,1.27,0,2.54.16,3.79.49,4.25,1.11,7.79,4.02,9.71,7.97.31.65,31.62,65.49,57.09,138.08,35.9,102.32,43.14,168.34,22.14,201.84-7.01,11.18-20.9,24.51-47.29,24.51h-.02Z"/>
            <path class="cls-3" d="M731.06,609.34s166.17,342.89,45.43,342.89c-17.51,0-41.07-7.22-72.02-23.74-244.42-130.44,26.6-319.14,26.6-319.14M731.06,579.34c-6.07,0-12.06,1.84-17.14,5.38-1.49,1.03-36.78,25.77-71.53,63.84-20.89,22.89-37.38,46.01-49.01,68.71-15.49,30.24-22.5,60-20.82,88.45,1.69,28.65,12.12,55.63,30.98,80.2,19.62,25.54,48.82,48.77,86.79,69.03,34.39,18.35,62.57,27.28,86.15,27.28,25.95,0,47.27-11.21,60.02-31.56,14.16-22.6,17.49-55.65,10.17-101.04-5.1-31.64-15.49-69.9-30.87-113.74-25.75-73.38-56.45-136.97-57.75-139.64-3.83-7.9-10.92-13.72-19.41-15.94-2.5-.65-5.05-.98-7.59-.98h0Z"/>
          </g>
        </g>
      </g>
      <g id="Print">
        <ellipse class="cls-7" cx="465.86" cy="388.06" rx="39.45" ry="50.5" transform="translate(-39.18 52.57) rotate(-6.2)"/>
        <ellipse class="cls-7" cx="561.17" cy="388.06" rx="50.5" ry="39.45" transform="translate(127.87 915.08) rotate(-85.24)"/>
        <ellipse class="cls-7" cx="389.73" cy="460.19" rx="37.11" ry="47.5" transform="translate(-62.53 61.29) rotate(-8.33)"/>
        <ellipse class="cls-7" cx="636.2" cy="461.24" rx="47.5" ry="37.11" transform="translate(76.8272 1013.1423) rotate(-80.557)"/>
        <path class="cls-7" d="M515.54,455.17c-3.93,0-49.44-3.66-74.64,57.42-41.81,19.29-52.53,66.55-33.04,95.54,20.91,30.18,74.99,20.32,106.24,3.57,11.41,0,79.38,43.02,110.52-11.88,11.57-40.64-3.33-64.88-40.88-88.57-.71-2.38-16.05-56.08-68.2-56.08Z"/>
      </g>
    </g>
  </g>
  <g id="Full_Logo" data-name="Full Logo">
    <g id="Paw-2" data-name="Paw">
      <g id="BG-6" data-name="BG">
        <g class="cls-8">
          <g>
            <path class="cls-5" d="M247.86,126.23c-102.29,0-153.39-156.94-155.52-163.62-.94-2.96-.94-6.14,0-9.1l165.48-519.24c1.26-3.95,4.09-7.2,7.83-8.98,2.04-.97,4.25-1.46,6.46-1.46,1.85,0,3.7.34,5.46,1.03,1.63.63,40.33,15.92,85.65,49.21,60.33,44.31,103.62,99.79,125.18,160.45,33.53,94.34,16.96,201.42-49.26,318.29-34.02,60.03-67.95,104.98-100.86,133.61-30.38,26.42-60.8,39.82-90.42,39.82Z"/>
            <path class="cls-3" d="M272.12-561.18s361.14,141,153.97,506.58c-70.68,124.73-130.33,165.83-178.23,165.83-92.5,0-141.22-153.17-141.22-153.17l165.48-519.24M272.12-591.18c-4.42,0-8.84.98-12.92,2.92-7.48,3.57-13.15,10.07-15.67,17.97L78.06-51.05c-1.89,5.92-1.89,12.28,0,18.2.54,1.71,13.6,42.31,39.02,83.3,15.54,25.06,32.6,45.27,50.73,60.07,24.93,20.37,51.87,30.7,80.07,30.7,33.34,0,67.08-14.64,100.26-43.51,34.2-29.75,69.21-76.02,104.07-137.53,36.06-63.63,58.02-125.35,65.28-183.45,6.46-51.68,1.43-101.22-14.93-147.25-12.66-35.63-32.2-69.35-58.06-100.23-20.39-24.35-44.75-46.99-72.38-67.28-46.89-34.44-87.38-50.43-89.08-51.09-3.51-1.37-7.22-2.05-10.91-2.05h0Z"/>
          </g>
          <g>
            <path class="cls-5" d="M802.48,1.06c-.63,0-1.27-.04-1.9-.12l-227.96-29.13c-7.7-.98-13.38-7.68-13.09-15.44.06-1.65,1.67-40.79,16.09-82.46,20.05-57.96,55.21-92.46,101.68-99.77,4.24-.67,8.49-1.01,12.63-1.01,25.49,0,48.24,12.3,67.6,36.57,14.18,17.78,26.6,42.2,36.91,72.57,17.12,50.45,22.72,100.06,22.95,102.14.5,4.57-1.12,9.12-4.4,12.34-2.82,2.77-6.61,4.3-10.51,4.3Z"/>
            <path class="cls-3" d="M689.93-211.87c90.76,0,112.55,197.93,112.55,197.93l-227.96-29.13s5.7-152.33,105.11-167.98c3.53-.56,6.96-.82,10.3-.82M689.94-241.87h0c-4.92,0-9.96.4-14.96,1.19-29.77,4.69-55.41,19.04-76.21,42.66-15.43,17.52-27.99,40.08-37.31,67.03-15.14,43.76-16.84,85.07-16.9,86.81-.58,15.52,10.77,28.91,26.18,30.88l227.96,29.13c1.27.16,2.54.24,3.8.24,7.82,0,15.38-3.06,21.03-8.6,6.56-6.44,9.8-15.54,8.79-24.68-.24-2.15-6.01-53.34-23.65-105.32-10.87-32.03-24.12-57.97-39.39-77.11-10.1-12.66-21.31-22.62-33.32-29.63-14.32-8.35-29.8-12.59-46-12.59h0Z"/>
          </g>
        </g>
      </g>
    </g>
  </g>
</svg>