<?xml version="1.0" encoding="UTF-8"?>
<svg xmlns="http://www.w3.org/2000/svg" xmlns:xlink="http://www.w3.org/1999/xlink" viewBox="0 0 1024 1024">
  <defs>
    <style>
      .cls-1 {
        fill: #261911;
      }

      .cls-2 {
        fill: none;
      }

      .cls-3 {
        fill: #8b5e3c;
      }

      .cls-4 {
        fill: #ef60a3;
        stroke: #410d2d;
        stroke-miterlimit: 10;
        stroke-width: 13px;
      }

      .cls-5 {
        font-family: PackyGreatRegular, 'Packy Great';
        font-size: 360.98px;
      }

      .cls-6 {
        clip-path: url(#clippath);
      }
    </style>
    <clipPath id="clippath">
      <path class="cls-2" d="M126.12-43.48c0-122.92,9.51-217.29-19.59-635.51-4.77-44.54,12.69-155.77,82.46-138.55-2.33-49.8,78.49-95.41,115.49-46.23,30.06-49.04,120.83-31.54,123.73,41.81,16.32,3.23,75.44-3.61,76.37,143.23-13.41,142.71-11.51,512.32-11.51,635.62-80.39,0-243.27-.38-366.95-.38Z"/>
    </clipPath>
  </defs>
  <g id="Text_Paw">
    <g id="Paw_copy_7" data-name="Paw copy 7">
      <g id="Print">
        <ellipse class="cls-4" cx="410.39" cy="387.11" rx="39.45" ry="50.5" transform="translate(-39.4 46.58) rotate(-6.2)"/>
        <ellipse class="cls-4" cx="505.69" cy="387.11" rx="50.5" ry="39.45" transform="translate(77.94 858.92) rotate(-85.24)"/>
        <ellipse class="cls-4" cx="334.26" cy="459.24" rx="37.11" ry="47.5" transform="translate(-62.98 53.24) rotate(-8.33)"/>
        <ellipse class="cls-4" cx="580.72" cy="460.29" rx="47.5" ry="37.11" transform="translate(31.39 957.63) rotate(-80.56)"/>
        <path class="cls-4" d="M460.07,454.23c-3.93,0-49.44-3.66-74.64,57.42-41.81,19.29-52.53,66.55-33.04,95.54,20.91,30.18,74.99,20.32,106.24,3.57,11.41,0,79.38,43.02,110.52-11.88,11.57-40.64-3.33-64.88-40.88-88.57-.71-2.38-16.05-56.08-68.2-56.08Z"/>
      </g>
    </g>
    <text class="cls-5" transform="translate(22.16 626.79)"><tspan x="0" y="0" xml:space="preserve">P   W</tspan></text>
  </g>
  <g id="_4Paw" data-name="4Paw">
    <g id="Paw_copy_3" data-name="Paw copy 3">
      <g id="BG-2" data-name="BG">
        <g class="cls-6">
          <g>
            <path class="cls-3" d="M41.06,175.52C-61.23,175.52-112.33,18.59-114.46,11.91c-.94-2.96-.94-6.14,0-9.1L51.02-516.44c1.26-3.95,4.09-7.2,7.83-8.98,2.04-.97,4.25-1.46,6.46-1.46,1.85,0,3.7.34,5.46,1.03,1.62.63,40.33,15.92,85.65,49.21,60.33,44.31,103.62,99.79,125.18,160.45,33.53,94.34,16.96,201.42-49.27,318.29-34.02,60.03-67.95,104.98-100.86,133.61-30.38,26.42-60.8,39.82-90.42,39.82Z"/>
            <path class="cls-1" d="M65.32-511.88S426.45-370.89,219.29-5.31C148.61,119.42,88.96,160.52,41.06,160.52-51.44,160.52-100.17,7.36-100.17,7.36L65.32-511.88M65.32-541.88c-4.42,0-8.84.98-12.92,2.92-7.48,3.57-13.15,10.07-15.67,17.97L-128.75-1.75c-1.89,5.92-1.89,12.28,0,18.2.54,1.71,13.6,42.31,39.02,83.3,15.54,25.06,32.6,45.27,50.72,60.07,24.93,20.37,51.87,30.7,80.07,30.7,33.34,0,67.08-14.64,100.26-43.51,34.2-29.75,69.21-76.02,104.07-137.53,36.06-63.63,58.02-125.35,65.28-183.45,6.46-51.68,1.43-101.22-14.93-147.25-12.66-35.63-32.2-69.35-58.06-100.23-20.39-24.35-44.75-46.99-72.38-67.28-46.89-34.44-87.38-50.43-89.08-51.09-3.51-1.37-7.22-2.05-10.91-2.05h0Z"/>
          </g>
          <g>
            <path class="cls-3" d="M595.67,50.36c-.63,0-1.27-.04-1.9-.12l-227.96-29.13c-7.7-.98-13.38-7.68-13.09-15.44.06-1.65,1.67-40.79,16.09-82.46,20.05-57.96,55.21-92.46,101.68-99.77,4.24-.67,8.49-1.01,12.63-1.01,25.49,0,48.24,12.3,67.6,36.57,14.18,17.78,26.6,42.2,36.91,72.57,17.12,50.45,22.72,100.06,22.95,102.15.5,4.57-1.12,9.12-4.4,12.34-2.82,2.77-6.61,4.3-10.51,4.3Z"/>
            <path class="cls-1" d="M483.13-162.57c90.76,0,112.55,197.93,112.55,197.93L367.71,6.23s5.7-152.33,105.11-167.98c3.53-.56,6.96-.82,10.3-.82M483.13-192.57h0c-4.92,0-9.96.4-14.96,1.19-29.77,4.69-55.41,19.04-76.21,42.66-15.43,17.52-27.99,40.08-37.31,67.03-15.14,43.76-16.84,85.07-16.9,86.81-.58,15.52,10.77,28.91,26.18,30.88l227.96,29.13c1.27.16,2.54.24,3.8.24,7.81,0,15.38-3.06,21.03-8.6,6.56-6.45,9.8-15.54,8.79-24.68-.24-2.15-6.01-53.34-23.65-105.32-10.87-32.03-24.12-57.97-39.39-77.11-10.1-12.66-21.31-22.62-33.32-29.63-14.32-8.35-29.8-12.59-46-12.59h0Z"/>
          </g>
        </g>
      </g>
    </g>
  </g>
</svg>