<?xml version="1.0" encoding="UTF-8"?>
<svg id="Text_2" data-name="Text 2" xmlns="http://www.w3.org/2000/svg" xmlns:xlink="http://www.w3.org/1999/xlink" viewBox="0 0 1800 1800">
  <defs>
    <style>
      .cls-1 {
        fill: #181818;
      }

      .cls-2 {
        letter-spacing: -.07em;
      }

      .cls-3 {
        fill: #fcfdf8;
      }

      .cls-4 {
        font-family: PackyGreatRegular, 'Packy Great';
        font-size: 367.09px;
      }

      .cls-5 {
        letter-spacing: 0em;
      }

      .cls-6 {
        fill: #261911;
      }

      .cls-7 {
        fill: none;
      }

      .cls-8 {
        fill: #8b5e3c;
      }

      .cls-9 {
        letter-spacing: 0em;
      }

      .cls-10 {
        fill: #ef60a3;
        stroke: #410d2d;
        stroke-miterlimit: 10;
        stroke-width: 13px;
      }

      .cls-11 {
        letter-spacing: -.07em;
      }

      .cls-12 {
        letter-spacing: 0em;
      }

      .cls-13 {
        letter-spacing: -.01em;
      }

      .cls-14 {
        clip-path: url(#clippath);
      }
    </style>
    <clipPath id="clippath">
      <path class="cls-7" d="M1689.79.45c0,145.27-11.24,256.81,23.15,751.06,5.64,52.64-15,184.09-97.45,163.74,2.75,58.86-92.76,112.76-136.5,54.63-35.53,57.96-142.8,37.27-146.22-49.42-19.28-3.82-89.15,4.26-90.25-169.27,15.85-168.66,13.6-605.48,13.6-751.19,95.01,0,287.5.45,433.67.45Z"/>
    </clipPath>
  </defs>
  <text class="cls-4" transform="translate(25.97 786.86)"><tspan class="cls-11" x="0" y="0">P</tspan><tspan class="cls-2" x="212.54" y="0">A</tspan><tspan x="465.46" y="0">W</tspan><tspan x="0" y="440.51">PRINT</tspan><tspan x="0" y="881.01">STU</tspan><tspan class="cls-5" x="757.29" y="881.01">D</tspan><tspan class="cls-12" x="1023.8" y="881.01">I</tspan><tspan class="cls-13" x="1157.42" y="881.01">O</tspan><tspan class="cls-9" x="1429.43" y="881.01">S</tspan></text>
  <g id="Paw_copy_2" data-name="Paw copy 2">
    <g id="BG">
      <g>
        <path class="cls-3" d="M1417.03,1017.58c-24.22,0-48.37-8.97-66.25-24.61-17.4-15.23-28.26-35.52-31.81-59.22-14.37-2.06-36.08-7.39-54.89-30.51-24.14-29.67-36.1-79.38-36.56-151.95,0-.5.02-1,.07-1.5,14.27-151.75,13.8-522.21,13.58-700.25-.02-18.87-.04-35.55-.04-49.54,0-8.28,6.72-15,15-15,42.42,0,102.8.09,172.73.19,84.39.12,180.03.26,260.95.26,8.28,0,15,6.72,15,15,0,27.15-.39,53.06-.8,80.51-1.8,119.31-4.03,267.82,23.9,669.25,2.28,21.71.36,50.45-5.15,76.95-4.92,23.69-15.08,56.69-35.5,79.42-15.17,16.88-34.24,25.81-55.14,25.81-1.02,0-2.04-.02-3.07-.06-3.19,15.25-11.3,30.13-23.73,43.15-20.54,21.53-49.09,34.38-76.38,34.38-18.44,0-35.29-6.02-48.88-17.25-15.94,15.89-38.38,24.99-63.01,24.99Z"/>
        <path class="cls-1" d="M1256.12,0c95.01,0,287.5.45,433.67.45,0,145.27-11.24,256.81,23.15,751.06,5.24,48.91-12.21,165.86-80.84,165.86-5.23,0-10.76-.68-16.61-2.12,1.92,41-43.84,79.6-86.57,79.6-18.62,0-36.65-7.32-49.92-24.96-13.5,22.03-37.38,32.7-61.96,32.7-40.11,0-82.13-28.37-84.26-82.12-19.28-3.82-89.15,4.26-90.25-169.27,15.85-168.66,13.6-605.48,13.6-751.19M1256.12-30c-16.57,0-30,13.43-30,30,0,14,.02,30.69.04,49.56.22,177.8.68,547.78-13.52,698.83-.09,1-.14,2-.13,3,.48,76.13,13.54,128.9,39.92,161.33,17.84,21.93,38.16,30.29,53.79,33.93,1.88,7.75,4.51,15.17,7.87,22.23,6.47,13.59,15.48,25.49,26.8,35.39,20.88,18.27,47.91,28.33,76.13,28.33,24.02,0,46.32-7.5,63.92-20.92,14.11,8.62,30.43,13.18,47.96,13.18,31.3,0,63.91-14.59,87.22-39.02,11.27-11.81,19.49-25.03,24.33-38.85,21.96-2.1,41.85-12.5,57.92-30.38,22.66-25.21,33.73-60.89,39.03-86.39,5.78-27.83,7.8-58.16,5.41-81.3-27.87-400.62-25.63-548.71-23.84-667.72.41-27.5.81-53.47.81-80.73,0-16.57-13.43-30-30-30-80.9,0-176.54-.14-260.92-.26-69.93-.1-130.32-.19-172.75-.19h0Z"/>
      </g>
      <g class="cls-14">
        <g>
          <path class="cls-8" d="M1761.66,569.03c-1.85,0-3.7-.34-5.46-1.03-1.91-.74-47.33-18.69-100.61-57.82-31.34-23.01-58.91-48.64-81.96-76.17-29-34.63-50.88-72.37-65.02-112.17-39.35-110.71-19.83-236.51,58.03-373.9,40.05-70.67,79.96-123.56,118.62-157.19,35.39-30.79,70.74-46.4,105.07-46.4,118.92,0,178.71,183.65,181.2,191.47.94,2.96.94,6.14,0,9.1l-195.57,613.66c-1.26,3.95-4.09,7.2-7.83,8.98-2.04.97-4.25,1.46-6.46,1.46Z"/>
          <path class="cls-6" d="M1790.33-240.65c109.31-.01,166.9,181.02,166.9,181.02l-195.57,613.66s-426.8-166.64-181.97-598.69c83.53-147.41,154.03-195.98,210.64-195.98M1790.34-270.65v30-30c-38.07,0-76.73,16.85-114.93,50.08-19.63,17.07-39.62,38.92-59.41,64.92-20.56,27.02-41.56,59.38-62.42,96.19-42.26,74.58-67.99,146.84-76.48,214.8-7.52,60.22-1.68,117.93,17.37,171.53,14.75,41.49,37.51,80.78,67.66,116.78,23.82,28.45,52.28,54.9,84.58,78.62,54.85,40.28,102.05,58.93,104.03,59.7,3.51,1.37,7.22,2.05,10.91,2.05,4.42,0,8.84-.98,12.92-2.92,7.48-3.57,13.15-10.07,15.67-17.97L1985.82-50.52c1.89-5.92,1.89-12.28,0-18.2-.63-1.99-15.87-49.35-45.55-97.22-18.04-29.1-37.81-52.53-58.76-69.65-28.47-23.26-59.14-35.05-91.17-35.05h0Z"/>
        </g>
        <g>
          <path class="cls-8" d="M1267.88,156.2c-29.26,0-55.42-14.2-77.76-42.2-16.57-20.76-31.09-49.34-43.17-84.95-20.14-59.35-26.72-117.69-26.99-120.14-.5-4.57,1.12-9.12,4.4-12.34,2.82-2.77,6.61-4.3,10.51-4.3.63,0,1.27.04,1.9.12l269.41,34.42c7.7.98,13.38,7.68,13.09,15.44-.07,1.93-1.96,47.8-18.87,96.67-23.35,67.48-64.16,107.63-118.02,116.11-4.87.77-9.75,1.16-14.5,1.16Z"/>
          <path class="cls-6" d="M1134.86-92.73l269.41,34.42s-6.74,180.03-124.23,198.53c-4.17.66-8.23.97-12.17.97-107.26,0-133.01-233.92-133.01-233.92M1134.86-122.73c-7.81,0-15.38,3.06-21.03,8.6-6.56,6.44-9.8,15.54-8.79,24.68.28,2.52,7.03,62.44,27.7,123.32,12.64,37.25,28,67.36,45.65,89.48,11.51,14.43,24.25,25.77,37.86,33.7,16.09,9.38,33.45,14.14,51.62,14.14,5.53,0,11.2-.45,16.84-1.34,59.68-9.4,104.59-52.98,129.86-126.03,17.63-50.96,19.61-98.99,19.68-101.01.58-15.52-10.77-28.91-26.18-30.88l-269.41-34.42c-1.27-.16-2.54-.24-3.8-.24h0Z"/>
        </g>
        <g>
          <path class="cls-8" d="M1219.27,621.24c-1.27,0-2.54-.16-3.79-.49-4.25-1.11-7.79-4.02-9.71-7.97-.37-.76-37.3-77.25-67.35-162.88-17.78-50.66-29.75-94.7-35.59-130.9-7.83-48.52-4.83-82.96,9.16-105.29,7.92-12.64,23.65-27.7,53.6-27.7,24.42,0,54.58,9.76,92.18,29.83,81.52,43.5,124.72,97.18,128.4,159.53,1.77,29.93-5.76,61.55-22.39,94-12.92,25.21-31.36,51.03-54.82,76.74-39.54,43.33-79.43,71.29-81.11,72.45-2.54,1.77-5.54,2.69-8.57,2.69Z"/>
          <path class="cls-6" d="M1165.58,201.01c20.69,0,48.54,8.54,85.12,28.06,288.87,154.16-31.43,377.18-31.43,377.18,0,0-196.38-405.24-53.69-405.24M1165.58,171.01c-14.38,0-27.36,2.97-38.58,8.84-11.35,5.93-20.68,14.64-27.73,25.9-16,25.54-19.69,63.37-11.25,115.64,5.98,37.07,18.18,81.98,36.25,133.48,30.33,86.44,66.49,161.31,68.01,164.46,3.83,7.9,10.92,13.72,19.41,15.94,2.5.65,5.05.98,7.59.98,6.07,0,12.06-1.84,17.14-5.38,1.74-1.21,42.96-30.1,83.62-74.65,24.36-26.69,43.57-53.61,57.09-80.01,17.86-34.86,25.94-69.09,24.01-101.72-1.93-32.75-13.88-63.63-35.5-91.78-22.71-29.57-56.63-56.52-100.81-80.1-39.83-21.26-72.3-31.59-99.24-31.59h0Z"/>
        </g>
      </g>
    </g>
    <g id="Print">
      <ellipse class="cls-10" cx="1532.69" cy="867.76" rx="46.63" ry="59.69" transform="translate(-84.74 170.58) rotate(-6.2)"/>
      <ellipse class="cls-10" cx="1420.06" cy="867.76" rx="59.69" ry="46.63" transform="translate(437.4162 2210.8837) rotate(-85.2386)"/>
      <ellipse class="cls-10" cx="1622.66" cy="782.51" rx="43.85" ry="56.14" transform="translate(-96.21 243.22) rotate(-8.33)"/>
      <ellipse class="cls-10" cx="1331.38" cy="781.27" rx="56.14" ry="43.85" transform="translate(342.2662 1966.4307) rotate(-80.557)"/>
      <path class="cls-10" d="M1473.98,788.44c4.65,0,58.43,4.32,88.21-67.87,49.42-22.8,62.08-78.65,39.04-112.92-24.72-35.67-88.62-24.02-125.56-4.21-13.49,0-93.82-50.84-130.61,14.04-13.68,48.03,3.93,76.68,48.31,104.68.84,2.81,18.96,66.28,80.61,66.28Z"/>
    </g>
  </g>
</svg>