<?xml version="1.0" encoding="UTF-8"?>
<svg id="Text_Paw" xmlns="http://www.w3.org/2000/svg" viewBox="0 0 1024 1024">
  <defs>
    <style>
      .cls-1 {
        fill: #ef60a3;
        stroke: #410d2d;
        stroke-miterlimit: 10;
        stroke-width: 13px;
      }

      .cls-2 {
        font-family: PackyGreatRegular, 'Packy Great';
        font-size: 360.98px;
      }
    </style>
  </defs>
  <g id="Paw_copy_7" data-name="Paw copy 7">
    <g id="Print">
      <ellipse class="cls-1" cx="410.39" cy="387.11" rx="39.45" ry="50.5" transform="translate(-39.4 46.58) rotate(-6.2)"/>
      <ellipse class="cls-1" cx="505.69" cy="387.11" rx="50.5" ry="39.45" transform="translate(77.94 858.92) rotate(-85.24)"/>
      <ellipse class="cls-1" cx="334.26" cy="459.24" rx="37.11" ry="47.5" transform="translate(-62.98 53.24) rotate(-8.33)"/>
      <ellipse class="cls-1" cx="580.72" cy="460.29" rx="47.5" ry="37.11" transform="translate(31.39 957.63) rotate(-80.56)"/>
      <path class="cls-1" d="M460.07,454.23c-3.93,0-49.44-3.66-74.64,57.42-41.81,19.29-52.53,66.55-33.04,95.54,20.91,30.18,74.99,20.32,106.24,3.57,11.41,0,79.38,43.02,110.52-11.88,11.57-40.64-3.33-64.88-40.88-88.57-.71-2.38-16.05-56.08-68.2-56.08Z"/>
    </g>
  </g>
  <text class="cls-2" transform="translate(22.16 626.79)"><tspan x="0" y="0" xml:space="preserve">P   W</tspan></text>
</svg>